<svg width="80" height="80" viewBox="0 0 80 80" role="img">
  <path fill="#9D5025" d="M10.8 60.7l3.7 1.8L21 40l-6.5-22.5-3.7 1.8"/>
  <path fill="#F58536" d="M21.7 19.2l-7.2-1.7v45l7.2-1.7"/>
  <path fill="#9D5025" d="M19 15.2l5.4-2.7L31.2 40l-6.8 27.5-5.4-2.7"/>
  <path fill="#F58536" d="M35.6 63.8l-11.2 3.6v-55L35.6 16"/>
  <path fill="#9D5025" d="M61 22h4.5v34.4L61 56"/>
  <path fill="#6B3A19" d="M43.7 22.6l5-2.5L65 22l.6 4.5-4.5.7"/>
  <path fill="#FBBF93" d="M43.8 57.4l5 2.5 17-6.7-4.5-.7"/>
  <path fill="#9D5025" d="M45 50l9 1.3V28.7L45 30"/>
  <path fill="#9D5025" d="M31.2 71l8.8 4.3L47.5 40 40 4.6 31.2 9"/>
  <path fill="#F58536" d="M40 4.7v70.6l29.2-14.6V19.3L40 4.7zm25.5 48.8l-16.8 5v-37l16.8 5v27z"/>
  <path fill="#F58536" d="M54 28.7v22.7L63.3 40"/>
</svg>
