<svg width="80" height="80" viewBox="0 0 80 80" role="img">
  <path fill="#205081" fill-rule="evenodd" d="M40 8c-15.4 0-28 4-28 9.2 0 1.4 3.4 20.6 4.7 28.2.6 3.4 9.5 8.4 23.3 8.4s22.7-5 23.3-8.4c1.3-7.6 4.7-27 4.7-28.2 0-5-12.6-9.2-28-9.2zm0 39.7c-5 0-9-4-9-8.8 0-5 4-9 9-9s9 4 9 9c0 2-1 4.2-2.7 6a9 9 0 0 1-6.3 2.5zM40 20c-10 0-18-1.7-18-3.8 0-2 8-3.8 18-3.8s18 1.7 18 3.8c0 2-8 4-18 3.8zm20.2 33l.7.4v1l-2 10.3C58 69 50 72 40 72s-18-3-19-7.3c0-.6-1-4.6-2-10.3v-.2c0-.3 0-.6.4-.8 0-.2.4-.3.7-.3.6 0 .8 0 1 .6 0 0 7 5.4 19 5.4 12.7 0 19.6-5.5 19.6-5.5.2-.2.5-.3.8-.3zM40 43.4c-2.5 0-4.5-2-4.5-4.4 0-2.5 2-4.5 4.5-4.5s4.5 2 4.5 4.5c0 2.4-2 4.4-4.5 4.4z"/>
</svg>
