<svg width="80" height="80" viewBox="0 0 80 80" role="img">
  <path fill="#00B198" d="M61.68 39l9.68-16.76L61.7 5.48H42.33l-9.68 16.76L42.34 39"/>
  <path fill="#FFF" d="M42.02 4.94l-10 17.3 10 17.3H62l10-17.3-10-17.3H42.02zm.63 1.08h18.72l9.37 16.22-9.37 16.22H42.65l-9.37-16.22 9.37-16.22z"/>
  <path fill="#00AED1" d="M32.65 55.76l9.68 16.77H61.7l9.67-16.77L61.7 39H42.33"/>
  <path fill="#FFF" d="M42.02 38.46l-10 17.3 10 17.3H62l10-17.3-10-17.3H42.02zm.63 1.1h18.72l9.37 16.2L61.37 72H42.65l-9.37-16.24 9.37-16.2z"/>
  <path fill="#3B4B54" d="M32.66 22.24H13.3L3.62 39l9.68 16.76h19.36L42.33 39"/>
  <path fill="#FFF" d="M13 21.7L3 39l10 17.3h19.97l10-17.3-10-17.3H13zm.6 1.08h18.74L41.7 39l-9.36 16.22H13.6L4.26 39l9.36-16.22z"/>
  <path fill="#FFF" d="M32.34 21.7v34.6L62.3 39 32.35 21.7zm1.08 1.88L60.15 39 33.42 54.43V23.58z"/>
  <path fill="#FFF" d="M42.33 19.64c-10.7 0-19.35 8.67-19.35 19.36 0 10.7 8.66 19.35 19.35 19.35 10.7 0 19.36-8.66 19.36-19.35 0-10.7-8.68-19.36-19.37-19.36zm0 1.1c10.1 0 18.27 8.17 18.27 18.26 0 10.1-8.18 18.27-18.27 18.27-10.1 0-18.27-8.18-18.27-18.27 0-10.1 8.18-18.27 18.27-18.27z"/>
</svg>
