<svg width="80" height="80" viewBox="0 0 80 80" role="img">
  <defs>
    <linearGradient id="cloud-foundry-1" x1="72%" x2="24%" y1="118%" y2="-28%">
      <stop offset="0%" stop-color="#60BAEB"/>
      <stop offset="12%" stop-color="#4FB4E9"/>
      <stop offset="100%" stop-color="#4054AD"/>
    </linearGradient>
  </defs>
  <path fill="#353435" d="M33.2 46A20 20 0 0 1 40 7c12.6 0 20.2 9.6 20.1 20.2A20 20 0 0 1 46.6 46s-.1-6 3.9-10A13.8 13.8 0 0 0 40 13.3 14 14 0 0 0 29 36c3.3 4.1 4.2 10 4.2 10z"/>
  <path fill="#353435" d="M61.8 61.3c0-1-.9-2.4-.9-2.4-.5 0-1.4-.2-3.2-1-3.2-1.5-1.3-2.7-1-2.9l-1.5-.7-1.5-.7c-.3 0-2.7.2-4.6-.3-1.6-.4-2.3-1.2-2.3-1.5l-2-.3-.2.8c-.3 1.2.4 2.3 1.5 2.7 2.7.7 4.8 2 5.4 3.7 1.2 3.2-3.9 6.4-11.6 6.4-7.7 0-12.7-3.2-11.5-6.4.6-1.6 2.5-2.9 5.2-3.7a2.4 2.4 0 0 0 1.6-2.7l-.2-.8-2.8.4c0 .3-.2 1-2 1.5-2.2.7-4 .5-4.7.4l-1.5.7-1.4.8c.5.2 1.6 1.6-.2 2.6-.4.2-2.4 1.4-3.8 1.4 0 0-.6 1-.6 2.5.5 0 3.5.2 4.4 1.6 1 1.7-.5 3.1-1.4 3.8a35 35 0 0 0 4 2.3c1.2-.5 3.8-1.4 7.4-.7 3.6.7 4.5 2.7 4.7 3.5a44.8 44.8 0 0 0 7-.1c0-.4 1.5-3.3 5-3.8s5.5.3 6.7.7c0 0 1.6-.8 2-1.2l1.6-1.2c-.9-.7-2.4-1.8-1.7-3.7.4-1.2 3.3-1.7 4-1.7z"/>
  <path fill="url(#cloud-foundry-1)" d="M32.9 47c2.4-2 4.4-6 4.5-10.4a150 150 0 0 0-.4-13.4c-2.6-.4-4.4-1.3-4.4-2.3 0-1.3 3.2-2.9 7.2-2.9s7.3 1.6 7.3 3c0 1-1.8 1.8-4.4 2.2-.2 2.9-.6 8.5-.5 13.4.2 4.4 2.2 8.4 4.6 10.4 2 1.6 3.2 4 3.2 6.5 0 4.8-4 9-10 9s-10.3-4.2-10.3-9c0-2.6 1.2-4.9 3.2-6.5z" transform="rotate(-180 39.842 40.275)"/>
</svg>
