<svg width="80" height="80" viewBox="0 0 80 80" role="img">
  <defs>
    <path d="M13.3 10A44 44 0 0 0 0 7.7C4.3 4.1 12-2.7 24.8 1.2c-2.3.6-7.8 2.7-11.5 8.8" id="a"/>
    <path id="c" d="M0 0h144.6v144.6H0V0"/>
  </defs>
  <g fill="none" fill-rule="evenodd">
    <path fill="#099CEC" fill-rule="nonzero" d="M17.6 39h7.8v-7h-7.8zM8.4 39h7.8v-7H8.4zM26.8 39h7.8v-7h-7.8zM36 39h7.8v-7H36zM45.2 39H53v-7h-7.8zM17.6 30.6h7.8v-7.1h-7.8zM26.8 30.6h7.8v-7.1h-7.8zM36 30.6h7.8v-7.1H36zM36 22h7.8v-7H36z"/>
    <path d="M76.3 34.2c-1.6-1-5.8-1.5-8.9-.7-.2-3-1.7-5.6-4.6-7.9l-1-.7-.8 1c-1.4 2.2-2 5-1.7 7.6A9 9 0 0 0 61 38c-.8.6-3.3 1.9-6.7 1.8H3.6c-.9 5.4.6 25.7 24.1 25.7 17.4 0 31.7-7.8 38.3-24.3 2.1 0 7.8.4 10.6-5l.7-1.4-1-.7" fill="#099CEC" fill-rule="nonzero"/>
    <g transform="matrix(1 0 0 -1 9 65.9)">
      <mask id="b" fill="#fff">
        <use href="#a"/>
      </mask>
      <g mask="url(#b)">
        <g transform="translate(-46 -64.7)">
          <mask id="d" fill="#fff">
            <use href="#c"/>
          </mask>
          <g mask="url(#d)">
            <path fill="#FFF" fill-rule="nonzero" d="M42.5 61.1h31.9v17h-32z"/>
          </g>
        </g>
      </g>
    </g>
    <path d="M21.7 54.7a19 19 0 0 1-14.5 1.8l1 1.7a20.6 20.6 0 0 0 14.2-2.3l-.7-1.2" fill="#066DA5" fill-rule="nonzero"/>
    <path d="M27 53.8c1.4 0 2.5-1.2 2.5-2.5 0-1.4-1-2.5-2.4-2.5a2.5 2.5 0 0 0-2.5 2.5c0 1.3 1.1 2.5 2.5 2.5" fill="#FFF" fill-rule="nonzero"/>
    <path d="M27.5 50.6c0-.3 0-.4.2-.6l-.6-.1c-.8 0-1.4.6-1.4 1.4 0 .8.6 1.4 1.4 1.4.8 0 1.4-.6 1.4-1.4v-.1h-.3a.7.7 0 0 1-.7-.6" fill="#4D5C64" fill-rule="nonzero"/>
    <path d="M76 34a13.7 13.7 0 0 0-8.7-.6l.1-.1c1-.3 2-.4 3.2-.4 2.2 0 4.4.5 5.5 1.2" fill="#F2F2F2" fill-rule="nonzero"/>
    <path d="M31.2 65.4l2.6-.7c-1-.3-2.8-.9-4.8-2.1 16.2-.4 28-8.7 37.5-28.3l.7-1h.2v.2c1-.3 2.3-.4 3.5-.4 2 0 4 .3 5.2 1l1 .7-.5 1.1c-2.5 5-7.8 5.4-10.3 5.4h-.5a38 38 0 0 1-34.6 24" fill="#F2F2F2" fill-rule="nonzero"/>
    <path d="M31.2 65.4l2.6-.7c-1-.3-2.8-.9-4.8-2.1 16.2-.4 28-8.7 37.5-28.3l.7-1h.2v.2c1-.3 2.3-.4 3.5-.4 2 0 4 .3 5.2 1l1 .7-.5 1.1c-2.5 5-7.8 5.4-10.3 5.4h-.5a38 38 0 0 1-34.6 24" fill="#0994E0" fill-rule="nonzero"/>
    <path d="M19 64.5a20.7 20.7 0 0 1-10.7-6.3l.7.1a20.2 20.2 0 0 0 10 6.2" fill="#F2F2F2" fill-rule="nonzero"/>
    <path d="M18.1 64.2c-4-1.3-6.9-3.4-9-5.9h.2c2 1.8 5 4.3 8.8 6" fill="#F2F2F2" fill-rule="nonzero"/>
    <path d="M18.1 64.2c-4-1.3-6.9-3.4-9-5.9h.2c2 1.8 5 4.3 8.8 6" fill="#0994E0" fill-rule="nonzero"/>
    <path d="M8.2 58a25.8 25.8 0 0 1-5.5-17.5h.8c-.4 3.3.1 10.3 4.2 16.1l-.5-.1 1 1.6" fill="#F2F2F2" fill-rule="nonzero"/>
    <path d="M11.9 57.2c-1.5 0-2.9-.3-4.2-.6-4-5.8-4.6-12.8-4.2-16.1h2c.7 6.8 2.3 12.7 6.4 16.7" fill="#F2F2F2" fill-rule="nonzero"/>
    <path d="M11.9 57.2c-1.5 0-2.9-.3-4.2-.6-4-5.8-4.6-12.8-4.2-16.1h2c.7 6.8 2.3 12.7 6.4 16.7" fill="#0994E0" fill-rule="nonzero"/>
    <path d="M27.3 65.5a33.3 33.3 0 0 1-9.2-1.3c-3.8-1.6-6.7-4-8.8-5.8a20.7 20.7 0 0 0 4.2.1A25.4 25.4 0 0 0 29 62.6c2 1.2 3.7 1.8 4.8 2.1l-2.6.7-3.9.1" fill="#F2F2F2" fill-rule="nonzero"/>
    <path d="M27.3 65.5a33.3 33.3 0 0 1-9.2-1.3c-3.8-1.6-6.7-4-8.8-5.8a20.7 20.7 0 0 0 4.2.1A25.4 25.4 0 0 0 29 62.6c2 1.2 3.7 1.8 4.8 2.1l-2.6.7-3.9.1" fill="#F2F2F2" fill-rule="nonzero"/>
    <path d="M12.3 58.6a20.7 20.7 0 0 1-4-.4l-.1-.1-1-1.6a18 18 0 0 0 4.7.7c.5.4 1 1 1.6 1.3h-1.2" fill="#F2F2F2" fill-rule="nonzero"/>
    <path d="M12.3 58.6a20.7 20.7 0 0 1-4-.4l-.1-.1-1-1.6a18 18 0 0 0 4.7.7c.5.4 1 1 1.6 1.3h-1.2" fill="#06679D" fill-rule="nonzero"/>
    <path fill="#066DA5" fill-rule="nonzero" d="M9.8 37.7h.7v-4.3h-.7zM12 37.7h.6v-4.3H12zM14 37.7h.8v-4.3H14zM19 37.7h.7v-4.3H19zM21.1 37.7h.8v-4.3H21zM23.3 37.7h.7v-4.3h-.7zM28.2 37.7h.7v-4.3h-.7zM30.4 37.7h.7v-4.3h-.7zM32.5 37.7h.7v-4.3h-.7zM37.4 37.7h.8v-4.3h-.8zM39.6 37.7h.7v-4.3h-.7zM41.7 37.7h.7v-4.3h-.7zM46.7 37.7h.7v-4.3h-.7zM48.8 37.7h.7v-4.3h-.7zM51 37.7h.6v-4.3H51zM21.1 29.2h.8v-4.3H21zM23.3 29.2h.7v-4.3h-.7zM28.2 29.2h.7v-4.3h-.7zM30.4 29.2h.7v-4.3h-.7zM32.5 29.2h.7v-4.3h-.7zM37.4 29.2h.8v-4.3h-.8zM39.6 29.2h.7v-4.3h-.7zM41.7 29.2h.7v-4.3h-.7zM39.6 20.7h.7v-4.3h-.7zM37.4 20.7h.8v-4.3h-.8zM41.7 20.7h.7v-4.3h-.7zM19 29.2h.7v-4.3H19z"/>
    <path d="M71.2 39.9c-1.6.5-3 .7-5 .6h-.9l-.2.5c-6.2 15.5-19.8 23.8-37.6 23.8-10.3 0-17-3.9-20.6-10.5a24.3 24.3 0 0 1-3-13.8h50.6c2.8 0 5.4-1 6.7-2l.6-.4-.5-.6c-.9-1-1.4-2.6-1.6-4.2-.2-2.5.4-5.1 1.7-7l.3-.5.4.3c2.8 2.1 4.2 4.5 4.4 7.3v.9l.8-.2c2.8-.8 6.8-.4 8.3.6l.6.3-.1.2-.2.5-.2.2a8 8 0 0 1-4.5 4zM8.4 32h7.8v7H8.4v-7zm9.2 0h7.8v7h-7.8v-7zm0-8.5h7.8v7h-7.8v-7zm9.2 8.5h7.8v7h-7.8v-7zm0-8.5h7.8v7h-7.8v-7zM36 32h7.8v7H36v-7zm0-8.5h7.8v7H36v-7zm0-8.5h7.8v7H36v-7zm9.2 17H53v7h-7.8v-7zM77 36.6l.4-.8.2-.5.1-.2.3-.6-1.6-1c-1.7-1.2-5.6-1.6-8.6-1-.4-2.9-2-5.4-4.8-7.6l-1.7-1-1.1 1.6a13 13 0 0 0-1.9 8 10 10 0 0 0 1.5 4.3c-1.2.7-3.2 1.2-5.3 1.3v-8.5h-9.3v-17H34.6V22H16.2v8.5H7V39H2.8l-.1.6a25.7 25.7 0 0 0 3 15.3c3.9 7 11 11.2 21.8 11.2 18.2 0 32.2-8.4 38.7-24.3 2.2 0 3.7 0 5.5-.7a9.3 9.3 0 0 0 5.3-4.6z" fill="#066DA5" fill-rule="nonzero"/>
  </g>
</svg>
