<svg width="80" height="80" viewBox="0 0 80 80" role="img">
  <path fill="#24292E" d="M8 40.9c0 14 9.2 26 21.9 30.3 1.6.3 2.2-.7 2.2-1.6v-5.4c-9 2-10.9-4.3-10.9-4.3-1.4-3.7-3.5-4.6-3.5-4.6-3-2 .2-2 .2-2 3.2.2 5 3.3 5 3.3 2.8 4.9 7.4 3.5 9.2 2.7.3-2.1 1.1-3.5 2-4.3-7-.8-14.5-3.5-14.5-15.8 0-3.5 1.2-6.3 3.3-8.5-.4-.8-1.5-4 .3-8.5 0 0 2.7-.8 8.8 3.3a30.7 30.7 0 0 1 16 0c6.1-4.1 8.8-3.3 8.8-3.3 1.7 4.4.7 7.7.3 8.5 2 2.2 3.3 5 3.3 8.5 0 12.3-7.5 15-14.6 15.8 1.1 1 2.2 2.9 2.2 5.9v8.7c0 .9.5 1.9 2.1 1.6A32 32 0 0 0 40 9C23 9 8 23 8 40.9z"/>
</svg>
