<svg width="80" height="80" viewBox="0 0 80 80" role="img">
  <path fill="#E24329" d="M40 72l13-39H27l13 39"/>
  <path fill="#FC6D26" d="M40 72L27 33H9l31 39"/>
  <path fill="#FCA326" d="M9 33L5 45c-.2 1 0 2 1 2.8L40 72 9 33z"/>
  <path fill="#E24329" d="M9 33h18L19.3 9a1.3 1.3 0 0 0-2.6 0L9 33z"/>
  <path fill="#FC6D26" d="M40 72l13-39h18L40 72"/>
  <path fill="#FCA326" d="M71 33l4 12c.2 1 0 2-1 2.8L40 72l31-39z"/>
  <path fill="#E24329" d="M71 33H53l7.7-24a1.3 1.3 0 0 1 2.6 0L71 33z"/>
</svg>
