<svg width="80" height="80" viewBox="0 0 80 80" role="img">
  <g fill="none" fill-rule="evenodd">
    <path fill="#F6D2A2" stroke="#000" d="M18.5 42.93c.1 1.9 2.02 1.03 2.88.43.82-.57 1.06-.1 1.14-1.22.04-.73.13-1.47.1-2.2-1.26-.12-2.6.17-3.63.9-.6.4-1.6 1.6-.5 2.1" stroke-linecap="round"/>
    <path fill="#6AD7E5" stroke="#000" d="M22.93 20.13c-7.33-2.06-1.88-11.38 4-7.54l-4 7.5zm32.55-8.23c5.8-4.1 11.04 5.1 4.3 7.4l-4.3-7.4z" stroke-linecap="round"/>
    <path fill="#F6D2A2" stroke="#000" d="M56.73 66.48c1.47.9 4.16 3.67 1.95 5-2.12 1.95-3.3-2.13-5.17-2.7.8-1.08 1.9-2.08 3.3-2.3z" stroke-linecap="round"/>
    <path stroke="#000" d="M58.68 71.5c-.33-.67-.44-1.43-.98-1.95" stroke-linecap="round"/>
    <path fill="#F6D2A2" stroke="#000" d="M30.4 69.6c-1.72.26-2.7 1.82-4.13 2.62-1.36.8-1.88-.26-2-.48-.2-.1-.2.1-.53-.24-1.25-2 1.32-3.44 2.66-4.43 1.86-.37 3.03 1.24 4 2.53z" stroke-linecap="round"/>
    <path stroke="#000" d="M24.27 71.74c.06-.76.66-1.27.95-1.9" stroke-linecap="round"/>
    <path fill="#000" fill-rule="nonzero" d="M23.24 17.56c-.97-.5-1.68-1.2-1.1-2.33.56-1.03 1.57-.92 2.54-.4l-1.44 2.73zm35-.96c.98-.53 1.7-1.22 1.1-2.34-.55-1.03-1.57-.92-2.54-.4l1.45 2.73z"/>
    <path fill="#F6D2A2" stroke="#000" d="M64.9 42.7c-.1 1.9-2 1-2.87.42-.82-.57-1.06-.1-1.13-1.22-.05-.74-.13-1.47-.1-2.2 1.25-.13 2.6.17 3.62.9.53.4 1.5 1.6.48 2.1" stroke-linecap="round"/>
    <path fill="#6AD7E5" stroke="#000" d="M40.97 8.02c7.34 0 14.2 1.04 17.8 8.1 3.2 7.9 2.07 16.4 2.56 24.75.42 7.17 1.36 15.45-1.97 22.1-3.5 6.98-12.24 8.74-19.44 8.48-5.65-.2-12.5-2.05-15.68-7.22-3.75-6.06-1.97-15.07-1.7-21.82.32-7.9-2.16-16 .46-23.8C25.72 10.5 33.07 8.7 40.97 8" stroke-linecap="round"/>
    <path fill="#FFF" stroke="#000" d="M42.27 17.86c1.32 7.66 13.83 5.63 12.03-2.1-1.6-6.9-12.47-5-12.03 2.1M27.32 19.1c1.7 6.66 12.37 4.96 11.97-1.73-.5-8-13.7-6.46-12 1.73m16.4 7.95c0 1 .2 2.1 0 3.17-.26.48-.76.53-1.2.72-.58-.1-1.08-.48-1.3-1.04-.17-1.2.04-2.38.1-3.58l2.36.73z" stroke-linecap="round"/>
    <g transform="translate(28.397 16.02)">
      <ellipse cx="1.86" cy="1.99" fill="#000" fill-rule="nonzero" rx="1.8" ry="1.95"/>
      <ellipse cx="2.68" cy="2.43" fill="#FFF" rx="1" ry="1"/>
    </g>
    <g transform="translate(43.463 15.533)">
      <ellipse cx="1.89" cy="1.99" fill="#000" fill-rule="nonzero" rx="1.77" ry="1.95"/>
      <ellipse cx="2.7" cy="2.43" fill="#FFF" rx="1" ry="1"/>
    </g>
    <path fill="#FFF" stroke="#000" d="M38.63 26.94c-.8 1.9.44 5.7 2.57 2.9-.15-1.2.06-2.38.1-3.58l-2.67.68z" stroke-linecap="round"/>
    <path fill="#F6D2A2" stroke="#231F20" d="M38.9 23.27c-1.47.12-2.66 1.87-1.9 3.24 1 1.9 3.26-.1 4.66.1 1.6.1 2.94 1.7 4.23.3 1.4-1.5-.7-3.1-2.3-3.7l-4.8.2z" stroke-linecap="round"/>
    <path fill="#000" fill-rule="nonzero" d="M38.7 23.2c-.1-2.55 4.74-2.86 5.32-.74.57 2.12-5.07 2.6-5.3.73-.2-1.5 0 0 0 0z"/>
  </g>
</svg>
