<svg width="80" height="80" viewBox="0 0 80 80" role="img">
  <defs>
    <linearGradient id="google-cloud-a" x1="50.3%" x2="50%" y1="0" y2="100%">
      <stop offset="0%" stop-color="#3E2723" stop-opacity=".1"/>
      <stop offset="100%" stop-color="#3E2723" stop-opacity="0"/>
    </linearGradient>
    <linearGradient id="google-cloud-b" x1="-10.3%" x2="60%" y1="36%" y2="80%">
      <stop offset="0%" stop-color="#3E2723" stop-opacity=".2"/>
      <stop offset="100%" stop-color="#3E2723" stop-opacity="0"/>
    </linearGradient>
    <linearGradient id="google-cloud-c" x1="-16%" x2="85%" y1="10%" y2="80%">
      <stop offset="0%" stop-color="#2D3079" stop-opacity=".2"/>
      <stop offset="100%" stop-color="#2D3079" stop-opacity="0"/>
    </linearGradient>
  </defs>
  <path fill="#FFCE40" d="M30.5 57l-16-29-5.1 9.8a4.3 4.3 0 0 0 0 4.2l13.5 23.8a4.3 4.3 0 0 0 3.6 2.2h18l6-11h-20z"/>
  <path fill="url(#google-cloud-a)" d="M30.5 57l11 11h2l6-11"/>
  <path fill="#DB4436" d="M62.5 23h-32l29 16-16 29h10c1.4 0 3.3-.6 4-2l13.3-24.2c.7-1.3.7-2.9 0-4.1L62.5 23z"/>
  <path fill="url(#google-cloud-b)" d="M49.7 23.2L69.5 44l-13 24h-13l6-11"/>
  <path fill="#3E2723" fill-opacity=".1" d="M49.5 23h13l.2.4H49.5"/>
  <path fill="#547DBF" d="M30.5 23h32l-5.2-8.8c-.7-1.3-2-2.2-3.6-2.2H26.6a4 4 0 0 0-3.6 2.2L14.5 28l16 29V23z"/>
  <path fill="url(#google-cloud-c)" d="M14.5 28l8 8 8 21"/>
  <path fill="#EEE" d="M49.5 23l10 16-10 18h-19l-10-18 10-16h19.3-.3zM40 48.5a8.5 8.5 0 1 0 0-17 8.5 8.5 0 0 0 0 17z"/>
</svg>
