<svg width="80" height="80" viewBox="0 0 80 80" role="img">
  <path fill="#48F" d="M22.4 66l-13-22.6c-1-1.8-1-4 0-5.8l13-22.6c1-1.8 3-3 5-3h26.2c2 0 4 1.2 5 3l13 22.7c1 1.8 1 4 0 5.8L58.6 66c-1 1.8-3 3-5 3h-26c-2 0-4-1.2-5-3z"/>
  <path fill="#000" d="M59 39.5L41.3 21.8 37.8 27l3 3-7.8 3-3 7.5-3-3-5.2 4.8 27 26.7h5c2 0 3.8-1 4.8-3l10-17-9.5-9.5z" opacity=".1"/>
  <path fill="#FFF" d="M40.5 29a11.5 11.5 0 1 0 0 23 11.5 11.5 0 0 0 0-23m0 20.2a8.7 8.7 0 1 1 0-17.4 8.7 8.7 0 0 1 0 17.4m18-10l-4.7-1.6c.3 1.6.4 3.3 0 5h4.8c.4 0 .7-.5.7-1V40c0-.4-.3-.7-.7-.8M40.6 27c1 0 1.8 0 2.7.3l-1.7-4.8c0-.4-.4-.7-.8-.7H40c-.3 0-.6.3-.7.7l-1.5 4.8 2.7-.3M27 40.5c0-1 0-2 .2-3L22.4 39c-.4.3-.7.6-.7 1v2c0 .4.3.8.7.8H27v-2"/>
  <path fill="#FFF" d="M44.6 36.7l-1 1a4.2 4.2 0 1 0-6 6l-1 1a5.7 5.7 0 1 0 8-8m-2.2 5.7a2.6 2.6 0 1 1-3.8-3.8 2.6 2.6 0 0 1 3.8 3.8"/>
</svg>
