<svg width="80" height="80" viewBox="0 0 80 80" role="img">
  <path fill="#430098" fill-rule="evenodd" d="M62.2 63c0 1.2-1 2.2-2.2 2.2H20c-1.2 0-2.2-1-2.2-2.2V17c0-1.2 1-2.2 2.2-2.2h40c1.2 0 2.2 1 2.2 2.2v46zM60 12a5 5 0 0 1 5 5v46a5 5 0 0 1-5 5H20a5 5 0 0 1-5-5V17a5 5 0 0 1 5-5h40zM27.5 59.6l6.3-5.6-6.3-5.6v11.2zM50 37a9 9 0 0 0-6.5-2.6c-3.8 0-7.7 1-10.4 2v-16h-5.3v24.3l4-1.8s6.3-3 12-3c2.8 0 3.4 1.4 3.4 3v16.4h5.6V42.8c0-.4 0-3.5-2.4-6zm-7-7.6h5.5c2.5-3 3.8-6 4.2-9H47c-.7 3-2 6-4.2 9z"/>
</svg>
