<svg width="80" height="80" viewBox="0 0 80 80" role="img">
  <g fill="none">
    <path fill="#5382A1" d="M30.46 58.57s-2.8 1.62 2 2.17c5.77.66 8.73.56 15.1-.64 0 0 1.7 1.05 4.03 1.96-14.3 6.13-32.4-.36-21.2-3.5m-1.77-8s-3.13 2.33 1.65 2.8c6.2.66 11.07.7 19.52-.92 0 0 1.17 1.2 3 1.84-17.28 5.05-36.54.4-24.17-3.7"/>
    <path fill="#E76F00" d="M43.44 37c3.52 4.06-.92 7.7-.92 7.7s8.94-4.6 4.83-10.4c-3.83-5.38-6.78-8.06 9.15-17.3 0 0-25 6.24-13.06 20"/>
    <path fill="#5382A1" d="M62.35 64.48s2.07 1.7-2.27 3.02c-8.26 2.5-34.35 3.26-41.6.1-2.6-1.13 2.28-2.7 3.8-3.04 1.62-.35 2.53-.28 2.53-.28-2.8-2.04-18.7 4-8 5.74C46 74.75 70 67.9 62.4 64.48m-30.6-22.2s-13.25 3.16-4.7 4.3c3.64.5 10.86.38 17.58-.2 5.5-.45 11-1.44 11-1.44s-1.93.83-3.33 1.8C38.85 50.27 12.8 48.64 20.3 45c6.35-3.06 11.5-2.72 11.5-2.72M55.62 55.6c13.7-7.13 7.36-13.97 2.94-13.05-1.08.23-1.57.42-1.57.42s.4-.63 1.1-.9c8.75-3.07 15.5 9.07-2.8 13.88 0 0 .2-.2.3-.36"/>
    <path fill="#E76F00" d="M47.35 2.08s7.6 7.6-7.2 19.26c-11.85 9.37-2.7 14.7 0 20.8-6.92-6.24-12-11.73-8.6-16.85 5-7.6 18.87-11.2 15.8-23.3"/>
    <path fill="#5382A1" d="M33.15 74.9c13.15.83 33.35-.48 33.83-6.7 0 0-.92 2.36-10.87 4.23-11.2 2.12-25 1.87-33.2.52 0 0 1.68 1.4 10.33 1.94"/>
  </g>
</svg>
