<svg width="80" height="80" viewBox="0 0 80 80" role="img">
<g fill="none" fill-rule="evenodd" transform="translate(1.092 15)">
  <path fill="#404137" d="M52.446 0c.07 0 .144.006.208.042l4.136 2.312c.266.148.432.433.432.738V23.09c0 .3-.158.573-.418.724l-6.95 4.01c-.258.15-.574.15-.834 0l-6.95-4.01c-.26-.15-.417-.425-.417-.725v-8.03c0-.3.158-.59.418-.74l6.95-4.01c.26-.15.58-.15.84 0l1.74 1c.09.05.21.05.3 0s.14-.15.14-.25V.41c0-.15.08-.283.21-.36.06-.04.14-.053.21-.054zM49.41 16.1c-.037 0-.065.008-.098.026l-2.38 1.38c-.066.037-.113.105-.113.18v2.757c0 .075.04.144.11.18l2.38 1.38c.06.037.14.037.21 0l2.38-1.38c.06-.036.11-.105.11-.18v-2.757c0-.075-.05-.144-.11-.18l-2.38-1.38c-.04-.02-.08-.027-.11-.027zM7.743 10.013c-.133.005-.257.028-.376.097l-6.95 4.01c-.258.15-.417.423-.417.725L.014 25.61c0 .15.077.29.21.362.128.077.288.077.417 0l4.13-2.367c.26-.155.43-.425.43-.724v-5.02c0-.3.16-.57.42-.72l1.76-1.01c.13-.07.27-.11.42-.11.15 0 .29.04.42.12l1.76 1.02c.26.15.42.43.42.73v5.03c0 .3.17.57.43.73L14.95 26c.13.075.29.075.42 0 .127-.075.21-.214.21-.364l.01-10.765c0-.3-.16-.57-.42-.72L8.2 10.12c-.116-.07-.24-.093-.375-.098H7.74zm62.444.097c-.145 0-.287.037-.417.112l-6.95 4.01c-.26.15-.417.425-.417.725v8.02c0 .303.17.576.43.725l6.895 3.927c.254.14.565.15.82.01l4.18-2.33c.132-.08.222-.21.222-.36s-.078-.29-.21-.36l-6.99-4.01c-.13-.08-.223-.23-.223-.38v-2.5c0-.15.094-.29.223-.37l2.173-1.26c.13-.08.288-.08.418 0l2.18 1.25c.13.07.21.21.21.36v1.97c0 .15.08.28.21.36.13.07.29.07.42 0l4.16-2.43c.26-.15.42-.43.42-.73v-1.93c0-.3-.16-.58-.42-.73l-6.91-4.01c-.13-.076-.27-.11-.42-.11z"/>
  <circle cx="49.98" cy="32.412" r="1.493" stroke="#83CD29" stroke-width=".25"/>
  <text fill="#83CD29" font-family="Arial-BoldMT, Arial" font-size="2" font-weight="bold">
    <tspan x="49.308" y="33.12">R</tspan>
  </text>
  <path fill="#83CD29" d="M38.947 27.812c-.24 0-.476.05-.683.167l-6.56 3.78c-.424.24-.68.7-.68 1.19v7.56c0 .49.256.95.68 1.19l1.714.99c.832.41 1.14.4 1.518.4 1.232 0 1.936-.75 1.936-2.05V33.6c0-.104-.092-.18-.195-.18h-.822c-.105 0-.195.076-.195.18v7.465c0 .575-.6 1.155-1.574.668l-1.782-1.045c-.063-.035-.112-.095-.112-.168v-7.56c0-.07.048-.143.112-.18l6.545-3.774c.06-.036.13-.036.19 0l6.54 3.773c.06.03.11.1.11.18v7.56c0 .07-.04.14-.1.18l-6.56 3.77c-.06.03-.14.03-.2 0l-1.69-1c-.05-.03-.12-.03-.17 0-.47.26-.56.29-.99.44-.11.04-.27.09.05.28l2.2 1.29c.21.12.44.18.68.18.24 0 .47-.06.68-.18l6.56-3.78c.423-.25.68-.71.68-1.2v-7.56c0-.49-.256-.95-.68-1.2l-6.56-3.79c-.2-.12-.44-.17-.68-.17zM28.617 10.07c-.144 0-.287.035-.417.11l-6.95 3.997c-.26.15-.417.438-.417.738v8.02c0 .3.16.575.418.725l6.95 4.01c.26.15.58.15.84 0l6.95-4.01c.26-.15.42-.424.42-.724v-8.02c0-.3-.16-.59-.42-.74l-6.95-3.996c-.13-.075-.27-.11-.41-.11z"/>
  <path fill="#83CD29" d="M40.55 33.258c-1.868 0-2.98.795-2.98 2.117 0 1.434 1.104 1.828 2.896 2.005 2.145.21 2.312.525 2.312.947 0 .732-.584 1.044-1.964 1.044-1.733 0-2.114-.43-2.242-1.29-.015-.09-.086-.16-.18-.16h-.85c-.105 0-.195.09-.195.2 0 1.11.6 2.41 3.467 2.41 2.076 0 3.273-.81 3.273-2.24 0-1.41-.967-1.79-2.98-2.06-2.034-.27-2.228-.4-2.228-.87 0-.39.16-.92 1.67-.92 1.34 0 1.84.29 2.04 1.2.02.09.09.16.18.16h.85c.05 0 .1-.03.14-.07.03-.04.06-.08.05-.13-.13-1.56-1.18-2.3-3.28-2.3zm29.623-16.03c-.027 0-.058 0-.083.013l-1.337.78c-.05.03-.084.09-.084.14v1.53c0 .06.03.12.08.14l1.33.77c.05.03.1.03.15 0l1.33-.76c.05-.03.08-.08.08-.14v-1.53c0-.06-.04-.11-.09-.14l-1.34-.78c-.03-.01-.04-.01-.07-.01z"/>
</g>
</svg>
