<svg width="80" height="80" viewBox="0 0 80 80" role="img">
  <path fill="#C22133" d="M74.8 24.3c-.8-1.6-1.7-3.1-2.8-4.6l-11.2 4c1.3 1.4 2.4 2.9 3.3 4.5l10.7-3.9zM25.3 36.7l-11.2 4c.2 1.9.5 3.6 1 5.4l10.6-4c-.4-1.7-.5-3.6-.4-5.4z"/>
  <path fill="#DB212E" d="M50.1 21.2c2.4 1 4.4 2.5 6 4.3l11.3-4.1a32 32 0 0 0-57.9 21l11.2-4A20.7 20.7 0 0 1 50 21.2m12 20.4a20.8 20.8 0 0 1-35.6 13l-11.1 4a32 32 0 0 0 57.9-21l-11.2 4z"/>
  <path fill="#EB2126" d="M64.8 28l-10.6 3.8c2 3.5 3 7.6 2.6 11.7l11.2-4c-.4-4-1.4-8-3.2-11.6m-49 18L5 49.6c1 3.9 2.7 7.5 5 10.8l11.2-4c-3-3-4.8-6.7-5.6-10.7"/>
  <path fill="#AD213B" d="M73.1 21.4l-1-1.7-11.3 4 1.4 1.6 11-4zM25.3 38.9v-2.2l-11.2 4c0 .8.2 1.5.3 2.2l10.9-4z"/>
  <path fill="#BA2133" d="M73.2 37.5l-11.1 4c-.1 1.7-.5 3.3-1 4.9L73.3 42v-4.5zm-57.8 21c.8 1.3 1.8 2.5 2.8 3.5l12.2-4.4c-1.5-.9-2.7-2-3.9-3l-11.1 4z"/>
</svg>
