<svg width="80" height="80" viewBox="0 0 80 80" role="img"><defs><radialGradient cx="30.02%" cy="82.42%" fx="30.02%" fy="82.42%" r=".18%" gradientTransform="matrix(.52604 0 0 1 .14 0)" id="a"><stop stop-color="#AEB2D5" offset="0%"/><stop stop-color="#AEB2D5" offset="30%"/><stop stop-color="#484C89" offset="75%"/><stop stop-color="#484C89" offset="100%"/></radialGradient></defs><g fill-rule="nonzero" fill="none"><path d="M.66 20.85C.66 9.7 17.83.67 39.01.67s38.35 9.04 38.35 20.18S60.19 41.02 39 41.02.66 31.99.66 20.85" fill="url(#a)" transform="translate(1 19)"/><path d="M40 21c20.43 0 37 8.4 37 18.75C77 50.11 60.43 58.5 40 58.5S3 50.1 3 39.75C3 29.39 19.57 21 40 21" fill="#777BB3"/><path d="M13.75 51.26h4.4c.2 0 .38-.14.41-.34l.98-5.03h3.43c1.7 0 3.13-.19 4.24-.55a8.23 8.23 0 0 0 3.08-1.85c.77-.7 1.4-1.5 1.88-2.34a9.5 9.5 0 0 0 1.02-2.84c.48-2.51.1-4.52-1.15-5.95-1.25-1.42-3.23-2.15-5.9-2.15h-8.46c-.2 0-.37.14-.4.34l-3.94 20.22a.42.42 0 0 0 .41.5zm8.75-9.4h-2.18l1.49-7.62h2.67c1.54 0 2.56.26 3.04.78.46.52.56 1.47.3 2.83-.29 1.45-.83 2.5-1.6 3.1-.8.6-2.05.91-3.72.91zM43.28 45.89a.42.42 0 0 1-.4-.5l1.73-8.94c.17-.85.13-1.46-.11-1.72-.15-.16-.59-.42-1.9-.42h-3.14l-2.18 11.24c-.04.2-.21.34-.41.34H32.5a.42.42 0 0 1-.41-.5l3.93-20.21c.04-.2.2-.34.4-.34h4.38a.42.42 0 0 1 .4.5l-.94 4.87h3.38c2.58 0 4.33.46 5.35 1.4 1.04.95 1.37 2.48.97 4.53l-1.83 9.4c-.04.2-.21.35-.41.35h-4.44zM48.12 51.26h4.4c.2 0 .38-.14.42-.34l.97-5.03h3.43c1.7 0 3.13-.19 4.24-.55a8.23 8.23 0 0 0 3.09-1.85c.76-.7 1.4-1.5 1.87-2.34.48-.86.82-1.81 1.02-2.84.49-2.51.1-4.52-1.15-5.95-1.25-1.42-3.23-2.15-5.89-2.15h-8.47c-.2 0-.37.14-.4.34L47.7 50.77a.42.42 0 0 0 .41.5zm8.75-9.4H54.7l1.48-7.62h2.67c1.54 0 2.57.26 3.04.78.46.52.56 1.47.3 2.83-.29 1.45-.83 2.5-1.6 3.1-.8.6-2.05.91-3.72.91z" stroke="#FFF" fill="#000"/></g></svg>
