<svg width="80" height="80" viewBox="0 0 80 80" role="img">
  <path fill="#00786E" d="M29 34.7c-2.5.7-4.6 2.2-5.4 3.7-1.6 2.7-2.2 8.3 2 11.6 4.3 3.4 11.5 0 11.8-.6l-2.4-3c-2 1.4-4.2 1.7-6 1-3-1.3-3-5.4-1.7-7.3 1.4-1.8 6-3.3 9.4 1.4C40.2 46 43 49.6 47.4 51c4.5 1.7 10.6-1.5 11-6.5.6-5-1-7.5-4.7-9.3-.5-.3-1-.5-1.7-.6-.5-3-2.3-6-4.7-7.8-3-2-7.7-3.2-12.2-1-4 2.3-5.3 6-6 9zm4.4 0c1-4.2 2.8-6 7.4-6 4.7 0 6.4 3.3 7 6.3-1.2.4-2.5 1-4 1.7l2.6 3s2.3-1.5 4.4-1.3c2 .2 4.2 2 4 5.6-.3 1.3-1 3-4 3.7-3 .6-5.2-1.6-8.3-5.4-3.2-4-3.7-5-8-7-.3-.3-.7-.5-1-.6zM40 72C22.3 72 8 57.7 8 40S22.3 8 40 8s32 14.3 32 32-14.3 32-32 32z"/>
</svg>
