<svg width="80" height="80" viewBox="0 0 80 80" role="img">
  <defs>
    <linearGradient id="svg-python-a" x1="12.96%" x2="79.64%" y1="11.7%" y2="78.45%">
      <stop stop-color="#387EB8" offset="0%"/>
      <stop stop-color="#366994" offset="100%"/>
    </linearGradient>
    <linearGradient id="svg-python-b" x1="19.13%" x2="90.74%" y1="20.32%" y2="88.77%">
      <stop stop-color="#FFE052" offset="0%"/>
      <stop stop-color="#FFC331" offset="100%"/>
    </linearGradient>
  </defs>
  <g fill="none">
    <path fill="url(#svg-python-a)" d="M34.88.6c-17.2 0-16.13 7.5-16.13 7.5l.02 7.73H35.2v2.33H12.23s-11-1.25-11 16.12S10.83 51 10.83 51h5.74v-8.06s-.3-9.6 9.46-9.6h16.3s9.14.14 9.14-8.86V9.6s1.4-9-16.6-9zm-9.05 5.2c1.63 0 2.95 1.33 2.95 2.97 0 1.63-1.32 2.95-2.95 2.95-1.64 0-2.96-1.32-2.96-2.95 0-1.64 1.32-2.96 2.96-2.96z" transform="translate(5.048 5)"/>
    <path fill="url(#svg-python-b)" d="M35.37 68.06c17.22 0 16.14-7.46 16.14-7.46v-7.73H35.1v-2.33H58s11 1.25 11-16.1c0-17.38-9.6-16.77-9.6-16.77h-5.73v8.06s.3 9.62-9.46 9.62H27.9s-9.13-.15-9.13 8.84V59s-1.4 9 16.6 9zm9.06-5.2c-1.63 0-2.95-1.32-2.95-2.95 0-1.6 1.32-2.9 2.95-2.9 1.63 0 2.96 1.3 2.96 2.97s-1.4 2.96-3 2.96z" transform="translate(5.048 5)"/>
  </g>
</svg>
