<svg width="80" height="80" viewBox="0 0 80 80" role="img">
  <defs>
    <linearGradient id="svg-scala-a" x1="0%" y1="50%" y2="50%">
      <stop stop-color="#4F4F4F" offset="0%"/>
      <stop stop-color="#FFF" offset="100%"/>
    </linearGradient>
    <linearGradient id="svg-scala-b" x1="0%" y1="50%" y2="50%">
      <stop stop-color="#C40000" offset="0%"/>
      <stop stop-color="#F00" offset="100%"/>
    </linearGradient>
  </defs>
  <g fill="none">
    <path fill="url(#svg-scala-a)" d="M0 47.5v-5.3c0-1 19.2-2.4 31.7-5.2 6 1.4 10.5 3 10.5 5.2v5.3c0 2.2-4.5 4-10.5 5.3C19.2 49.8 0 48.4 0 47.5" transform="matrix(1 0 0 -1 20.996 94.74)"/>
    <path fill="url(#svg-scala-a)" d="M0 26.4V21c0-.8 19.2-2.3 31.7-5.2 6 1.4 10.5 3.2 10.5 5.3v5.6c0 2-4.5 4-10.5 5.3C19.2 28.7 0 27.2 0 26.3" transform="matrix(1 0 0 -1 20.996 52.51)"/>
    <path fill="url(#svg-scala-b)" d="M0 37V21c0 1.4 42.2 4 42.2 10.7v15.8C42.2 41 0 38.3 0 37" transform="matrix(1 0 0 -1 20.996 73.624)"/>
    <path fill="url(#svg-scala-b)" d="M0 15.8V0c0 1.3 42.2 4 42.2 10.6v15.8C42.2 19.8 0 17.2 0 15.8" transform="matrix(1 0 0 -1 20.996 31.394)"/>
    <path fill="url(#svg-scala-b)" d="M0 58V42.3c0 1.3 42.2 4 42.2 10.6v15.6C42.2 62 0 59.4 0 58" transform="matrix(1 0 0 -1 20.996 115.854)"/>
  </g>
</svg>
