<svg width="80" height="80" viewBox="0 0 80 80" role="img">
  <path fill="#ECB32D" d="M49.3 12.2a5.7 5.7 0 0 0-10.8 3.5l14.6 45c1 2.7 4 4.3 7 3.4 3-.3 5-4 4-7L49.5 12.8z"/>
  <path fill="#63C1A0" d="M26.6 19.6c-1-3-4-4.6-7-3.7-3 1-4.7 4-3.7 7l14 45c1 2.5 4 4 6.8 3.2 3-1 5-4 4-7l-14.6-45z"/>
  <path fill="#E01A59" d="M67.7 49.4c3-1 4.6-4 3.6-7-1-3-4-4.7-7-3.8l-45 14.7c-3 1-4.4 4-3.6 7 1 3 4 4.7 7 3.7l45-14.6z"/>
  <path fill="#331433" d="M28.6 62.2l10.7-3.5L35.8 48 25 51.3 28.6 62z"/>
  <path fill="#D62027" d="M51.2 54.8L62 51.3l-3.5-10.8L47.8 44l3.4 10.8z"/>
  <path fill="#89D3DF" d="M60.3 26.8c3-1 4.6-4.2 3.6-7-1-3-4.6-4.7-7-3.8L12 30.6c-3 1-4.5 4-3.6 7 .8 3 4 4.7 7 3.8l45-14.6z"/>
  <path fill="#258B74" d="M21.2 39.5L32 36l-3.5-10.8-10.8 3.5 3.5 10.8z"/>
  <path fill="#819C3C" d="M44 32l10.6-3.3L51 18l-10.6 3.4L44 32z"/>
</svg>
