<svg xmlns="http://www.w3.org/2000/svg" viewBox="0 0 306 477"><defs><style>.cls-1{fill:#fff;}.cls-2{fill:#c6c6c6;}.cls-3{fill:#dbdbdb;}.cls-4{fill:#3b3b63;}.cls-5{fill:#53537a;}.cls-6{fill:#333152;}.cls-7{fill:#bc9375;}.cls-8{fill:#c49a7e;}.cls-9{fill:#d8b7a0;}</style></defs><title>Artboard 1</title><g id="Shield_BG" data-name="Shield BG"><path id="Shield_Outline" data-name="Shield Outline" class="cls-1" d="M153,476.63,0,368.68V117S56.57,96,153.21,96,306,117,306,117V368.68Z"/></g><g id="Shield"><path id="Shield_Right" data-name="Shield Right" class="cls-2" d="M153.18,107.57v353l139.8-99,.4-234.43c-18.66-7.78-68-19.55-140.2-19.55Z"/><path id="Shield_Left" data-name="Shield Left" class="cls-3" d="M153.18,107.57c-48.45,0-86.48,5.51-109.69,10.13-13.72,2.74-22.75,6.69-30.67,9.42l0,234.43,140.38,99Z"/></g><g id="Neck_BG" data-name="Neck BG"><path id="Neck_Border" data-name="Neck Border" class="cls-1" d="M89.73,427.6v0L58.07,405.34,85,155s29.16.29,67.93,0c30,.85,68.64,0,68.64,0l26.9,249.24-31.66,23.09,0-.18L152.89,473Z"/></g><g id="Head_BG" data-name="Head BG"><path id="Head_Outline" data-name="Head Outline" class="cls-1" d="M152.82,423.8C131,423.59,107.6,410.39,104,386.18c-7.31-4.65-13.13-12.55-17-23.16-.52-1.41-1.09-2.84-1.69-4.35-2.21-5.56-4.72-11.87-5.17-19.29l0-.69,1.57-16.89L71.05,306.14c-17.54-23-20.13-29.66-21-31.86-3.45-8.86-2.47-38.39,2.92-87.78L36.73,143.28v-3.06c0-25,31.4-85.32,41-103.21L102.38-8l13.44,93.79,1.11,7.71,5.35,37.36,2.93,4.81a106.28,106.28,0,0,1,27.9-4.17,107.06,107.06,0,0,1,28,4.18l2.93-4.82L204-8.45,228.34,37c6.8,12.66,40.73,77.18,40.73,103.2v3l-16,43.21c8.16,74.86,4.5,84.27,3.11,87.83-.85,2.18-3.44,8.83-20.86,31.72l-10.8,13.75.7,18.49-.13.85A126.11,126.11,0,0,1,219.32,363c-3.87,10.59-9.68,18.48-17,23.14a41.19,41.19,0,0,1-16.2,27,55.09,55.09,0,0,1-32.77,10.64Z"/></g><g id="Neck"><path id="Right_Neck" data-name="Right Neck" class="cls-4" d="M224.11,410.83,200.9,164.73c-18.82.3-47.89,0-48,0V461.89l71.21-51.05Z"/><path id="Left_Neck" data-name="Left Neck" class="cls-5" d="M105.35,164.73,82.43,411.28l70.47,50.61V164.73Z"/><polygon id="Right_Neck_Outline" data-name="Right Neck Outline" class="cls-6" points="216.24 337.75 224.11 410.83 224.11 410.84 224.12 410.87 226.58 409.07 227.03 408.74 230.53 406.19 238.94 400.06 213.54 164.73 200.9 164.73 216.24 337.75"/><polygon id="Left_Neck_Outline" data-name="Left Neck Outline" class="cls-6" points="92.98 164.73 67.59 401.03 82.41 411.47 82.43 411.28 105.35 164.73 92.98 164.73"/></g><g id="eyeballs"><path id="Left_Eyeball" data-name="Left Eyeball" class="cls-1" d="M125.86,235H102v.34a11.91,11.91,0,1,0,23.82,0V235Z"/><path id="Right_Eyeball" data-name="Right Eyeball" class="cls-1" d="M202.51,235H178.7v.34a11.91,11.91,0,1,0,23.81,0V235Z"/></g><g id="Pupils"><path id="Left_Pupil" data-name="Left Pupil" class="cls-6" d="M114.8,233.64a5.47,5.47,0,0,0-3.13,1,3.37,3.37,0,0,1-2.18,5.91,5.5,5.5,0,1,0,5.31-6.9Z"/><path id="Right_Pupil" data-name="Right Pupil" class="cls-6" d="M191.27,233.64a5.47,5.47,0,0,0-3.14,1,3.36,3.36,0,0,1-2.18,5.91,5.5,5.5,0,1,0,5.32-6.9Z"/></g><g id="Lower_Jaw" data-name="Lower Jaw"><path id="Outer_Lip" data-name="Outer Lip" class="cls-6" d="M153.36,399c-8.71,0-21.1-3.88-24.19-14.16l-16.58-4.31c.45,22.12,20.89,34.12,40.31,34.31h.46c19.4,0,40-12,40.44-34.34l-16.57,4.33C174.17,395.08,162,399,153.36,399Z"/><path id="Mid_Lip" data-name="Mid Lip" class="cls-7" d="M171.51,384.47c-4.43,6.15-11.33,8-18.32,8s-13.86-1.88-18.28-8a33.35,33.35,0,0,1-4.79.37c-.32,0-.63,0-1,0,3.09,10.28,15.48,14.16,24.19,14.16s20.81-3.88,23.87-14.16l-1,0A34.06,34.06,0,0,1,171.51,384.47Z"/><path id="Inner_Lip" data-name="Inner Lip" class="cls-6" d="M163.05,382.06a15.23,15.23,0,0,1-2.88,1.67,17.81,17.81,0,0,1-14.19-.09,15.14,15.14,0,0,1-2.67-1.58c1.09-.49-2.26,1.54-8.37,2.44,4.42,6.11,11.29,8,18.25,8s13.89-1.87,18.32-8C171.51,384.47,162.39,381.76,163.05,382.06Z"/><path id="Teeth" class="cls-1" d="M153.19,385a18.84,18.84,0,0,0,7-1.24,15.23,15.23,0,0,0,2.88-1.67,32.52,32.52,0,0,1-5.73-3.29,14.21,14.21,0,0,1-4.13.44,14.42,14.42,0,0,1-4.16-.45,31.84,31.84,0,0,1-5.72,3.3,15.14,15.14,0,0,0,2.67,1.58A18.72,18.72,0,0,0,153.19,385Z"/></g><g id="Head"><path id="Right_Ear" data-name="Right Ear" class="cls-8" d="M214.76,92.23c.46,3.51,5.74,41.92,22.58,65.56l7-18.86c-.9-12.58-14-42.72-26.52-68.12Z"/><path id="Left_Ear" data-name="Left Ear" class="cls-9" d="M91.89,94,88.55,70.81C76.05,96.21,62.94,126.35,62,138.93l7.18,19.31C84.8,136.78,90.61,102.72,91.89,94Z"/><path id="Right_Face" data-name="Right Face" class="cls-4" d="M228.05,185.22l-.21-1.87L231,175c-10.26-10.93-17.42-25.9-22.31-40l-.63,4.44L191.81,166l-6.33-2.7c-.16-.06-16.5-6.9-32.1-7V322h18.5s.24.38.61,1c1.31,2.21,4.27,7.55,4.27,10.53,0,4-6.08,9.47-12.15,13.92-2.06-3.55-4.69-4.17-5.9-1.37a11.14,11.14,0,0,0-.44,5.72,17.5,17.5,0,0,0,2,6.07c0,.05.07.1.1.16l0,.57c.16.36,4.89,10.39,15.86,10.39,4.32,0,14.92-1.41,19.69-14.48,6.6-18.07,6.61-43.91,6.61-44.16v-2.8l1.76-2.19c3.37-4.18,7.28-9.18,11.13-14.23,8.18-10.77,16-21.82,17.6-25.83C234.77,259.22,231.81,219,228.05,185.22Zm-15.62,50.11c0,11.07-9.58,20-20.84,20s-20.83-9-20.83-20V235h41.67Z"/><path id="Left_Face" data-name="Left Face" class="cls-5" d="M134.63,322h18.75V156.3h-.26c-15.78,0-32,6.9-32.19,7L114.6,166l-16.22-26.6L97.89,136c-4.94,14-12.11,28.71-22.32,39.4l3,8-.2,1.88c-3.77,33.73-6.73,74-4.94,80.21,1.53,3.92,9.38,14.95,17.57,25.71,3.83,5,7.74,10,11.1,14.2l1.76,2.18v2.8c0,.26,0,26.15,6.61,44.16C115.2,367.56,125.8,369,130.13,369c10.91,0,15.53-10,15.72-10.42v-.25l.27-.43a17.21,17.21,0,0,0,1.88-5.41,11.83,11.83,0,0,0-.34-6.38c-1.23-2.84-3.91-2.17-6,1.51l-.16.31c-5.87-4.45-11.9-10.06-11.9-14.37,0-2.25,3.17-8.24,4.47-10.58C134.41,322.35,134.63,322,134.63,322Zm-19.69-66.61c-11.24,0-20.84-9-20.84-20V235h41.68v.34C135.78,246.4,126.19,255.37,114.94,255.37Z"/><path id="Right_Cheek" data-name="Right Cheek" class="cls-8" d="M215.44,291.12l-18.59-5.43-21.1-24.06L172.49,323c1.31,2.21,4.27,7.55,4.27,10.53,0,4-6.08,9.47-12.15,13.92-2.06-3.55-4.69-4.17-5.9-1.37a11.14,11.14,0,0,0-.44,5.72,17.5,17.5,0,0,0,2,6.07c0,.05.07.1.1.16l0,.57c.16.36,4.89,10.39,15.86,10.39,4.32,0,14.92-1.41,19.69-14.48,6.6-18.07,6.61-43.91,6.61-44.16v-2.8l1.76-2.19C207.68,301.17,211.59,296.17,215.44,291.12Z"/><path id="Left_Cheek" data-name="Left Cheek" class="cls-9" d="M147.67,346.07c-1.23-2.84-3.91-2.17-6,1.51l-.16.31c-5.87-4.45-11.9-10.06-11.9-14.37,0-2.25,3.17-8.24,4.47-10.58l-3.27-61.32-21.09,24.05L91,291.15c3.83,5,7.74,10,11.1,14.2l1.76,2.18v2.8c0,.26,0,26.15,6.61,44.16C115.2,367.56,125.8,369,130.13,369c10.91,0,15.53-10,15.72-10.42v-.25l.27-.43a17.21,17.21,0,0,0,1.88-5.41A11.83,11.83,0,0,0,147.67,346.07Z"/><g id="Right_Eye" data-name="Right Eye"><path class="cls-6" d="M191.59,255.37c11.26,0,20.84-9,20.84-20V235h-9.92v.34a11.91,11.91,0,1,1-23.81,0V235h-7.94v.34C170.76,246.4,180.35,255.37,191.59,255.37Z"/></g><g id="Left_Eye" data-name="Left Eye"><path class="cls-6" d="M135.78,235.33V235h-9.92v.34a11.91,11.91,0,1,1-23.82,0V235H94.1v.34c0,11.07,9.6,20,20.84,20S135.78,246.4,135.78,235.33Z"/></g><path id="Right_Eyebrow" data-name="Right Eyebrow" class="cls-8" d="M197.63,211.26c-13.68,0-23.52,11-26.13,14.28h28.62C201.45,224.08,212.77,211.26,197.63,211.26Z"/><path id="Left_Eyebrow" data-name="Left Eyebrow" class="cls-9" d="M134.82,225.54c-2.61-3.26-12.45-14.28-26.14-14.28-15.13,0-3.81,12.82-2.48,14.28Z"/><path id="Face_Outline" data-name="Face Outline" class="cls-6" d="M220.4,41.27,209,20l-16.3,113.91-7.53,12.37c-7.26-2.43-19.63-5.83-32.08-5.83s-24.71,3.39-32,5.83l-7.53-12.37L107.91,94a1.91,1.91,0,0,0,0-.2h0L97.31,20,85.68,41.27c-4.07,7.57-40,74.7-40,98.95v1.43l16.43,43.69c-2.63,23.82-7.65,75.57-3.71,85.68,2.46,6.33,11.91,19.39,19.9,29.85L91,319.41c-.57,6.07-1.81,19.43-1.81,19.43.47,7.73,3.87,14.34,6.33,21.1,3.4,9.31,9,17.33,17.1,20.55,4,1.57,11.24,3.88,16.58,4.31.32,0,.63,0,1,0a33.35,33.35,0,0,0,4.79-.37l0,0a36.32,36.32,0,0,0,11.47-4h0a31.12,31.12,0,0,0,2.62-1.71,14.42,14.42,0,0,0,4.16.45,14.21,14.21,0,0,0,4.13-.44c.82.59,1.7,1.16,2.63,1.7l.42.24.77.42a36,36,0,0,0,10.37,3.34,34.06,34.06,0,0,0,4.75.36c.32,0,.81,0,1.14-.06,5.38-.38,12.41-2.72,16.4-4.3,8.12-3.21,13.67-11.23,17.06-20.53a117.71,117.71,0,0,0,5.38-22.19l-.8-20.94,12.76-16.24c7.93-10.42,17.2-23.29,19.63-29.54,3.94-10.11-1.28-61.87-3.9-85.69l16.14-43.69v-1.43h0C260.07,116,224.47,48.84,220.4,41.27ZM62,138.93c.9-12.58,14-42.72,26.51-68.12L91.89,94c-1.28,8.68-7.09,42.74-22.67,64.2ZM233,265.29c-1.57,4-9.42,15.06-17.6,25.83-3.85,5.05-7.76,10.05-11.13,14.23l-1.76,2.19v2.8c0,.25,0,26.09-6.61,44.16C191.18,367.57,180.58,369,176.26,369c-11,0-15.7-10-15.86-10.39l-.18-.51c0-.06-.05-.19-.08-.24a17.21,17.21,0,0,1-1.87-6,11.14,11.14,0,0,1,.44-5.72c1.21-2.8,3.84-2.18,5.9,1.37,6.07-4.45,12.15-9.91,12.15-13.92,0-3-3-8.32-4.27-10.53-.37-.63-.61-1-.61-1H134.63s-.22.37-.54,1c-1.3,2.34-4.47,8.33-4.47,10.58,0,4.31,6,9.92,11.9,14.37l.16-.31c2.08-3.68,4.76-4.35,6-1.51a11.83,11.83,0,0,1,.34,6.38,17.21,17.21,0,0,1-1.88,5.41l-.28.68C145.66,359,141,369,130.13,369c-4.33,0-14.93-1.4-19.7-14.47-6.58-18-6.61-43.9-6.61-44.16v-2.8l-1.76-2.18c-3.36-4.17-7.27-9.16-11.1-14.2-8.19-10.76-16-21.79-17.57-25.71-1.79-6.22,1.17-46.48,4.94-80.21l.2-1.88-3-8C85.78,164.68,93,150,97.89,136l.49,3.41L114.6,166l6.33-2.71c.16-.07,16.41-7,32.19-7h.26c15.6.07,31.94,6.91,32.1,7l6.33,2.7,16.2-26.6.63-4.44c4.89,14.14,12.05,29.11,22.31,40l-3.11,8.38.21,1.87C231.81,219,234.77,259.22,233,265.29Zm4.3-107.5c-16.84-23.64-22.12-62-22.58-65.56l3.07-21.42c12.51,25.4,25.62,55.54,26.52,68.12Z"/></g></svg>