<svg xmlns="http://www.w3.org/2000/svg" width="40" height="40" viewBox="0 0 40 40">
  <path d="M28.9329 10.9909H11.7341C11.7341 9.91345 13.2887 6.65646 16.3979 1.21997C16.3979 1.21997 16.8284 4.08716 17.6893 9.82155L22.9436 9.82168L24.2333 1.21997C27.3664 6.72855 28.9329 9.98554 28.9329 10.9909Z" fill="white"/>
  <path d="M20.3072 38.2497L8.61279 30.0476V10.9045C8.61279 10.9045 12.9366 9.30737 20.3222 9.30737C27.7078 9.30737 32 10.9045 32 10.9045V30.0476L20.3072 38.2497Z" fill="white"/>
  <path d="M20.3073 37.0967L9.36011 29.4507V11.6727C9.36011 11.6727 13.4539 10.1895 20.3073 10.1895V37.0967Z" fill="#DBDBDB"/>
  <path d="M20.322 10.1895C20.317 10.1895 20.3122 10.1896 20.3071 10.1895V37.0741H20.3073L31.1583 29.4502V11.6727C31.1583 11.6727 27.1754 10.1895 20.322 10.1895Z" fill="#C6C6C6"/>
  <path d="M26.2307 32.9136L25.3076 24.8838H20.2341C20.2341 31.257 20.2341 35.3341 20.2341 37.1153L20.3072 37.1844C22.281 35.8328 24.2555 34.4092 26.2307 32.9136Z" fill="#3B3B63"/>
  <path d="M14.387 32.9773L20.3073 37.1848L20.3102 24.6396H15.1829L14.387 32.9773Z" fill="#53537A"/>
  <path d="M22.8406 30.6003C22.8406 31.9799 21.5329 32.6638 20.3332 32.6638C19.1335 32.6638 17.7993 31.9799 17.7993 30.6003" fill="#BC9375"/>
  <path d="M20.3199 31.3138C19.3568 31.3138 18.8884 30.6176 18.8884 29.1863H19.3477C19.3477 30.862 20.0041 30.862 20.3199 30.862C20.6355 30.862 21.2922 30.862 21.2922 29.1863H21.7512C21.7512 30.6176 21.2829 31.3138 20.3199 31.3138Z" fill="white"/>
  <path d="M20.3071 29.5358C20.6035 30.3034 21.1762 30.6872 22.0254 30.6872C22.8569 30.6872 23.7246 30.2561 24.1197 29.1907C24.6716 27.7002 24.666 25.6258 24.666 25.6258C24.666 25.6258 27.1185 22.6017 27.1185 21.5791C27.1185 21.5791 24.848 21.5791 20.3071 21.5791V29.5358Z" fill="#C49A7E"/>
  <path d="M13.3972 21.5791C13.3972 22.7633 15.8285 25.6258 15.8285 25.6258C15.8285 25.6258 15.8225 27.6997 16.375 29.1907C16.7692 30.2554 17.6377 30.6872 18.4693 30.6872C19.3186 30.6872 19.9312 30.3034 20.3074 29.5358V21.5791H13.3972Z" fill="#D8B7A0"/>
  <path d="M26.8257 14.7697C24.9351 12.8603 24.4623 8.87891 24.4623 8.87891C24.1093 10.1335 23.3421 13.8324 23.3421 13.8324C23.3421 13.8324 21.8519 13.3577 20.2468 13.3552C20.1941 13.3552 20.1941 18.339 20.2468 28.3065L21.7749 27.2186L22.059 21.9389L23.6861 23.7676L25.7821 24.3709C25.7821 24.3709 26.5664 23.82 26.5664 23.8221C26.8993 23.3627 27.0098 22.9715 27.0903 22.7684C27.3814 22.0297 26.7278 16.3802 26.7278 16.3802C26.4957 15.9017 26.8257 14.7697 26.8257 14.7697Z" fill="#3B3B63"/>
  <path d="M17.3122 13.8322C17.3122 13.8322 16.5447 10.1334 16.192 8.87866C16.192 8.87866 15.7195 12.8601 13.8286 14.7694C13.8286 14.7694 14.1586 15.9016 13.9265 16.38C13.9265 16.38 13.2728 22.0297 13.564 22.7673C13.6444 22.9705 13.7557 23.3616 14.0882 23.821C14.0882 23.8189 14.8729 24.3699 14.8729 24.3699L16.9685 23.7664L18.5953 21.9381L18.8801 27.2178L20.3089 28.2769V13.3273C18.6977 13.3299 17.3122 13.8322 17.3122 13.8322Z" fill="#53537A"/>
  <path d="M25.5028 5.18932C25.8165 5.76514 28.513 11.0884 28.513 12.9319L27.317 16.1405C27.5193 17.951 27.9218 21.885 27.618 22.6535C27.4304 23.1289 26.7155 24.1069 26.104 24.8989L26.94 32.4148L25.8099 33.2164L25.1815 27.7247C25.0951 28.282 24.9653 28.8771 24.7673 29.4114C24.5054 30.1187 24.0428 30.6546 23.451 30.9721C23.4163 32.6676 21.8288 33.5824 20.3331 33.5824C18.825 33.5824 17.2242 32.6684 17.1889 30.9734C16.5959 30.6554 16.1327 30.1194 15.8706 29.4114C15.6805 28.8976 15.5524 28.3289 15.4656 27.7903L14.8645 33.3173L13.7282 32.5027L14.5488 24.9218C13.9325 24.1263 13.2038 23.1338 13.0145 22.6531C12.7107 21.8844 13.0974 17.951 13.3001 16.1402L12.033 12.8191V12.7109C12.033 10.8675 14.8001 5.76514 15.1142 5.18932L16.0104 3.57275C16.5561 7.31818 16.8287 9.19257 16.8283 9.1959L17.2696 12.231L17.8502 13.171C18.408 12.9856 19.355 12.7281 20.314 12.7281C21.274 12.7281 22.2274 12.9865 22.7876 13.1716L23.3679 12.2311L24.6251 3.57275L25.5028 5.18932ZM20.3331 32.3772C20.9951 32.3772 21.9379 32.0824 22.1733 31.3009C22.148 31.3016 22.1237 31.3037 22.0984 31.3037C21.9696 31.3037 21.8492 31.2918 21.7323 31.276C21.3908 31.7438 20.8588 31.8857 20.32 31.8857C19.782 31.8857 19.251 31.7424 18.9101 31.2754C18.7925 31.2919 18.6707 31.3037 18.5409 31.3037C18.5161 31.3037 18.4922 31.3016 18.4678 31.3009C18.7056 32.0824 19.6611 32.3772 20.3331 32.3772ZM19.5578 31.0927C19.7631 31.2441 20.0169 31.3284 20.3204 31.3284C20.6223 31.3284 20.8748 31.2435 21.0798 31.0927C20.9164 31.0211 20.7684 30.9358 20.638 30.8427C20.5199 30.8771 20.4069 30.8764 20.3198 30.8764C20.2322 30.8764 20.1181 30.8764 19.9991 30.842C19.8689 30.9358 19.7213 31.0211 19.5578 31.0927ZM24.2619 25.2621C25.0753 24.2675 26.2998 22.6656 26.4771 22.2173C26.6109 21.7557 26.3827 18.6958 26.0923 16.1311L26.0763 15.9889L26.3163 15.3518C25.5251 14.5213 24.973 13.3832 24.5959 12.3085L24.5468 12.6461L23.2975 14.6676L22.8096 14.4629C22.7977 14.4578 21.5238 13.9327 20.3147 13.9327C19.0978 13.9327 17.8446 14.4573 17.8324 14.4625L17.3437 14.6689L16.0929 12.6465L16.0559 12.3874C15.6746 13.4517 15.122 14.5698 14.3345 15.3822L14.5637 15.9893L14.5477 16.1317C14.2572 18.6958 14.029 21.7557 14.1672 22.2289C14.3401 22.6663 15.5648 24.2682 16.3777 25.2621L16.5134 25.4281L16.5127 25.6408C16.5127 25.6608 16.5151 27.6284 17.0223 28.9976C17.3905 29.9907 18.2073 30.0969 18.5419 30.0969C19.383 30.0969 19.7388 29.3371 19.7534 29.3048C19.9505 28.923 20.0491 28.2958 20.0491 27.4232H20.5576C20.5576 28.1243 20.6636 28.7529 20.8756 29.3089C20.8884 29.3364 21.2532 30.0988 22.0984 30.0988C22.4323 30.0988 23.2494 29.9915 23.6173 28.9984C24.1262 27.6243 24.1268 25.6608 24.1268 25.6416L24.1262 25.4288L24.2619 25.2621Z" fill="#333152"/>
  <path d="M24.1233 19.9141H22.2867H21.6746V19.9395C21.6746 20.7812 22.414 21.463 23.2813 21.463C24.149 21.463 24.8884 20.781 24.8884 19.9395V19.9141H24.1233Z" fill="#333152"/>
  <path d="M22.2866 19.9141V19.9395C22.2866 20.4402 22.6961 20.8459 23.2051 20.8459C23.7141 20.8459 24.1234 20.4402 24.1234 19.9395V19.9141H22.2866Z" fill="white"/>
  <path d="M23.058 19.9141C23.0539 19.9141 23.0503 19.9161 23.0465 19.9169C23.0999 19.9279 23.1295 20.047 23.118 20.1262C23.1008 20.2474 22.9959 20.3315 22.8757 20.3336C22.9107 20.4919 23.0419 20.6193 23.2162 20.6434C23.4388 20.6744 23.6446 20.5241 23.6761 20.3052C23.6988 20.144 23.6201 19.9141 23.4884 19.9141H23.058Z" fill="#333152"/>
  <path d="M18.2122 19.9141H16.3759H15.7637V19.9395C15.7637 20.7812 16.5032 21.463 17.3704 21.463C18.2381 21.463 18.9777 20.781 18.9777 19.9395V19.9141H18.2122Z" fill="#333152"/>
  <path d="M16.3757 19.9141V19.9395C16.3757 20.4402 16.7855 20.8459 17.2937 20.8459C17.8029 20.8459 18.2122 20.4402 18.2122 19.9395V19.9141H16.3757Z" fill="white"/>
  <path d="M17.5775 19.9141H17.1467C17.1429 19.9141 17.1389 19.9161 17.1355 19.9169C17.1887 19.9279 17.2181 20.047 17.2069 20.1262C17.1896 20.2474 17.0853 20.3315 16.9644 20.3336C16.9998 20.4919 17.131 20.6193 17.3049 20.6434C17.5274 20.6744 17.7337 20.5241 17.7647 20.3052C17.7878 20.144 17.7092 19.9141 17.5775 19.9141Z" fill="#333152"/>
  <path d="M23.9385 19.1958C24.0413 19.0849 24.9141 18.1104 23.7467 18.1104C22.6918 18.1104 21.9328 18.9479 21.7317 19.1958H23.9385Z" fill="#C49A7E"/>
  <path d="M18.903 19.1958C18.702 18.9479 17.943 18.1104 16.8878 18.1104C15.721 18.1104 16.5939 19.0849 16.6961 19.1958H18.903Z" fill="#D8B7A0"/>
  <path d="M13.291 12.6129C13.3604 11.6567 14.3713 9.36561 15.3356 7.43481L15.5927 9.20019C15.4946 9.86026 15.0466 12.4489 13.8448 14.0806L13.291 12.6129Z" fill="#D8B7A0"/>
  <path d="M25.0676 9.06256L25.3045 7.43481C26.2687 9.36546 27.2802 11.6567 27.3496 12.6129L26.8087 14.0458C25.5103 12.2495 25.1029 9.32944 25.0676 9.06256Z" fill="#C49A7E"/>
  <g>
    <path d="M19.4196 28.4951C18.9668 28.157 18.5022 27.7304 18.5022 27.4032C18.5022 27.1882 18.8885 26.5256 18.8885 26.5256H21.761C21.761 26.5256 22.1377 27.1131 22.1377 27.4032C22.1377 27.7079 21.6688 28.1228 21.201 28.4609C21.0417 28.191 20.8391 28.1442 20.7454 28.3569C20.6971 28.4671 20.6876 28.6257 20.7112 28.7918C20.4564 28.9538 20.2702 29.0581 20.2702 29.0581C20.2702 29.0581 20.1264 28.9754 19.9208 28.8424C19.954 28.6584 19.9476 28.4782 19.8942 28.3569C19.7998 28.1413 19.5931 28.1923 19.4326 28.4719C19.4282 28.4795 19.4239 28.4873 19.4196 28.4951Z" fill="#333152"/>
  </g>
</svg>
