<svg width="48" height="48" viewBox="0 0 48 48" role="img">
  <path d="M17.71 29.81v-4.84l-3.49 3.49a10 10 0 0 0 2 1.07 5.28 5.28 0 0 0 1.5.28zm17.84-.4l.1.07c.07.04.16.1.28.15a3.23 3.23 0 0 0 1.8.14 7.15 7.15 0 0 0 1.77-.63c.33-.18.69-.4 1.07-.67l-2.65-2.59-8.77-8.8-3.85 3.84-5.2-5.35L7.06 28.46a10.04 10.04 0 0 0 2.03 1.07 5.16 5.16 0 0 0 1.5.28 3.22 3.22 0 0 0 1.1-.2 1.79 1.79 0 0 0 .39-.22l5.88-5.88 2.1-2.02 5.84 5.83 2.03 2.09.1.07c.07.04.16.1.28.15a3.23 3.23 0 0 0 1.8.14 7.17 7.17 0 0 0 1.77-.63c.33-.18.69-.4 1.07-.67l-4.68-4.57.87-.88 4.05 4.05 2.36 2.34zM35.5 5L47 24.92 35.5 44.84h-23L1 24.92 12.5 5h23z"/>
</svg>
