<svg width="24" height="24" viewBox="0 0 24 24" role="img">
  <path d="M21.3 16.6c-2.52 1.95-6.18 2.98-9.32 2.98-4.4 0-8.38-1.7-11.38-4.53-.24-.23-.02-.53.26-.35 3.25 1.96 7.25 3.15 11.38 3.15 2.8 0 5.86-.6 8.7-1.85.4-.2.77.3.35.6zm1.04-1.24c-.32-.43-2.12-.2-2.94-.1-.25.03-.3-.2-.06-.36 1.43-1.06 3.8-.75 4.07-.4.3.36-.06 2.83-1.4 4-.22.2-.42.1-.32-.14.3-.8.98-2.58.66-3zM6.82 11.03c0 .3.03.52.08.7.06.16.14.35.24.55.04.06.05.12.05.17 0 .08-.05.16-.15.23l-.47.33c-.07.05-.14.08-.2.08-.08 0-.15-.04-.23-.1-.1-.13-.2-.25-.27-.37-.08-.12-.15-.27-.23-.45-.6.7-1.33 1.07-2.23 1.07-.63 0-1.14-.2-1.5-.56-.38-.37-.57-.86-.57-1.48 0-.65.23-1.2.7-1.6C2.5 9.2 3.1 9 3.88 9c.25 0 .5.03.8.07.27.04.56.1.86.17v-.56c0-.6-.12-1-.35-1.23-.23-.24-.64-.36-1.22-.36-.27 0-.54.03-.82.1-.28.07-.55.16-.82.26-.12.06-.2.1-.26.1l-.12.03c-.1 0-.16-.08-.16-.24v-.38c0-.12.02-.22.05-.27.04-.05.1-.1.22-.16.26-.13.58-.25.95-.34.37-.1.76-.14 1.18-.14.9 0 1.55.2 1.97.62.42.42.63 1.05.63 1.9v2.5h.02zM3.75 12.2c.25 0 .5-.04.78-.13.27-.1.5-.26.72-.5.12-.14.2-.3.25-.5.05-.17.08-.4.08-.66v-.3c-.22-.07-.46-.1-.7-.14-.24-.04-.47-.05-.7-.05-.5 0-.88.1-1.13.32-.25.2-.37.5-.37.88 0 .37.1.64.28.82.18.2.44.3.8.3zm6.07.84c-.14 0-.23-.02-.3-.08-.05-.04-.1-.15-.15-.3L7.6 6.7c-.05-.15-.07-.25-.07-.3 0-.13.06-.2.18-.2h.75c.14 0 .24.02.3.08.05.04.1.15.14.3l1.26 5.1 1.18-5.1c.04-.16.1-.26.15-.3.05-.05.15-.08.3-.08h.6c.14 0 .23.02.3.08.06.04.1.15.14.3l1.2 5.16 1.3-5.16c.04-.16.1-.26.15-.3.05-.05.15-.08.28-.08h.7c.13 0 .2.06.2.2 0 .03 0 .07-.02.12l-.05.2-1.8 5.95c-.06.15-.1.25-.17.3-.06.05-.16.08-.3.08h-.64c-.15 0-.25-.03-.3-.08-.07-.05-.12-.15-.15-.3l-1.17-4.98-1.17 4.95c-.03.16-.07.26-.13.3-.06.07-.17.1-.3.1h-.65zm9.7.2c-.4 0-.78-.04-1.16-.13-.38-.08-.67-.18-.87-.3-.13-.07-.2-.15-.24-.22-.03-.06-.05-.14-.05-.2v-.4c0-.17.07-.24.2-.24.03 0 .08 0 .12.02.05 0 .12.05.2.08.25.1.53.2.82.27.3.07.6.1.9.1.48 0 .85-.1 1.1-.26.26-.17.4-.4.4-.73 0-.2-.07-.38-.2-.53-.14-.14-.4-.28-.77-.4l-1.1-.35c-.55-.17-.95-.43-1.2-.78-.25-.34-.38-.72-.38-1.12 0-.32.06-.6.2-.86.13-.24.3-.46.54-.63.22-.18.48-.3.78-.4.3-.1.62-.13.95-.13.17 0 .34 0 .5.03.18.02.34.05.5.1.15.02.3.06.43.1.14.06.24.1.32.15.1.06.18.12.23.2.04.05.06.14.06.24v.37c0 .15-.05.23-.16.23-.06 0-.16-.03-.3-.1-.42-.2-.9-.3-1.44-.3-.43 0-.77.08-1 .23-.24.14-.36.37-.36.68 0 .22.08.4.23.55.15.14.43.28.83.4l1.07.36c.55.18.94.43 1.17.74.24.32.35.68.35 1.08 0 .33-.08.63-.2.9-.14.26-.32.5-.56.67-.23.2-.5.34-.83.44-.33.1-.7.15-1.08.15z" fill-rule="nonzero"/>
</svg>
