<svg width="24" height="24" viewBox="0 0 24 24" role="img">
  <path d="M12.0065344,1 L12.0065344,1 C6.76944085,1 2.5,2.40941597 2.5,4.15971395 C2.5,4.64481526 3.6376458,11.2395709 4.0953194,13.8617402 C4.29800342,15.0351609 7.33172555,16.7592372 11.9999963,16.7592372 L11.9999963,16.7592372 C16.6748051,16.7592372 19.7019891,15.0351609 19.9046731,13.8617402 C20.3558085,11.2395709 21.4999925,4.62514899 21.4999925,4.16626937 C21.5065307,2.40941597 17.2370898,1 12.0065344,1 Z M11.9473275,14.4444444 C10.2642259,14.4444444 8.89980248,13.0764256 8.89980248,11.3888889 C8.89980248,9.70135215 10.2642259,8.33333333 11.9473275,8.33333333 C13.630429,8.33333333 14.9948525,9.70135215 14.9948525,11.3888889 C14.9948525,12.1992726 14.6737748,12.9764651 14.102253,13.5494929 C13.5307312,14.1225208 12.7555813,14.4444444 11.9473275,14.4444444 Z M12.0065344,5.13647199 C8.6459026,5.13647199 5.91947559,4.54648391 5.91947559,3.82538737 C5.91947559,3.10429082 8.6459026,2.51430274 12.0065344,2.51430274 C15.3671663,2.51430274 18.0935933,3.10429082 18.0935933,3.82538737 C18.0935933,4.54648391 15.3606281,5.14302741 11.9999963,5.13647199 L12.0065344,5.13647199 Z M18.8454856,16.4904648 C18.9353624,16.4986627 19.0180867,16.5430372 19.0747641,16.613453 C19.1314415,16.6838687 19.1572311,16.7743115 19.1462426,16.864124 C19.1485893,16.8902929 19.1485893,16.9166201 19.1462426,16.942789 C18.8062565,18.8897497 18.5381905,20.272944 18.4924231,20.4827175 C18.1720516,21.9183552 15.3737045,23 12.0065344,23 C8.63282621,23 5.83447907,21.9183552 5.5664131,20.4827175 C5.5664131,20.272944 5.27873256,18.909416 4.91259368,16.942789 C4.91024693,16.9166201 4.91024693,16.8902929 4.91259368,16.864124 C4.90133556,16.7688639 4.93143064,16.6733445 4.99522584,16.6018561 C5.05902103,16.5303677 5.1503695,16.4897984 5.24604159,16.4904648 C5.34225143,16.4960834 5.43403549,16.5328937 5.50756936,16.5953516 C5.50756936,16.5953516 7.8482429,18.4505364 12.0457636,18.4505364 C16.2432843,18.4505364 18.5839579,16.5953516 18.5839579,16.5953516 C18.6574917,16.5328937 18.7492758,16.4960834 18.8454856,16.4904648 Z M11.9473275,12.9166667 C11.1057767,12.9166667 10.423565,12.2326573 10.423565,11.3888889 C10.423565,10.5451205 11.1057767,9.86111111 11.9473275,9.86111111 C12.7888783,9.86111111 13.47109,10.5451205 13.47109,11.3888889 C13.47109,12.2326573 12.7888783,12.9166667 11.9473275,12.9166667 Z"/>
</svg>
