<svg width="24" height="24" viewBox="0 0 24 24" role="img">
  <path d="M17.2818096,9.39653608 L11.9606358,9.39653636 L9.30004883,4.78826489 L11.9606353,0.179992958 L17.2818091,0.179992676 L19.9423963,4.78826424 L17.2818096,9.39653608 Z M9.19995117,14.7890808 L11.9649279,10.0000002 L17.4948816,10 L20.2598589,14.7890803 L17.4948822,19.5781609 L11.9649283,19.5781612 L9.19995117,14.7890808 Z M8.69495501,5 L11.4599322,9.78908041 L8.69495548,14.5781609 L3.16500159,14.5781614 L0.400024414,9.78908097 L3.16500112,5.00000028 L8.69495501,5 Z"></path>
  <path d="M17.8584328,9.78764295 L18,9.86917151 L17.8572658,9.95137214 C17.7899905,13.2726211 15.076631,15.9442869 11.7392698,15.9442869 C10.6646161,15.9442869 9.65466421,15.6672658 8.77692828,15.1807379 L8.61999512,15.2711157 L8.61999512,15.0906873 C6.82387803,14.0244103 5.61999512,12.0653024 5.61999512,9.82501221 C5.61999512,7.58472206 6.82387803,5.62561412 8.61999512,4.55933714 L8.61999512,4.46722735 L8.69943919,4.51297918 C9.59501254,3.99937809 10.6328494,3.70573753 11.7392698,3.70573753 C15.106387,3.70573753 17.8383258,6.42525707 17.8584328,9.78764295 Z M17.1674698,9.3897174 C16.94915,6.58608271 14.6044937,4.38021227 11.7447145,4.38021227 C10.9027041,4.38021227 10.1053499,4.57143954 9.39377689,4.91284822 L17.1674698,9.3897174 Z M17.1579558,10.3541047 L9.49087229,14.7695776 C10.1775843,15.0826766 10.9407958,15.2571223 11.7447145,15.2571223 C14.5675785,15.2571223 16.8885326,13.1062428 17.1579558,10.3541047 Z M8.61999512,14.2704648 L8.61999512,5.36626916 C7.22018526,6.349941 6.30535919,7.97677805 6.30535919,9.81776703 C6.30535919,11.658756 7.22018526,13.2862694 8.61999512,14.2704648 Z M9.21002271,5.53090478 L9.21002271,14.2093264 L16.7264443,9.86926492 L9.21002271,5.53090478 Z" fill="#FFFFFF"></path>
</svg>
