<svg width="24" height="24" viewBox="0 0 24 24" role="img">
  <path d="M10.218 14.23c-3.243-1.06-5.215-4.342-4.63-7.703C6.176 3.165 9.142.744 12.553.843c4.326 0 6.935 3.296 6.9 6.935-.016 2.917-1.875 5.505-4.634 6.453 0 0-.034-2.058 1.34-3.43 1.186-1.408 1.45-3.375.678-5.046-.773-1.67-2.443-2.742-4.284-2.748-1.846-.004-3.53 1.05-4.335 2.71-.805 1.66-.588 3.636.56 5.083 1.132 1.406 1.44 3.43 1.44 3.43zm9.818 5.254H20c-.24 0-1.234.17-1.372.583-.24.652.275 1.03.584 1.27l-.55.412c-.137.137-.686.41-.686.41-.412-.136-1.098-.41-2.3-.24-1.2.173-1.716 1.168-1.716 1.305-.8.074-1.603.086-2.403.035-.07-.275-.378-.96-1.614-1.202-1.236-.24-2.128.07-2.54.24-.475-.232-.933-.496-1.373-.79.31-.24.824-.72.48-1.304-.31-.48-1.338-.55-1.51-.55 0-.514.206-.857.206-.857.48 0 1.167-.412 1.304-.48.618-.344.24-.824.07-.893l.48-.275.515-.24c.24.033.858.102 1.613-.138.618-.172.687-.412.687-.515l.96-.138.07.274c.072.402-.162.797-.55.927-.927.276-1.58.722-1.785 1.27-.412 1.1 1.305 2.198 3.948 2.198s4.394-1.098 3.982-2.197c-.206-.583-.927-1.03-1.854-1.27-.377-.136-.618-.514-.515-.926l.07-.275.687.102c0 .103.24.378.79.515.65.172 1.475.103 1.578.103l.515.24.515.24c-.103.07-.755.48.343.996.618.275.927.344 1.1.344 0 0 .308.48.308.824zM14.88 9.957c-.823.687-1.51 2.06-1.544 3.57-.023 1.535.023 3.07.138 4.6.892.138 1.51.447 1.51.79 0 .446-1.098.996-2.472.996-1.373 0-2.506-.55-2.506-1.03 0-.343.618-.618 1.51-.755.07-.996.207-2.918.173-4.6-.07-1.51-.757-2.884-1.58-3.57-.687-.55-1.1-1.374-1.1-2.232 0-1.648 1.374-3.09 3.434-3.09s3.536 1.442 3.536 3.09c0 .893-.412 1.682-1.1 2.23z"/>
</svg>
