<svg width="24" height="24" viewBox="0 0 48 48" role="img">
  <g fill-rule="evenodd"><path d="M23.43 45.8l1.2.12c.32.04.47-.04.55-.35.12-.47.2-.93.3-1.44.4-1.8.9-3.54 1.38-5.33.07-.35.04-.47-.3-.55l-5.23-1.28c-.3-.08-.47-.2-.4-.55.4-1.36.6-2.76 1.1-4.1.04-.14.12-.26.23-.38.47-.35.78-.74.74-1.36-.04-.47.2-.78.62-.97.82-.38 1.64-.85 2.42-1.32.62-.35 1.13-.85 1.48-1.52C29 24 30.22 21.12 32 18.5c.15-.22.27-.46.46-.65 1.17-1.2 2.22-2.5 3.5-3.55.4-.35.5-.8.5-1.28 0-.58-.34-.97-.7-1.4-.34-.4-.7-.74-1.27-.66-.13 0-.28-.04-.4-.08.08-.16.23-.24.35-.3 1.56-1.03 3.08-2 4.63-3l5.6-3.63c.24-.16.36-.28.1-.5-.56-.67-.56-.67-1.06-.32-5.22 3.27-10.48 6.5-15.7 9.77-.46.28-.46.28-.7-.23-.5-1.2-.8-2.45-1.2-3.7-.08-.27 0-.47.2-.62 1.32-1.05 2.52-2.22 3.73-3.4.5-.46.78-1 .86-1.67.12-.77-.42-1.16-1.12-.9l-1.02.48c-3.1 1.7-6.42 2.88-9.8 3.85-.2.05-.4.13-.55-.07-.34-.42-.85-.66-1.28-.93-.08-.08-.2-.08-.27-.08-.47.12-.93.23-1.2.66-.75 1.05-1.64 2-2.3 3.12-.78 1.28-1.52 2.57-2.42 3.78-.15.23-.23.27-.4 0-.96-1.72-1.94-3.4-2.9-5.1C7.3 7.52 7 7 6.6 6.5c-.42-.55-.93-.82-1.63-.74-.1 0-.27-.04-.3.15-.12.5-.32 1.02-.28 1.52.15 1.25.38 2.5.65 3.7.55 2.1 1.13 4.17 1.75 6.23.6 2.03 1.3 4 1.95 6.04.04.2.16.3-.08.46-.3.16-.82.28-.85.6-.04.3.23.7.35 1 .15.35.2.74.4.82.26.1.5-.24.73-.4.23-.1.3-.1.38.12.6 1.33 1.17 2.65 1.72 4.02.08.2.12.42.04.62-.4 1.05-.66 2.18-.86 3.27-.04.3-.16.3-.43.23-1.28-.3-2.53-.66-3.8-.97-.56-.17-.56-.17-.64.42l-.8 9.15c-.04.27 0 .4.3.43.9.1 1.76.23 2.65.4.16.02 15.46 2.2 15.58 2.2zm3.12-32.35c.03.1.03.23-.08.3-.4.24-.78.48-1.17.75-.04.04-.08.04-.2.08-.03-.04-.07-.16-.15-.24-.82-.93-1.64-1.87-2.45-2.84-.12-.12-.24-.23 0-.4.8-.46 1.44-1.2 2.3-1.58.23-.12.3-.12.38.1.55 1.26.94 2.58 1.37 3.83zM19.9 7.68c1.15-.42 2.28-.9 3.45-1.36 1.68-.66 3.2-1.6 4.75-2.4.16-.1.3-.2.47-.28.16-.08.27-.28.47-.16.23.12.15.35.15.62.03.28-.12.5-.4.74-1.6 1.44-3.23 2.84-4.94 4.17-.66.55-1.48.8-2.22 1.22-.16.07-.23 0-.3-.12L19.68 8c-.24-.24.03-.24.2-.32zm-9.94 15c-1.25-3.86-2.57-7.7-3.62-11.65-.24-.9-.35-1.87-.5-2.8-.05-.27.1-.43.3-.5.24-.12.24.15.35.27 1.7 2.37 2.87 5.06 4.28 7.6.42.77.9 1.5 1.32 2.25.08.15.15.27.4.2.22-.1.18-.24.14-.44-.2-.76-.58-1.5-.85-2.24-.13-.28-.13-.47 0-.74.6-1.3 1.5-2.42 2.17-3.66.62-1.13 1.44-2.15 2.06-3.28.3-.58 1.05-.66 1.52-.23.3.3.58.66.82 1.05.78 1.3 1.87 2.3 2.96 3.35.74.74 1.52 1.48 2.3 2.14.27.23.3.58.46.85.03.12 0 .2-.1.23-.1.16-.14.16-.18.2-.66.54-1.25.47-2.03.08-1.52-.74-2.8-1.76-3.94-2.96-.04-.04-.08-.08-.1-.12-.56-.4-.56-.4-.8.23-.23.64-.38 1.26-.66 1.84-.1.2.04.43.2.6.2.18.3.45.62.38.16-.04.24-.12.24-.24.07-.35.2-.74.27-1.16 1.2 1 2.53 1.8 3.8 2.64-.45.28-.84.5-1.27.74l-9.77 5.5c-.25.2-.33.23-.44-.12zm1.13 2.53c-.13-.23-.1-.34.14-.5 3.94-2.4 7.87-4.87 11.8-7.32.2-.12.4-.04.58-.12.7-.15 1.37-.35 1.95-.74.04-.04.12-.04.16-.1.43-1 1.4-1.3 2.22-1.7 1.87-.84 3.77-1.62 5.4-2.87.4-.3.8-.2 1.1.04.27.18.47.57.35 1-.12.5-.3.94-.74 1.33-1.6 1.48-2.84 3.15-4 4.98-1.06 1.65-2.07 3.28-2.85 5.07-.15.35-.38.66-.65.94-1.1 1.25-2.42 2.23-3.9 2.93-.3.15-.47.4-.5.74-.04.27-.12.54-.12.8-.04.72-.27 1.3-.86 1.77-.2.15-.2.4-.27.58l-1.25 4.17v.07c0 .07 0 .15-.07.2-.2.03-.36 0-.5-.13-2.04-.46-4.06-.97-6.1-1.52-.22-.03-.5-.1-.73-.15-.38-.04-.42-.23-.23-.55.27-1.28.6-2.57 1.36-3.62.16-.23.16-.43 0-.7-.93-1.52-1.55-3.07-2.3-4.6zM6.83 41.9c-.08 0-.1-.03-.15-.03-.2-.04-.3-.15-.25-.46l.7-6.5c0-.04 0-.1.04-.15 0-.04.03-.04.03-.08.04-.08.12-.08.2-.08.04 0 .1 0 .15.03l8.84 2.34 8.84 2.33c.27.08.4.16.27.47l-1.28 4.17c-.04.15-.08.35-.27.35h-.08c-1.56-.25-3.16-.44-4.7-.68-1.03-.15-2.08-.27-3.1-.42l-9.26-1.3z"/><path d="M9.02 40.43c.5.43 1.2.43 1.72 0 .66-.58.8-1.44.42-2.45-.23-.62-.58-.86-1.24-.86-.3.04-.7 0-.97.27-.82.8-.78 2.3.07 3.03z"/></g>
</svg>
