<svg width="48" height="48" viewBox="0 0 48 48" role="image">
    <path d="M24 7.4c-.7 0-.8-.2-1.7 0l.8-.4c-.9 0-2 .5-1.7 0-1.4.7-3.8 1.6-5.2 2.8v-.3c-.7.8-2.8 2.3-3 3.3H13l-.8 1.7c-.4.8-.6.3-.6.4-.8 1.7-1.2 3.1-1.6 4.3.3.4 0 2.3.1 3.8-.4 7.6 5.4 15 11.8 16.7 1 .3 2.3.3 3.5.3-1.4-.4-1.6-.2-3-.7-1-.4-1.1-1-1.8-1.5l.3.4c-1.4-.4-.8-.5-2-.9l.3-.4c-.4 0-1.1-.7-1.3-1h-.5c-.6-.8-.9-1.3-.9-1.7l-.1.3c-.2-.3-2.2-2.6-1.1-2-.2-.3-.5-.4-.8-.9l.2-.2c-.4-.6-.9-1.4-.8-1.7.2.4.4.5.6.5-1.2-3-1.3-.2-2.2-3h.2l-.4-.8v-.8c-.8-1-.2-4.3 0-6.1 0-.7.7-1.5 1.2-2.7H13c.6-1 3.3-4 4.6-4 .6-.7-.2 0-.3-.1 1.4-1.4 1.8-1 2.7-1.2 1-.6-.8.2-.4-.2 1.7-.5 1.2-1 3.4-1.2.2.1-.5.2-.7.4 1.4-.7 4.4-.6 6.4.3 2.3 1 4.9 4.2 5 7.1h.1c0 1.2.2 2.6-.2 3.8l.3-.6c0 1-.3 1.3-.6 2.1l-.5.2c-.4.8 0 .5-.2 1.1-.6.6-1.9 1.7-2.3 1.8-.3 0 .2-.3.3-.4-.8.5-.7.8-2 1.1-3.1 1.4-7.5-1.5-7.4-5.4 0 .3-.1.2-.2.3-.1-2 1-4 2.8-4.8 1.9-1 4-.6 5.3.6-.7-.9-2.1-1.9-3.8-1.8-1.7 0-3.2 1-3.8 2.2-.8.5-.9 2-1.3 2.3-.5 3.6 1 5.2 3.4 7 .4.2.1.3.2.5-.9-.4-1.6-1-2.2-1.6l1.1 1.2c-.6-.2-1.4-1.2-1.8-1.7l-.2-.2a2 2 0 0 1-.3-.2l-.3-.4-.1.2.8.7c1.4 2.2 5.2 3.8 7.3 3a9 9 0 0 1-3.3-.4l-1-.8c2.9 1 5.8.8 8.3-1.2.6-.5 1.3-1.3 1.5-1.3-.3.4 0 .2-.2.6.7-1-.2-.4.7-1.7l.3.4c0-.8 1-1.8 1-3.1.2-.4.3.4 0 1.3.4-1 0-1.1.2-2l.3.9c-.2-1 .3-1.7.4-2.2-.1 0-.4.4-.5-.8 0-.5.2-.2.2-.3l-.5-1.2c.1-.2.3.4.5.4l-.3-1.5c-.5-1-.2.2-.5-.4-.5-1.5.4-.3.4-1 .8 1 1.2 2.7 1.4 3.4-.1-.8-.4-1.6-.7-2.4.2 0-.4-1.7.3-.5-.7-2.6-3-5-5.2-6.1.3.2.6.5.5.6-1-.7-.9-.7-1-1-.9-.3-1 0-1.5 0-1.6-.8-2-.7-3.5-1.3l.1.3c-1-.3-1.3.2-2.4 0l.5-.2v.1h.1c0-.2.2-.3.3-.3.2.1.3.2.2.3.3-.1.4-.3.1-.4L25 7l-.3.1L24 7l.5.2-.5.2zM24 2a22 22 0 1 1 0 44 22 22 0 0 1 0-44zm1.1 23c-.3 0 .1.4.6.5 0-.2.2-.3.3-.5h-.9zm4.2-2c.4-.3.6-.6.7-1 0 .3-.3.5-.5.7-1 .4 0-.3 0-.5-1 1-.1.5-.2.8zm2.2-2.2c-.2.5-.3-.3-.5-.3.1-.5.6-1 .5.3zM37 22v.2a14.5 14.5 0 0 1 0-.2zm-25.8-9c0 .4.6-.4.2.7-.8.6-.1.2-.2-.7zM10 18c.1-.4-.3-.5.5-1l-.5 1z"/>
</svg>
