<?xml version="1.0" encoding="utf-8"?>
<!-- Generator: Adobe Illustrator 19.0.0, SVG Export Plug-In . SVG Version: 6.00 Build 0)  -->
<svg version="1.1"
	 id="Layer_1"
	 xmlns="http://www.w3.org/2000/svg" xmlns:xlink="http://www.w3.org/1999/xlink"
	 x="0px"
	 y="0px"
	 viewBox="0 0 96 96"
	 style="enable-background:new 0 0 96 96;"
	 xml:space="preserve" width="18" height="18">
	<style type="text/css">
		.st0{fill:#333399;}
	</style>
	<g id="XMLID_2_">
		<path id="XMLID_6_" class="st0" d="M66.3,49.1V32c0-0.6-0.2-1.2-0.7-1.6c-0.5-0.5-1-0.7-1.6-0.7H46.9c-1,0-1.7,0.5-2.1,1.4
			c-0.4,1-0.2,1.8,0.5,2.5l5.2,5.2L31.3,57.8c-0.5,0.5-0.7,1-0.7,1.6c0,0.6,0.2,1.2,0.7,1.6l3.7,3.7c0.5,0.5,1,0.7,1.6,0.7
			s1.2-0.2,1.6-0.7l19.1-19.1l5.2,5.2c0.4,0.5,1,0.7,1.6,0.7c0.3,0,0.6-0.1,0.9-0.2C65.9,50.9,66.3,50.1,66.3,49.1z M75.5,30.8v34.4
			c0,2.8-1,5.3-3,7.3c-2,2-4.4,3-7.3,3H30.8c-2.8,0-5.3-1-7.3-3c-2-2-3-4.4-3-7.3V30.8c0-2.8,1-5.3,3-7.3s4.4-3,7.3-3h34.4
			c2.8,0,5.3,1,7.3,3C74.5,25.5,75.5,28,75.5,30.8z"/>
	</g>
</svg>
