<svg width="24" height="24" viewBox="0 0 24 24" role="img">
  <path d="M20.7182675,2.2 L3.28173284,2.2 C2.68417275,2.2 2.2,2.68417275 2.2,3.28173284 L2.2,20.7182675 C2.2,21.3156808 2.68417275,21.8000004 3.28173284,21.8000004 L12.6689414,21.8000004 L12.6689414,14.2098783 L10.1147154,14.2098783 L10.1147154,11.25182 L12.6689414,11.25182 L12.6689414,9.07036215 C12.6689414,6.5387548 14.2151658,5.16026143 16.4735126,5.16026143 C17.5552455,5.16026143 18.4850363,5.24082226 18.7559469,5.27680658 L18.7559469,7.92246221 L17.1896741,7.92319659 C15.9614336,7.92319659 15.7236434,8.50680357 15.7236434,9.36323049 L15.7236434,11.25182 L18.6528408,11.25182 L18.2714069,14.2098783 L15.7236434,14.2098783 L15.7236434,21.8000004 L20.7182675,21.8000004 C21.3156808,21.8000004 21.8000004,21.3156808 21.8000004,20.7182675 L21.8000004,3.28173284 C21.8000004,2.68417275 21.3156808,2.2 20.7182675,2.2"/>
</svg>
