<svg width="24" height="24" viewBox="0 0 24 24" role="img">
  <path d="M11.8516925,19.934194 C11.4590099,21.1336327 10.3306804,22 9,22 C7.34314575,22 6,20.6568542 6,19 C6,17.6937812 6.83480763,16.5825421 8,16.1707057 L8,7.82929429 C6.83480763,7.41745788 6,6.30621883 6,5 C6,3.34314575 7.34314575,2 9,2 C10.6568542,2 12,3.34314575 12,5 C12,6.30621883 11.1651924,7.41745788 10,7.82929429 L10,16.1707057 C10.8199072,16.4605013 11.4762253,17.096604 11.7932043,17.9032635 C12.2273781,17.8168947 12.6564969,17.6787175 13.0527864,17.4805728 C14.2877077,16.8631121 15,15.7946737 15,14 L15,13.8292943 C13.8348076,13.4174579 13,12.3062188 13,11 C13,9.34314575 14.3431458,8 16,8 C17.6568542,8 19,9.34314575 19,11 C19,12.3062188 18.1651924,13.4174579 17,13.8292943 L17,14 C17,16.5803263 15.8372923,18.3243879 13.9472136,19.2694272 C13.2097831,19.6381425 12.4821197,19.8406361 11.8516925,19.934194 Z M9,6 C9.55228475,6 10,5.55228475 10,5 C10,4.44771525 9.55228475,4 9,4 C8.44771525,4 8,4.44771525 8,5 C8,5.55228475 8.44771525,6 9,6 Z M9,20 C9.55228475,20 10,19.5522847 10,19 C10,18.4477153 9.55228475,18 9,18 C8.44771525,18 8,18.4477153 8,19 C8,19.5522847 8.44771525,20 9,20 Z M16,12 C16.5522847,12 17,11.5522847 17,11 C17,10.4477153 16.5522847,10 16,10 C15.4477153,10 15,10.4477153 15,11 C15,11.5522847 15.4477153,12 16,12 Z"/>
</svg>
