<svg width="24" height="24" viewBox="0 0 24 24" role="img">
  <path d="M18,16.1707057 C19.1651924,16.5825421 20,17.6937812 20,19 C20,20.6568542 18.6568542,22 17,22 C15.3431458,22 14,20.6568542 14,19 C14,17.6937812 14.8348076,16.5825421 16,16.1707057 L16,7 C15.99,6.73 15.9,6.51 15.69,6.31 C15.48,6.11 15.27,6.02 15,6 L14,6 L14,8 L11,5 L14,2 L14,4 L15,4 C15.78,4.03 16.46,4.35 17.06,4.94 C17.66,5.53 17.97,6.22 18,7 L18,16.1707057 Z M7,7.82929429 C5.83480763,7.41745788 5,6.30621883 5,5 C5,3.34314575 6.34314575,2 8,2 C9.65685425,2 11,3.34314575 11,5 C11,6.30621883 10.1651924,7.41745788 9,7.82929429 L9,16.1707057 C10.1651924,16.5825421 11,17.6937812 11,19 C11,20.6568542 9.65685425,22 8,22 C6.34314575,22 5,20.6568542 5,19 C5,17.6937812 5.83480763,16.5825421 7,16.1707057 L7,7.82929429 Z M17,20.2 C17.65,20.2 18.2,19.65 18.2,19 C18.2,18.35 17.65,17.8 17,17.8 C16.35,17.8 15.8,18.35 15.8,19 C15.8,19.65 16.34,20.2 17,20.2 Z M9.2,19 C9.2,18.35 8.65,17.8 8,17.8 C7.35,17.8 6.8,18.35 6.8,19 C6.8,19.65 7.35,20.2 8,20.2 C8.65,20.2 9.2,19.66 9.2,19 Z M8,6.2 C8.65,6.2 9.2,5.65 9.2,5 C9.2,4.35 8.65,3.8 8,3.8 C7.35,3.8 6.8,4.35 6.8,5 C6.8,5.65 7.34,6.2 8,6.2 Z"/>
</svg>
