<svg width="24" height="24" viewBox="0 0 24 24" role="img">
  <path d="M11.9990285,2 C6.20151274,2 1.5,6.59001244 1.5,12.2535278 C1.5,16.7835401 4.50850815,20.6260505 8.68001946,21.9820542 C9.20602089,22.0760544 9.39752141,21.7595536 9.39752141,21.4870528 C9.39752141,21.2450522 9.38852138,20.5995504 9.38352137,19.7440481 C6.46251345,20.3640498 5.84651228,18.3690444 5.84651228,18.3690444 C5.36901099,17.1850412 4.68050912,16.8690403 4.68050912,16.8690403 C3.72750654,16.2340386 4.75300932,16.2465386 4.75300932,16.2465386 C5.80701217,16.3190388 6.36151318,17.3035415 6.36151318,17.3035415 C7.29801571,18.8700457 8.81901984,18.4175445 9.41752146,18.1550438 C9.51252172,17.492542 9.78402245,17.0410408 10.0840233,16.7850401 C7.75201695,16.5250394 5.3000103,15.645037 5.3000103,11.7165263 C5.3000103,10.5975233 5.71001141,9.68152082 6.38151323,8.96551888 C6.27301294,8.70551817 5.91301196,7.66301535 6.48451351,6.25201152 C6.48451351,6.25201152 7.3645159,5.97601078 9.37102133,7.30301437 C10.2085236,7.07501376 11.107026,6.96201345 12.0000285,6.95801344 C12.8925309,6.96201345 13.7900333,7.07501376 14.6290356,7.30301437 C16.634041,5.97601078 17.5140434,6.25201152 17.5140434,6.25201152 C18.086545,7.66301535 17.726044,8.70601818 17.6190437,8.96551888 C18.2915455,9.68152082 18.6975466,10.5975233 18.6975466,11.7165263 C18.6975466,15.655537 16.24254,16.5225394 13.9040336,16.77654 C14.2800346,17.0925409 14.6160355,17.7180426 14.6160355,18.6750452 C14.6160355,20.0450489 14.6030355,21.1515519 14.6030355,21.4875528 C14.6030355,21.7625536 14.793036,22.0815544 15.3250375,21.9810542 C19.4950488,20.6225505 22.5000569,16.7820401 22.5000569,12.2535278 C22.5000569,6.59001244 17.7985442,2 11.9990285,2"/>
</svg>
