<svg width="24" height="24" viewBox="0 0 24 24" role="img">
  <path d="M15.992 10.044l-2.412 7.42 2.412-7.42H7.944l2.412 7.42 1.612 4.963-4.024-12.383L5.52 2.587c-.124-.384-.667-.384-.792 0l-2.424 7.457-1.222 3.763c-.112.344.01.72.302.932l10.584 7.683 10.584-7.688c.292-.213.414-.59.303-.933l-1.223-3.763h-5.64l2.424-7.457c.124-.384.667-.384.792 0l2.424 7.457h-5.64z"/>
  <path fill="#FFF" fill-opacity=".206" d="M11.97 22.425L7.944 10.043h-5.64m13.69 0h5.64L11.97 22.425"/>
  <path fill="#FFF" fill-opacity=".332" d="M2.305 10.043l-1.223 3.763c-.11.343.01.72.303.93l10.584 7.69L2.3 10.043zm19.327 0l1.223 3.763c.112.343-.01.72-.302.93l-10.584 7.69 9.66-12.383z"/>
</svg>
