<svg width="24" height="24" viewBox="0 0 48 48" role="img">
<g fill="none" fill-rule="evenodd"><path d="M18.66 20.88L35.2 17.2l7.86-.22 3.7 16.86-7.64 1.6-16.8 3.73-3.66-18.3z" fill="#FFF"/><path d="M18.58 38.93c-.28.17-.6.25-.9.36-.4.13-.8.34-1.2.42l-1.84.4-2.36.07-3.38-.95-.8.66-.98.45-1.05.2-.3-.43.5-1.3.84-.82-1.02-1.32-.7-2.18-.05-1.4c-.03-.76-.5-.13-.82-.53-.2-.28.15-.86.23-1.14.1-.35.38-.7.46-1.06.03-.2-.1-.34-.1-.52 0-.13.07-.18.1-.3.04-.28-.07-.58-.1-.87-.03-.4-.08-.8-.16-1.2-.05-.3-.02-.7-.24-.93-.18-.2-.5-.2-.64-.43-.1-.2.02-.4 0-.62-.05-.54-.35-.98-.6-1.45l-.7-1.32-.85-1.6-.8-2.06.15-2.33.86-2.35.38-.7-.63-.23-.5-.85-.05-1.13.27-.48.66-.35.54.13.97.92 2.53-1.1 3.96-.87.1-.8.3-.52.6-.1.35.26.42.98 2.47.07 3.3.56 1.6 1.25.87-.4 1.6-.43 1.16.04.44.37L21 13l1.3 2.53s1 .23 1.14.56c.13.27-.3 1.28-.3 1.28l.8.64-.07 1.26-.1.35-5.12 1.22c-.05 0 .7 4.28.76 4.68.1.53.13 1.08.23 1.6.05.3.06.6.05.9v1.17c0 .33-.07 1 .18 1.25.16.14.23 0 .4.06.24.13.3.9.36 1.15l.3 1.3c.13.57.3 1.15.4 1.72l.63 4.2.35.4.33-.03.05.62-.83.33c-.8-.36-1.58-.73-2.25-1.32-.05-.06-.1-.1-.2-.13-.13-.06-.3-.06-.45 0-.13.04-.26.1-.37.18z" fill="#858585"/><path d="M17.2 13.6l-2.87.35-3.2.47-1.45.1-.28 1.25.54 1.9L11.02 19l1.26.73 1.02.22 1.03-.02 1.27-.33 1-.73.62-.8.5-1.05.2-1.25-.13-1.02-.6-1.15z" fill="#FFF"/><path d="M20.65 15.48c.06.05.12.1.2.1l.3.13c.13.07.27.1.4.1.26 0 .47-.18.65-.36.1-.08.2-.2.22-.33 0-.14-.05-.3-.17-.4-.25-.24-.82-.47-1.18-.33-.3.1-.68.85-.42 1.1z" fill="#1D1D1B"/><path d="M19.9 16.73c.07.4.46.76.87.7.3-.04.53-.28.8-.4.5-.2 1.03-.02 1.55-.03.07 0 .14 0 .2-.04.16-.08.23-.26.2-.43-.05-.17-.13-.32-.24-.45l-.46-.53c-.13-.14-.3-.27-.48-.2-.07.05-.13.1-.18.18-.18.2-.45.3-.72.25-.35-.06-.74-.42-1.1-.2-.37.2-.53.77-.45 1.15z"/><path d="M21.7 27.32c-.12 0-.5-.06-.55-.02-.15.07-.1.54-.1.72-.08.54-.1 1.07-.08 1.6.36.03.75-.13 1.06-.28.26-.12.72-.24.86-.5.12-.24-.02-.57-.14-.78-.28-.48-.72-.4-1.07-.74z" fill="#B2B2B2"/><path d="M20.8 26.94c-.16 0-.34.02-.5-.04-.1-.05-.2-.2-.3-.23-.27-.06-.37.46-.4.67-.07.5 0 1-.02 1.5-.02.36-.1.77-.05 1.13.02.28.53.8.72.4.2 0 .23.14.42-.06.24-.23.25-.84.27-1.17.04-.73 0-1.47-.13-2.2z" fill="#FFF"/><path d="M19.04 24.37c-.46-.04-.93.15-1.36.26-.44.1-.86.22-1.3.2-.5 0-1.02.03-1.53.1-1 .1-2 .3-2.98.44-.82.12-1.65.04-2.48.08-.76.04-1.5.03-2.24-.03-.35-.03-.67-.12-1-.17-.35-.05-.75.06-1.1 0-.26-.05-1.07-.46-1.25-.1-.1.24.18.93.36 1.1.2.18.38.22.52.48.13.27.14.56.2.83.12.4.2.8.22 1.23.02.3-.05.6-.03.92.04.56-.17 1.05-.22 1.6-.03.3-.2.52-.25.8-.05.23-.16.43.08.55.18.1.45.04.65.07.42.06.84.14 1.27.22 1.1.22 2.36.25 3.5.2.86-.05 1.72-.03 2.58.05.74.1 1.48.17 2.22.2.74.04 1.4.08 2.13 0 .45-.06.9-.1 1.36-.14.37-.02.72-.05 1.07-.2.3-.14 1.06-.35 1.14-.65.1-.33-.16-.8-.2-1.13-.03-.26-.04-.44-.14-.67-.56 0-.64-.6-.66-1.06-.02-.34.17-.7.2-1.04.03-.3.04-.6.03-.88 0-.5-.15-1.02-.26-1.5-.06-.22-.46-1.46-.5-1.46M21.2 17.54c-.04-.03 0-.05-.04-.07-.05.8.66 1.2 1.32.88.56-.26.74-1.13.08-1.32-.52-.17-1.1.05-1.37.5z" fill="#FFF"/><g fill="#1D1D1B"><path d="M23.64 33c-.05 0-.1-.03-.1-.1-.02-.05.02-.1.08-.1l3.42-.9c.04 0 .08 0 .1.03.03.03.04.06.03.1 0 .03-.04.06-.08.07l-3.43.9h-.03z"/><path d="M24.4 36.2c-.05 0-.1-.02-.1-.06-.43-1.1-.6-2.15-.76-3.23 0-.03 0-.06.04-.08.03-.03.07-.03.1-.02.04.02.06.05.07.08.15 1.07.32 2.12.74 3.18 0 .03 0 .07-.02.1s-.06.04-.1.04z"/><path d="M24.4 36.2c-.07 0-.12-.03-.13-.1 0-.05.04-.1.1-.1 1.16-.3 2.5-.6 3.56-.8.04-.02.07 0 .1.02.02.03.03.07.02.1 0 .04-.04.07-.08.07-1.07.2-2.4.52-3.56.8z"/><path d="M27.95 35.4c-.04 0-.08-.03-.1-.07-.27-.64-.43-1.38-.6-2.1-.08-.43-.17-.83-.28-1.2-.02-.05.02-.1.07-.13.05 0 .1.02.13.07l.3 1.22c.15.7.3 1.43.57 2.04.02.04 0 .07 0 .1-.02.03-.06.05-.1.05zM27.65 32.1c-.05.02-.1-.03-.1-.08-.02-.06.02-.1.08-.12l3.42-.9c.06 0 .1.03.13.08 0 .06-.02.1-.08.13l-3.42.9h-.03z"/><path d="M28.4 35.3c-.05 0-.08 0-.1-.05-.43-1.1-.6-2.15-.75-3.23 0-.06.03-.1.1-.12.05 0 .1.04.1.1.16 1.06.33 2.1.74 3.17 0 .03 0 .07-.02.1-.02.02-.05.04-.08.04z"/><path d="M28.4 35.3c-.04.02-.08 0-.1-.03-.02-.03-.03-.07 0-.1 0-.04.03-.06.07-.06 1.16-.28 2.5-.6 3.57-.8.03 0 .07 0 .1.03.02.03.03.07.02.1-.02.04-.05.06-.08.07-1.07.2-2.4.52-3.56.8h-.02z"/><path d="M31.96 34.5c-.04 0-.08-.02-.1-.06-.27-.64-.43-1.38-.6-2.1-.08-.43-.17-.83-.28-1.2-.02-.05 0-.1.07-.13.05 0 .1.03.13.08l.3 1.22c.15.7.3 1.44.57 2.05v.1c-.03.03-.06.05-.1.05zM31.66 31.2c-.04 0-.07-.02-.1-.05-.02-.03-.02-.07 0-.1 0-.04.04-.06.07-.06l3.43-.9c.03-.02.07 0 .1.02.02.03.03.06.02.1 0 .04-.03.06-.07.07l-3.4.88h-.04z"/><path d="M32.4 34.4c-.04 0-.08-.03-.1-.07-.42-1.1-.6-2.15-.74-3.23 0-.05.03-.1.1-.1.04-.02.1.02.1.07.15 1.07.32 2.12.74 3.18v.1c-.03.03-.06.04-.1.04z"/><path d="M32.4 34.4c-.05 0-.1-.04-.1-.1-.02-.05.02-.1.08-.1 1.16-.3 2.5-.62 3.56-.82.06 0 .12.02.13.08 0 .06-.03.1-.1.12-1.05.2-2.38.53-3.54.8h-.03z"/><path d="M35.96 33.6c-.04 0-.07-.04-.1-.08-.26-.64-.43-1.38-.58-2.1l-.3-1.2c0-.05.02-.1.07-.12.06-.02.12 0 .13.07l.3 1.2c.15.72.3 1.45.58 2.07v.1c-.03.02-.06.04-.1.04zM25.64 35.2c-.05 0-.1-.03-.1-.08-.13-.5-.23-1-.3-1.5 0-.03 0-.07.03-.1.03 0 .07-.02.1 0 .04 0 .06.04.07.07.07.5.17 1 .3 1.47 0 .03 0 .07-.02.1-.02.02-.05.03-.08.03z"/><path d="M25 33.68v.02c0 .02.04 0 .06 0 .18-.1.4-.17.6-.2-.08-.06-.16-.14-.23-.23-.04-.05-.15-.24-.22-.23-.07 0-.07.22-.1.28 0 .12-.05.24-.1.36zM26.3 35.06c-.05 0-.1-.03-.1-.08-.13-.5-.24-1-.3-1.5-.02-.03 0-.07.02-.1.03-.02.07-.02.1 0 .04 0 .07.04.07.07.07.5.17 1 .3 1.48 0 .03 0 .07-.03.1-.02.02-.05.03-.08.03z"/><path d="M25.66 33.54v.02c0 .02.04 0 .05 0 .2-.1.4-.17.62-.2-.1-.06-.16-.14-.23-.23-.05-.04-.17-.23-.23-.23-.1 0-.1.23-.1.3l-.1.34zM25.35 35.56c-.03 0-.07 0-.1-.04v-.1c.02-.04.05-.06.1-.06.43-.07.86-.16 1.3-.27.04-.02.1 0 .1.07.02.05 0 .1-.06.12-.45.1-.9.2-1.33.26h-.02zM30.18 34.52h-.03c-.1-.02-.2-.1-.24-.2l-.06-.22-.23-.8c0-.03 0-.07.03-.1s.07-.04.1-.03c.04 0 .07.04.08.08l.24.8c0 .06.03.12.06.18.02.05.05.1.08.1.02 0 .05-.03.06-.06l.04-.15c0-.06.06-.1.1-.1.07.02.1.07.1.12 0 .1-.03.16-.06.24-.05.08-.14.14-.24.14z"/><path d="M29.02 33.5c-.06 0-.12 0-.16-.06-.1-.1 0-.28.03-.33.1-.22.3-.4.53-.48.17-.06.35-.08.54-.06.17 0 .33.08.46.2.08.05.22.15.23.32 0 .05-.03.1-.07.1-.34.08-.66.15-1 .2-.05.03-.1.04-.17.05-.1 0-.2.03-.3.05-.03.02-.07.02-.1.03zm.83-.74c-.12 0-.24 0-.35.05-.2.08-.35.22-.43.4 0 .03-.03.07-.04.1h.05c.1-.04.2-.06.32-.07.06 0 .12-.02.17-.03.3-.06.57-.12.85-.2l-.1-.08c-.1-.1-.23-.15-.37-.16h-.1z"/><path d="M29.62 32.7c-.05 0-.1-.02-.1-.06l-.07-.2c0-.04 0-.08.02-.1.02-.04.06-.05.1-.05.04 0 .07.03.08.07l.07.2c0 .04 0 .07-.02.1-.02.02-.05.04-.08.04zM33.52 32.65c-.1 0-.2-.02-.3-.06l-.17-.13c-.04-.06-.07-.13-.08-.2l-.2-.94c0-.03 0-.07.04-.1.03-.02.07-.03.1-.02.05.02.07.05.08.1l.2.92c0 .05 0 .1.04.13.02.02.05.04.1.05.07.04.17.06.26.05.08-.02.16-.06.2-.13.1-.12.04-.3 0-.48l-.2-.66c0-.04 0-.08.02-.1.03-.03.07-.04.1-.03.04 0 .07.03.08.07l.2.66c.05.2.1.45-.02.65-.08.12-.2.2-.35.2-.02.02-.05.02-.08.02z"/><path d="M32.88 31.38c-.05 0-.1-.03-.1-.08s0-.1.06-.12l.24-.05.58-.1c.04 0 .08.02.1.04.02.03.03.07.02.1-.02.04-.05.07-.1.07l-.57.1c-.06 0-.12.02-.18.04h-.04zM33.77 33.64c-.04 0-.1-.02-.1-.07-.1-.3-.16-.63-.2-.95-.02-.06.02-.1.07-.12.06 0 .1.02.12.08l.2.93c.02.05 0 .08 0 .1-.03.03-.06.05-.1.04z"/><path d="M33.43 33.82c-.05 0-.1-.03-.1-.08-.02-.05 0-.1.06-.12.08-.03.18-.06.28-.07h.1l.3-.1h.1c.03.03.04.07.04.1 0 .05-.03.08-.07.1l-.33.1h-.1l-.25.07h-.04zM43 34.83c-.07 0-.26-.04-.33-.37l-3.5-15.37c-.03-.1.02-.17.1-.2.08 0 .16.04.2.12l3.5 15.34h.1c.1.05.18.17.16.28 0 .1-.1.2-.2.2H43zM27.8 26.64c-1.08 0-2.15-.15-3.2-.3-.04 0-.07-.03-.1-.06 0-.04 0-.08.03-.1.02-.04.06-.05.1-.05 1.25.18 2.56.36 3.85.28 1.43-.08 2.66-.5 3.55-1.23.03-.03.07-.04.1-.02.04 0 .07.04.07.08s0 .07-.04.1c-.92.74-2.2 1.2-3.67 1.3h-.7zM29.7 28.42c-.97-.05-1.95-.07-2.92-.05-.05 0-.1-.04-.1-.1 0-.06.05-.1.1-.1.98-.03 1.97 0 2.94.05.04 0 .07.02.1.05 0 .04 0 .08-.02.1 0 .04-.05.06-.1.06zM6.76 30.57c-.43 0-1.18-.06-1.58-.47-.04-.03-.06-.1-.04-.15 0-.05.05-.1.1-.1.06-.02.12 0 .16.04.32.3 1.02.4 1.58.35.08 0 .16.06.16.15 0 .08-.06.16-.14.16h-.24zM4.42 28.92H.72c-.1 0-.16-.07-.16-.16 0-.08.07-.15.16-.15h3.7c.08 0 .15.08.15.16 0 .1-.07.16-.15.16zM4.37 30.6h-1.9c-.1 0-.16-.06-.16-.14 0-.1.08-.16.16-.16h1.9c.1 0 .16.07.16.16 0 .08-.07.15-.15.15zM2.88 33.6c-.62 0-1.25-.02-1.85-.03l-1.85-.03c-.1 0-.16-.07-.16-.15 0-.1.07-.17.16-.17l1.85.03 1.85.02c.08 0 .15.07.15.16 0 .08-.07.15-.15.15zM3.4 35.5h-.68c-.08 0-.15-.07-.15-.15 0-.1.07-.16.15-.16h.35c.35 0 .7 0 1.06-.06.05 0 .1 0 .15.05.03.03.04.1.03.14 0 .05-.05.1-.1.1-.26.05-.52.07-.8.06zM4.42 40.3c-.13 0-.3-.04-.35-.17-.03-.07 0-.15.06-.2.06-.03.15-.02.2.04h.22c.08 0 .16.04.18.13 0 .1-.05.16-.14.18H4.4z"/></g><g transform="translate(.85 8)" fill="#1D1D1B"><path d="M8.83 6.78c-.14 0-.26-.12-.26-.26s.1-.26.26-.26c1.5-.04 2.7-.24 3.98-.46 1.17-.22 2.35-.37 3.53-.46.14 0 .26.1.27.24 0 .15-.1.27-.24.28-1.16.08-2.32.23-3.46.45-1.24.2-2.52.43-4.06.48zM20.06 5.08c-.12 0-.22-.1-.25-.2 0-.12.05-.24.16-.3.54-.25.96-.57 1.4-.9.4-.32.8-.6 1.23-.85.12-.07.27-.02.34.1.07.13.02.28-.1.35-.4.24-.8.5-1.17.8-.45.34-.9.7-1.5.97-.03.02-.07.03-.1.03zM20.73 8.13h-.15c-.34-.05-.65-.23-.87-.5-.15-.22-.22-.5-.17-.75.12-.7 1-.8 1.5-.74.17 0 .34.06.5.16.2.17.34.45.3.74 0 .43-.25.82-.64 1-.16.06-.3.1-.47.1zm.08-1.5c-.33 0-.72.1-.77.34-.02.12.02.25.1.34.12.18.3.3.5.32.13 0 .25 0 .36-.04.2-.1.33-.32.33-.55.02-.12-.03-.23-.1-.3-.08-.05-.17-.08-.25-.08h-.17z"/><path d="M19.93 9.76c-.3 0-.58-.1-.8-.3-.32-.33-.45-.8-.34-1.26.1-.42.4-.78.8-1 .1-.05.26 0 .33.12s.02.27-.1.34c-.26.14-.46.38-.54.67-.08.27 0 .55.2.75.18.18.46.22.7.1.06-.03.1-.07.17-.12l.2-.16c.38-.23.83-.2 1.18-.16.2.03.4.05.5-.03.1-.07.1-.32 0-.5-.1-.22-.53-.57-.8-.7-.13-.06-.18-.2-.12-.34.05-.12.2-.18.33-.12.32.15.87.57 1.06.92.18.36.2.86-.14 1.14-.28.22-.63.18-.9.15-.26-.04-.6-.06-.84.08l-.15.12-.25.17c-.16.1-.34.14-.52.14z"/><path d="M21.22 10.84c-.14 0-.28-.03-.4-.1-.13-.07-.24-.17-.33-.28-.1-.07-.15-.16-.2-.25-.12-.2-.24-.57-.2-.84 0-.1.06-.17.15-.2.08-.04.18-.03.25.03.08.04.12.13.1.22 0 .2.06.38.16.55l.1.14.2.2c.15.05.3.03.42-.05.14-.12.24-.28.26-.46.02-.25 0-.5-.06-.73-.02-.1 0-.2.08-.25.07-.07.17-.1.26-.06.1.04.15.12.16.2.08.3.1.62.07.93-.05.3-.22.58-.47.77-.16.1-.36.18-.56.17zM22.47 8.3c-.14 0-.27-.1-.28-.24-.02-.14.1-.26.23-.28.57-.08 1.07-.57 1.27-1.25.2-.7.03-1.48-.16-2-.08-.23-.2-.46-.33-.67-.4-.6-1.2-.98-2.03-1h-.02c-.92 0-1.75.43-2.27.78-.12.08-.28.05-.36-.07-.07-.12-.04-.27.07-.35.84-.57 1.73-.87 2.56-.86 1 0 1.95.46 2.46 1.2.17.25.3.52.4.8.3.84.37 1.65.17 2.32-.27.86-.93 1.5-1.7 1.6l-.03.02zM12.52 32.44c-.93 0-1.85-.13-2.74-.4-1.46-.42-2.8-1.2-3.9-2.23-1.15-1.06-1.5-2.4-1.68-3.67-.07-.42-.07-.84 0-1.26 0-.14.14-.24.28-.23.14.02.25.14.23.3-.05.36-.05.74 0 1.12.22 1.37.56 2.46 1.53 3.38 2.27 2.14 5.47 2.98 8.5 2.23l.62-.14c1.05-.23 2.04-.45 2.9-1.1.1-.1.26-.08.35.03.1.12.07.28-.04.36-.94.73-2 .97-3.1 1.22l-.6.14c-.78.18-1.56.27-2.34.26z"/><path d="M2.9 17.13l-.74-1.35c-.27-.5-.56-1-.82-1.52-.62-1.18-1.2-2.46-1.3-3.83C-.1 9 .33 7.5 1.27 5.8 1.73 5 2.13 4.46 2.6 4c.54-.5 1.15-.92 1.82-1.23 2.87-1.4 6.18-1.46 9.04-1.35 2.98.12 5 1.16 6.8 3.48.07.07.9 1.34.87 1.43-.03.08-.34.1-.43.1-.1.02-.78-1.14-.83-1.2-1.7-2.2-3.62-3.18-6.43-3.3-2.8-.1-6.03-.04-8.8 1.3-.6.3-1.18.67-1.68 1.14-.43.4-.8.94-1.23 1.7-.9 1.6-1.3 3-1.2 4.32.1 1.26.66 2.5 1.26 3.62l.8 1.5.75 1.37c.05.07.05.17 0 .24-.05.08-.13.13-.22.13-.1 0-.18-.05-.23-.14z"/><path d="M9.47 2c-.07 0-.13-.02-.18-.06-.1-.1-.15-.24-.14-.38 0-.22.03-.44.08-.65.03-.18.1-.35.2-.5.24-.32.64-.44 1-.32.32.1.57.38.76.83.08.2.15.4.2.6.03.14-.05.28-.18.32-.14.03-.28-.05-.3-.18-.06-.18-.12-.36-.2-.53-.12-.3-.26-.48-.43-.54-.17-.05-.34 0-.44.14-.06.1-.1.2-.12.3-.04.2-.06.38-.07.57v.02c.06.07.07.18.03.26-.05.1-.13.14-.23.14zM1.45 5.96H1.4c-.4-.07-.74-.38-1-.9C.14 4.45.07 3.9.2 3.4c.17-.55.73-1.07 1.4-1 .5.07.88.48 1.13.75l.5.55c.06.06.1.16.06.25-.04.1-.1.16-.2.18-.1.02-.2 0-.25-.1l-.5-.53c-.26-.3-.52-.55-.82-.58-.38-.05-.72.3-.83.63-.13.45.02.93.18 1.26.12.26.32.58.6.62.16.02.26.14.25.28 0 .14-.14.25-.28.24zM12.85 12.23c-2.46 0-4.46-2-4.46-4.46 0-2.47 1.98-4.47 4.45-4.47s4.47 2 4.47 4.46c0 2.47-2 4.47-4.47 4.47zm0-8.42c-1.6 0-3.04.98-3.65 2.45-.6 1.48-.27 3.18.86 4.3 1.13 1.14 2.83 1.48 4.3.87 1.5-.62 2.45-2.06 2.45-3.66 0-2.18-1.77-3.94-3.95-3.95zM23.1 11.85c-.14 0-.25-.1-.26-.24 0-.26-.08-.77-.23-1.23-.14-.42-.36-.8-.4-1.08v-.13c0-.13.08-.26.2-.28.08-.02.15 0 .2.03.06.04.1.1.1.16.02.04.02.08 0 .12.04.22.3.5.4.8.2.58.24 1.23.25 1.56 0 .07-.02.14-.07.2-.04.04-.1.07-.18.07z"/><path d="M21.18 31.53c-.12 0-.23-.1-.25-.2l-1.65-8.7c-.02-.14.07-.27.2-.3.15-.02.28.07.3.2l1.6 8.43 16.44-3.67-3.87-17.9L17.98 13 19 18.87c.03.13-.07.26-.2.3-.14 0-.27-.08-.3-.2l-1.07-6.1c-.02-.13.06-.26.2-.3L34.1 8.84c.06-.02.13 0 .18.03.06.04.1.1.12.17l3.97 18.4c.02.06 0 .13-.03.2-.04.05-.1.1-.16.1l-16.94 3.8h-.06z"/><path d="M38.3 27.77c-.15 0-.27-.1-.3-.24 0-.14.1-.26.25-.28 2.42-.5 4.86-1.04 7.25-1.63L41.96 9l-5.5.14c-.68.02-1.38.04-2.06.1-.1 0-.2-.03-.24-.1-.05-.08-.06-.17-.03-.26.04-.08.12-.14.2-.15.72-.07 1.43-.1 2.12-.1l5.7-.16c.14 0 .25.08.27.2l3.64 17.1c.03.13-.05.26-.2.3-2.47.6-5 1.2-7.5 1.7h-.06zM17.45 22.22c-.13 0-.24-.1-.25-.22-.02-.13.06-.25.18-.3.4-.07.8-.13 1.2-.17h.15c.14-.03.27.07.3.2 0 .16-.1.28-.24.3l-.15.02c-.38.03-.76.08-1.13.16l-.07.02zM20.06 21.86c-.1 0-.18-.04-.23-.1-.05-.1-.06-.2-.02-.27.05-.1.13-.15.22-.16 1.06-.17 1.7-.4 1.88-.7.06-.1.08-.2.04-.3-.1-.4-.72-.7-1.85-.9-.15 0-.24-.14-.22-.28.02-.14.16-.24.3-.22.86.14 2.04.43 2.26 1.27.06.25.02.5-.1.7-.3.45-.98.74-2.24.95h-.04zM18.83 19.3h-.03c-.76-.1-1.52-.13-2.3-.13-.13 0-.24-.12-.24-.26 0-.13.1-.24.25-.24.8 0 1.58.04 2.36.12.1 0 .18.06.22.15.04.08.03.18-.02.25-.05.08-.13.12-.22.12zM21.08 32.33c-.27 0-.54-.05-.8-.16-.2-.1-.4-.2-.58-.35l-2.4-1.63c-.12-.1-.15-.24-.07-.36.08-.12.23-.15.35-.07l2.4 1.63c.17.12.34.22.52.3.23.1.5.14.74.1.1 0 .18-.02.26-.07.1-.08.1-.27.05-.4-.06-.13 0-.28.14-.33.12-.05.27 0 .32.14.15.36.07.77-.2.98-.14.12-.33.2-.52.2-.07 0-.14.02-.22 0zM5.6 32.85c-.18 0-.36-.02-.54-.07-.13-.03-.24-.1-.3-.2-.07-.1-.1-.2-.1-.32.03-1.03.77-1.82 1.53-2.54.06-.07.15-.1.24-.06.1.02.15.1.18.18.02.1 0 .2-.08.25-.68.64-1.34 1.34-1.35 2.17.43.13.96.05 1.44-.22.47-.27.86-.67 1.22-1.06.1-.1.25-.12.36-.03.1.1.1.26.02.36-.4.43-.82.86-1.35 1.17-.4.22-.84.34-1.3.35z"/><circle cx="16.34" cy="6.77" r=".51"/><circle cx="23.02" cy="4.35" r=".51"/><path d="M9.3 19.17c-1.16 0-2.28-.1-3.38-.17-.58-.05-1.15-.13-1.83-.25-.05 0-.12 0-.2-.02-.4-.03-.7-.07-.88-.26-.23-.28-.25-1.45-.25-1.46 0-.06.03-.13.08-.18.05-.05.1-.07.18-.07.4.02.8.07 1.18.14.3.03.58.08.86.1l.67.08.75.07c1.17.1 2.37.06 3.9-.1l1.46-.12c.9-.1 1.8-.17 2.73-.28l1.8-.23c.5-.07.98-.16 1.45-.25l.3-.06c.15 0 .28.08.3.2.04.15-.05.3-.2.3l-.3.07c-.48.1-.97.2-1.5.26l-1.8.23c-.92.1-1.84.2-2.74.28-.48.04-.97.1-1.46.13-1.55.16-2.78.2-3.98.1l-.76-.08c-.22-.04-.44-.06-.66-.08l-.9-.12c-.28-.05-.55-.1-.83-.12 0 .32.06.74.12.86.07.04.38.07.52.08.1 0 .17 0 .24.03.66.1 1.2.2 1.78.24 1.66.12 3.38.25 5.13.07l1.06-.08c.47-.04.97-.07 1.44-.13l1.2-.18c.8-.16 1.6-.26 2.42-.3.3-.03.6-.02.88-.02h.42c.14 0 .26.12.26.26s-.12.26-.26.26h-1.28c-.8.05-1.6.15-2.38.3l-1.2.18c-.5.06-1 .1-1.48.12l-1.05.08c-.63.06-1.25.1-1.86.1z"/><path d="M14.65 25.74h-.3c-1.54-.06-3.2-.16-5.22-.32l-1-.04c-.38 0-.78-.02-1.17-.06-.3-.03-.6-.1-.9-.16-.2-.04-.43-.1-.64-.12C5.08 25 4.74 25 4.4 25c-.23.02-.48.02-.72 0-.13 0-.24-.1-.24-.23-.03-.4-.03-.85.15-1.3.16-.38.3-.78.4-1.2.02-.08.02-.18-.02-.26-.1-.07-.18-.2-.18-.34.02-.1.08-.22.18-.28H4c.15-.54-.02-1.16-.2-1.76l-.2-.9c0-.13.08-.25.22-.27.14-.02.27.07.3.2.04.28.1.56.2.83.18.7.38 1.4.15 2.1 0 .04-.04.08-.07.12l.06.1c.08.2.1.4.03.58-.1.44-.25.88-.44 1.3-.1.26-.14.54-.12.82h.44c.38-.03.75-.02 1.12.03.23.03.45.08.67.13.27.06.55.1.84.15.38.04.77.05 1.14.06.34 0 .68.02 1.03.04 2.02.17 3.67.27 5.2.3 1.3.06 2.6-.22 3.83-.5.74-.15 1.24-.28 1.48-.4.13-.03.26.03.32.15.05.12 0 .26-.1.33-.3.12-.8.27-1.6.43-1.17.27-2.4.54-3.65.54zM20.78 29.94c-.06 0-.13-.02-.17-.07l-.38-.4c-.16-.2-.33-.38-.52-.54-.1-.1-.12-.24-.04-.35.1-.1.24-.13.36-.05.2.18.4.38.6.6.1.13.22.26.34.38.08.08.1.2.06.3-.04.08-.13.15-.24.15zM19.24 22.83c-.1 0-.2-.04-.27-.1-.54-.34-.47-1.15-.43-1.68l.02-.22c0-.13 0-.26.02-.4.02-.26.04-.54.04-.82 0-.03 0-.1-.02-.16-.03-.28-.08-.67.18-.9l.2-.1c.13-.02.26 0 .36.07 0 0 .03 0 .05-.02.1-.05.23 0 .3.1.2-.12.42-.07.54.1.17.2.16.54.15.78v.1c0 .42 0 .87-.04 1.32v.23c-.03.64-.07 1.23-.37 1.48-.1.07-.2.15-.35.12-.05 0-.1-.03-.13-.07-.04.12-.15.2-.27.2zm-.14-3.85v.4c.02.08.03.15.03.23 0 .3-.02.6-.04.87l-.03.38c0 .07 0 .15-.02.24-.02.33-.07.88.1 1.12l.03-.02c.06-.12.18-.2.32-.2.08 0 .16.03.22.1.1-.24.1-.8.1-1 0-.1 0-.2.02-.25.03-.44.04-.88.04-1.3v-.1-.34c-.1.1-.24.1-.35.05-.05.04-.13.06-.2.05-.07 0-.14-.06-.18-.12v-.02l-.05-.08z"/></g></g>
</svg>
