<svg width="24" height="24" viewBox="0 0 48 48" role="img">
  <g fill-rule="evenodd">
    <path d="M31 36.2L38 24l-7-12.3H17L10 24l7 12.2h14zm-6.8-6c3.3 0 6-2.7 6-6 0-3.5-2.7-6.2-6-6.2-3.4 0-6.2 2.7-6.2 6 0 3.5 2.8 6.2 6.2 6.2z" fill="#E2E3E4"/>
    <path d="M31 11.7l-4.6-8H14c-1 0-2 .5-2.6 1.4l-10 17.5c-.4 1-.4 2 0 3l4 6.6 4.5-8 7-12.3h14z" fill="#858585"/>
    <path d="M36.6 5C36 4.3 35 3.7 34 3.7h-7.7l4.7 8L38 24l-7 12.2h9.4l6-10.7c.7-1 .7-2 0-3L36.7 5z"/>
    <path d="M40.4 36.2H17L10 24l-4.7 8 6 10.8c.7 1 1.7 1.5 2.8 1.5h20c1 0 2-.5 2.6-1.5l3.8-6.6z" fill="#595959"/>
  </g>
</svg>
