<svg width="24" height="24" viewBox="0 0 24 24" role="img">
  <path d="M8.515575,10.985105 L8.51484,10.985105 L15.140865,10.985105 C15.199665,11.333495 15.251115,11.683355 15.251115,12.141995 C15.251115,16.13231 12.565425,18.965 8.515575,18.965 C4.63698,18.965 1.5,15.84272 1.5,11.9825 C1.5,8.12228 4.63698,5 8.51631,5 C10.41114,5 11.99433,5.68796 13.215165,6.82574 L11.311515,8.650745 C10.7904,8.15315 9.878265,7.5725 8.51484,7.5725 C6.12021,7.5725 4.16511,9.54965 4.16511,11.9825 C4.16511,14.41535 6.11874,16.3925 8.51484,16.3925 C11.29167,16.3925 12.333165,14.40653 12.494865,13.379 L8.515575,13.379 L8.515575,10.985105 Z M22.5,10.98584 L22.5,12.9821 L20.495655,12.9821 L20.495655,14.976155 L18.490575,14.976155 L18.490575,12.9821 L16.48623,12.9821 L16.48623,10.98584 L18.490575,10.98584 L18.490575,8.99105 L20.495655,8.99105 L20.495655,10.98584 L22.5,10.98584 Z"/>
</svg>
