<svg width="24" height="24" viewBox="0 0 48 48" role="img">
  <path d="M11.963 23.975c-.1-4.47-1.2-8.853-.07-13.26-4.91-1.382-1.258-7.63 2.685-5.06 2.41-2.464 5.878-2.85 9.73-3.155 3.648 0 7.127.387 9.66 2.518 3.678-2.23 6.864 3.312 2.973 5.013 1.207 4.46.775 9.154.977 13.786.64.047 1.278.252 1.79.624.352.256 1.012 1.072.323 1.392-.062 1.283-1.344.69-1.924.288.23 4.38.518 9.234-1.473 13.21-.502 1.003-1.164 1.844-1.942 2.546 1.007.688 2.58 2.406 1.17 3.26-1.38 1.264-2.172-1.27-3.358-1.77-2.672 1.368-5.975 1.76-8.9 1.655-2.153-.076-4.56-.508-6.63-1.502-1.14.205-1.792 1.25-2.758 1.782-.91.543-1.26-.174-1.34-.32-.143-.065-.132.06-.352-.16-.844-1.333.88-2.306 1.777-2.968.05-.01.098-.018.147-.024-.518-.48-.976-1.027-1.356-1.644-2.443-3.956-1.382-9.787-1.156-14.265-.1.168-.295.104-.67.363-.58.4-1.862.995-1.924-.288-.69-.32-.03-1.136.323-1.392.65-.472 1.5-.674 2.3-.628zM12.1 8.988l.97-1.833c-.65-.343-1.33-.418-1.698.276-.396.75.08 1.215.727 1.558zm23.47-.65l-.97-1.835c.65-.342 1.33-.418 1.697.276.397.748-.08 1.214-.726 1.557zm-20.735 4.55c1.144 4.467 8.296 3.323 8.026-1.158-.322-5.366-9.12-4.33-8.025 1.158zm10.022-.83c.883 5.13 9.27 3.774 8.065-1.4-1.08-4.64-8.358-3.357-8.065 1.4zm2.07 1.083c.655 0 1.187-.584 1.187-1.307 0-.722-.532-1.308-1.188-1.308-.656 0-1.188.586-1.188 1.308 0 .723.532 1.308 1.188 1.308zm-10.12.327c.667 0 1.208-.585 1.208-1.308 0-.723-.54-1.31-1.208-1.31-.667 0-1.207.587-1.207 1.31 0 .722.54 1.307 1.207 1.307zm9.222 3.15c1.03.497 2.154 1.445 1.257 2.416-.87.94-1.755-.18-2.837-.203-1.852-.016-2.45 1.207-3.126-.016-.456-.825.136-1.845.967-2.113-.007-.03-.014-.064-.018-.097l.12-.016-.12.006c-.037-.856.7-1.44 1.715-1.544.984-.103 1.88.284 2.078 1.016.054.2.038.386-.036.552zm-.23 2.913c.003.543.134 1.152.022 1.73-.15.26-.447.29-.702.395-.354-.05-.65-.264-.792-.567-.09-.66.033-1.297.056-1.956l1.416.398zm-3.39-.06l1.715-.37c-.025.658-.16 1.296-.06 1.955-1.372 1.532-2.16-.545-1.654-1.584zm.117-2.835c.146 1.118 3.607.825 3.257-.435-.35-1.263-3.324-1.075-3.257.435z"/>
</svg>
