<svg width="24" height="24" viewBox="0 0 24 24" role="img">
  <path d="M20.048 6.355l-.01.01c-.118-.08-.235-.157-.326-.235-.073-.065-.146-.125-.134-.23 0-.066.03-.15.12-.265.015-.02.036-.036.064-.05.16-.184.438-.4.497-.47.254-.307 1.083.05 1.62.528.59.427 1.225 1.215 1.45 1.88.314.937.327 2.122-.194 3.32-.86 2.018-2.187 3.346-5.026 3.724-1.666.234-1.328 1.458-1.328 4.713h-2.265s-3.828-6.107-5.612 0H6.887c-.404-3.008-2.826-3.125-3.503 0H.728S-.717 10.79 4.62 8.864c0 0 .483 1.146 1.108 2.148.69 1.107 2.5 1.875 4.61-1.302 0 0-2.84 3.138-4.128.99-.82-1.354-.547-.847-1.38-2.487-.612-1.198.104-1.72 1.666-2.24 1.563-.52 6.276-1.85 9.79 1.42 3.31 3.072 4.116 2.916 4.832 2.265.638-.586.273-1.55.117-1.966-.28-.724-.803-1.083-1.187-1.337zm-5.18 3.448l-.95-.314s-.508 1.418.898 1.874c1.055.364 1.875-.482 1.966-.925l-.753-.25c.01.033.015.07.02.105.04.393-.256.747-.663.79-.408.044-.772-.24-.814-.633-.027-.26.092-.502.294-.65z"/>
</svg>
