<svg width="24" height="24" viewBox="0 0 24 24" role="img">
  <path d="M22,22.0220884 C22,22.5609289 21.5738224,23 21.0498747,23 L2.95012535,23 C2.4261776,23 2,22.5609289 2,22.0220884 L2,1.97791157 C2,1.43864107 2.4261776,1 2.95012535,1 L21.0498747,1 C21.5738224,1 22,1.43864107 22,1.97791157 L22,22.0220884 Z M6.5,20.5 L9,18 L6.5,15.5 L6.5,20.5 Z M13,9.5 C11.3856735,9.5 9.5,10 8.5,10.5 L8.5,3.5 L6.5,3.5 L6.5,14 L8.03911691,13.2395623 C8.06592461,13.2273178 10.5789291,12 13,12 C14,12 15,12.5 15,13.5 L15,20.5 L17,20.5 L17,13 C17,13 17.058653,11.7161817 16.0349338,10.6724464 C15.5549083,10.18309 14.4714917,9.5 13,9.5 Z M15,7.49986278 C16.0769158,6.26992717 16.8395726,4.96272475 17,3.59978889 L14.5,3.59978889 C14.2373683,4.96019141 13.4357565,6.26232715 12.5,7.49986278 L15,7.49986278 Z"/>
</svg>
