<svg width="24" height="24" viewBox="0 0 24 24" role="img">
  <path d="M11.77 23.96c-.32 0-.65-.08-.93-.24l-2.97-1.74c-.44-.24-.23-.33-.08-.38.58-.2.7-.25 1.33-.6.07-.04.15-.03.22 0l2.28 1.35c.1.04.2.04.28 0l8.9-5.07c.1-.05.14-.14.14-.24V6.9c0-.1-.05-.18-.13-.23L11.9 1.6c-.07-.05-.18-.05-.26 0l-8.9 5.07c-.08.05-.13.14-.13.24v10.14c0 .1.06.2.14.23l2.44 1.4c1.32.65 2.13-.12 2.13-.9v-10c0-.14.12-.25.27-.25H8.7c.14 0 .25.1.25.25v10c0 1.75-.96 2.75-2.63 2.75-.52 0-.92 0-2.05-.55l-2.34-1.33c-.57-.33-.93-.94-.93-1.6V6.9c0-.65.36-1.27.93-1.6l8.9-5.06c.57-.32 1.32-.32 1.88 0l8.9 5.07c.58.34.94.95.94 1.6v10.14c0 .66-.36 1.27-.94 1.6l-8.9 5.07c-.28.17-.6.26-.93.26"/>
  <path d="M14.4 17.42c-3.77 0-4.56-1.78-4.56-3.27 0-.14.1-.25.25-.25h1.1c.12 0 .22.1.24.2.17 1.18.67 1.76 2.95 1.76 1.8 0 2.57-.42 2.57-1.4 0-.57-.22-1-3.03-1.28-2.36-.24-3.82-.77-3.82-2.7 0-1.8 1.47-2.86 3.92-2.86 2.76 0 4.12 1 4.3 3.1 0 .07-.02.14-.07.2-.05.05-.12.08-.18.08h-1.13c-.12 0-.22-.1-.24-.2-.27-1.23-.92-1.62-2.7-1.62-1.97 0-2.2.7-2.2 1.24 0 .65.27.83 2.94 1.2 2.65.36 3.9.87 3.9 2.78 0 1.92-1.56 3.03-4.3 3.03h.02z"/>
</svg>
