<svg width="24" height="24" viewBox="0 0 24 24" role="img">
  <path d="M8.64 18.2c-3.65 1.05 2.22 3.2 6.86 1.17-.76-.3-1.3-.66-1.3-.66-2.08.42-3.04.45-4.92.23-1.55-.2-.64-.73-.64-.73zm-.88-3c-3.96 1.4 2.2 2.97 7.74 1.25-.6-.22-.96-.62-.96-.62-2.7.55-4.27.53-6.25.32-1.54-.17-.54-.96-.54-.96zm4.73-4.38c-3.67-4.24 4-6.16 4-6.16-4.9 2.84-4 3.67-2.8 5.33 1.25 1.77-1.5 3.2-1.5 3.2s1.37-1.14.3-2.38zm6.06 9.1s.65.54-.72.96c-2.6.8-10.85 1.05-13.14.04-.83-.37.72-.88 1.2-.98.5-.12.8-.1.8-.1-.92-.66-5.92 1.3-2.54 1.86 9.2 1.52 16.78-.7 14.4-1.8zm-9.54-7.23s-4.16.97-1.47 1.33c1.13.15 3.4.12 5.5-.06 1.72-.14 3.45-.45 3.45-.45s-.6.26-1.05.56c-4.22 1.1-12.38.6-10.03-.54 1.98-.96 3.6-.85 3.6-.85zm7.56 4.4l-.08.1c5.52-1.5 3.5-5.33.85-4.36-.23.1-.35.28-.35.28s.14-.06.47-.13c1.33-.3 3.24 1.85-.9 4.1zM13.88.13s2.42 2.38-2.3 6.03c-3.77 2.94-.86 4.6 0 6.52-2.2-1.97-3.82-3.7-2.73-5.3 1.6-2.34 6-3.48 5.03-7.26zm-4.6 23c4.16.3 10.57-.17 10.72-2.43 0 0-.3.87-3.45 1.55C13 23 8.6 22.92 6 22.43c0 0 .53.5 3.27.7z" fill-rule="nonzero"/>
</svg>
