<svg width="24" height="24" viewBox="0 0 24 24" role="img">
  <path d="M12.1 4.08c.15-.25-.13-.44-.33-.47-.47-.06-1.04.47-1.2.86-.04.15-.13.45.1.5.23-.54.63-1.06 1.42-.88zm3.88.9c-.02.45.14.7.25 1-.2.13-.57.06-.8.15 0 .64 1 .33 1.15-.03-.22-.33-.38-.73-.56-1.1h-.04zM12.5 5c-.12.34.2.92.4 1.2-.25.23-.67.04-1 .03-.3.47.6.56.98.45.1-.03.28-.2.3-.26.12-.3-.1-.42-.2-.53-.25-.25-.3-.58-.48-.9zm3.34 3.2c-.02-.14.17-.4.12-.62-.02-.07-.2-.18-.3-.3-.4-.46-1-1.14-1.22-1.68-.02-.06-.04-.38-.22-.26-.02.8.57 1.45 1 1.98.22.26.48.4.24.8-.38.16-1 .58-1.53.5-.28-.06-.22-.38-.32-.56-.2.26-.1.65.1.82.93.1 1.57-.3 2.14-.68zM8.3 7.82c-.2-.1-.23-.56-.44-.57-.3-.02-.25.58-.24.94-.2-.2-.25-.78-.1-1.08-.17-.1-.25.1-.34.16.12-.9 1.3-.42 1.1.54zm7.9.76c-.45.2-.82.52-1.42.57-.03.1-.02.35 0 .52.78-.02 1.16-.58 1.42-1.1zm-3.74.33c.23.62 1.26.84 2.13.8 0-.18 0-.37-.05-.52-.68.02-1.6 0-2.1-.27zm-.1.5c-.44 0-.07.25 0 .34.16.2.34.54.63.7.43.23 1.3.13 1.63 0 .12-.05.22-.18.26-.3-1 .03-2.2.13-2.54-.74zm5.6 7.3c-.44.1-.76.53-1.2.5.24-.34.67-.5 1.2-.5zm.2.7c-.36.04-.8.1-1.16.08.17-.32.86-.2 1.17-.08zm.14.62c-.4 0-.93 0-1.32-.04.23-.32 1.05-.12 1.32.04zm-3.78 1.76c-.02.46.05 1.2.07 1.7.3 0 .43-.07.66-.15.02-.57-.18-1.1-.24-1.63-.13-.03-.35.1-.5.08zm-4.8-2.64c.22 1.87.5 3.44 1.05 5.1 1.2.37 2.63.4 3.7.07-.2-.93-.12-2.07-.23-3.06-.1-.75-.04-1.5-.16-2.27-1.28-.27-3.1-.07-4.35.17zm4.66-.16c0 .8.04 1.6.1 2.4.3-.05.52-.08.8-.14-.1-.78-.08-1.65-.27-2.33-.2 0-.4 0-.62.08zm1.56-.13c-.14-.04-.3 0-.45 0 .05.65.2 1.38.27 2.07.22 0 .33-.1.5-.14.02-.6-.04-1.43-.33-1.93zM18.3 19c.46-.1.75-.66.62-1.24-.1-.4-.24-1.12-.4-1.36-.12-.2-.45-.43-.7-.26-.44.27-1.2.35-1.5.68.16.52.2 1.24.27 1.9.52.03 1.17-.15 1.62.04-.3.1-.7.1-.98.25.22.12.73.1 1.06 0zm-4.25-2.78c-.32-.76-.6-1.54-1.1-2.15-.45.3-.97.6-1.1 1.17.67.38 1.44.75 2.2.98zm.8-2.35c-.04.76-.12 1.76-.32 2.35.48-.6.86-1.33 1.27-2.02-.18-.28-.54-.52-.96-.33zm-.9-.32c-.2-.02-.34.2-.58.12l-.16.18c.54.63.77 1.53 1.18 2.27.2-.7.2-1.5.24-2.27-.3.02-.47-.27-.67-.3zm.28.64c0 .08-.07.15-.16.15-.1 0-.16-.07-.16-.16 0-.1.08-.17.17-.17.1 0 .16.07.16.16m.16.74c0 .1-.08.16-.17.16-.1 0-.16-.07-.16-.16 0-.1.07-.16.16-.16.1 0 .16.07.16.16m-1.03-2.15c-.02.2.03.28.07.53.7.22.6-.98-.07-.54zm-.8-.27c-.3-.17-.75-.35-1.15-.42-.48-.1-.44.67-.42 1.13.02.36.2.74.3.98.02.12.03.24.13.26.17.04.72-.18.88-.27.35-.2.6-.48.9-.67v-.3c-.17-.08-.37-.14-.62-.15.17-.08.42-.08.58-.18v-.12c-.28-.02-.4-.15-.58-.25zM9.68 12c-.26.26.7.6 1 .63 0-.17.1-.32.1-.44-.38-.07-.86-.03-1.1-.2zm3.12.12c0 .03-.05.02-.05.04.33.25.57.3 1 .28l.6-.45c-.48.03-1.1.33-1.56.12zm2.85.87c0-.3-.08-.88-.26-1-.38-.2-1.04.45-1.32.55.03.1.08.16.08.27.17-.04.37 0 .5.06-.15.02-.34.02-.45.1-.03.1.02.27 0 .43.4.12.84.18 1.34.2.1-.13.13-.37.1-.6zm-6.4-.75c-.1-.06-.63-.76-.7-.73-.98.38-1.9 1.05-2.7 1.68.78 1.67 1.1 3.72 1.14 5.7.88.4 1.66 1.02 2.87 1.08-.14-1-.27-1.88-.35-2.8-.3-.14-.73 0-1.02-.05 0-.34.44-.15.47-.38.03-.18-.24-.2-.15-.46.22.07.34.24.57.3.2-.46 0-1.3.02-1.7 0-.07.04-.4.2-.35.15.05 0 .9 0 1.27.03.35-.03.68.1.9 1.18-.16 2.36-.26 3.62-.3-.27-.12-.6-.23-.97-.43-.2-.13-.8-.36-.87-.54-.1-.3.24-.46.3-.7-.6.3-.7-.32-.85-.77-.12-.42-.2-.72-.22-.95-.5-.24-1.05-.5-1.5-.8zm5.9-.65c.8-.4.95 1.48.63 2.08.05.18.22.25.3.4-.47.83-.97 1.6-1.43 2.4.34-.22.83-.04 1.24-.2.14-.06.24-.4.35-.68.3-.74.64-1.7.78-2.4.03-.16.12-.52.1-.66-.03-.26-.4-.45-.56-.62-.33-.3-.54-.55-.88-.83-.15.2-.45.34-.56.5zM7.37 4.37c-.38.43-.3 1.23-.25 1.8.7-.44 1.62.04 1.6.8.35-.02.14-.43.08-.7-.2-.86.34-1.8.03-2.58-.6.03-1.1.28-1.45.67zm2.77-2.48c-.87.24-2 .88-2.36 1.67.27-.04.47-.18.74-.2.1 0 .24.05.36.02.24-.07.44-.6.62-.8.17-.2.38-.28.53-.46.1-.05.23-.04.23-.18-.04-.05-.08-.08-.13-.07zm4.56.23c-.9-.52-2.44-.9-3.4-.42-.78.4-1.84 1.05-2.2 1.87.34.8-.1 1.5-.13 2.3 0 .44.2.8.22 1.28-.12.2-.48.2-.72.2-.08-.4-.22-.88-.64-.92-.6-.07-1.04.43-1.06.95-.04.6.46 1.62 1.17 1.55.27-.03.34-.3.63-.3.17.32-.24.42-.3.65 0 .06.05.3.07.4.13.54.42 1.22.7 1.63.36.52 1.06.6 1.8.65.15-.3.64-.27.97-.2-.4-.15-.75-.52-1.05-.85-.34-.38-.7-.8-.7-1.28.64.9 1.18 1.7 2.36 2.1.9.3 1.93-.15 2.62-.63.28-.22.45-.53.65-.83.76-1.1 1.1-2.65 1.03-4.16-.03-.62-.03-1.24-.23-1.66-.22-.44-.96-.83-1.4-.43-.07-.42.37-.68.88-.53-.36-.47-.75-1.05-1.27-1.34zm2.34 3.55c-.05-.86-.22-1.66-.52-2.28-.27-.55-1.02-1.3-1.5-1.66-1.1-.84-3.15-.93-4.5-.44-.36.14-.72.26-1.05.45-.87.52-1.8.86-2.06 1.9-.54.25-.76.9-.8 1.7-.2.16-.38.34-.56.53-1.44 1.47-2.32 3.5-2.32 5.75 0 2.24.88 4.28 2.32 5.75.15.15.3.3.47.44l.04.53c.02.36 0 .73.08.93.1.2.45.27.7.4.74.33 1.53.86 2.5.75.23.78.44 1.6.72 2.3 1 .36 2.56.3 3.6.17.3-.03.64-.2.7-.46 0-.17-.03-.34-.02-.54.32-.06.76-.12.83-.48.1-.5-.32-1.22-.18-1.77.2-.07.4-.1.36-.4.3-.17.7-.2 1.1-.2.04.1.1.2.18.26.57.12 1.1.13 1.57-.02.53-.18.78-1.25.66-1.77-.1-.35-.28-.95-.45-1.3-.1-.22-.24-.35-.42-.43.7-1.2 1.1-2.63 1.1-4.14 0-2.24-.88-4.28-2.32-5.75l-.2-.2zm0 .7c1.27 1.36 2.04 3.2 2.04 5.25 0 1.5-.4 2.88-1.13 4.06-.53 0-1.14.3-1.55.5.35-.9.64-1.85.95-2.87.1-.3.27-.74.23-1.06-.04-.3-.5-.6-.75-.85-.13-.13-.76-.6-.8-.8-.04-.17.26-.56.35-.76.14-.28.23-.63.3-.86.22-.8.36-1.72.37-2.63zm-10.4-.43c.04.13.07.25.04.36 0 .1-.13.2-.16.27-.3.73-.06 1.7.3 2.22.2.3.56.58 1.03.65.02.3.1.53.22.8.08.2.38.52.27.75-.06.1-.55.36-.72.46-.55.34-.96.54-1.47.92-.34.24-.86.27-.77.82.05.38.26.84.4 1.22.12.4.3.77.4 1.2.14.5.22 1 .27 1.5l-.07-.08c-1.35-1.38-2.2-3.3-2.2-5.4 0-2.12.85-4.04 2.2-5.42l.27-.27z" fill-rule="evenodd"/>
</svg>
