<svg width="24" height="24" viewBox="0 0 24 24" role="img">
  <path d="M19,4 L14.82,4 C14.4,2.84 13.3,2 12,2 C10.7,2 9.6,2.84 9.18,4 L5,4 C3.9,4 3,4.9 3,6 L3,20 C3,21.1 3.9,22 5,22 L19,22 C20.1,22 21,21.1 21,20 L21,6 C21,4.9 20.1,4 19,4 Z M12,4 C12.55,4 13,4.45 13,5 C13,5.55 12.55,6 12,6 C11.45,6 11,5.55 11,5 C11,4.45 11.45,4 12,4 Z M12,8 C13.66,8 15,9.34 15,11 C15,12.66 13.66,14 12,14 C10.34,14 9,12.66 9,11 C9,9.34 10.34,8 12,8 Z M18,20 L6,20 L6,18.6 C6,16.6 10,15.5 12,15.5 C14,15.5 18,16.6 18,18.6 L18,20 Z"/>
</svg>
