<svg width="24" height="24" viewBox="0 0 24 24" role="img">
  <path d="M6.70542273,7.97387327 C5.75261848,7.97387327 4.98426381,7.19879001 4.98426381,6.24320791 C4.98426381,5.28818463 5.75261848,4.51310137 6.70542273,4.51310137 C7.65433798,4.51310137 8.42435937,5.28818463 8.42435937,6.24320791 C8.42435937,7.19879001 7.65433798,7.97387327 6.70542273,7.97387327 L6.70542273,7.97387327 Z M20.5205145,2 L3.47504097,2 C2.66112948,2 2,2.64555556 2,3.44222222 L2,20.5566667 C2,21.3533333 2.66112948,22 3.47504097,22 L20.5205145,22 C21.3360927,22 22,21.3533333 22,20.5566667 L22,3.44222222 C22,2.64555556 21.3360927,2 20.5205145,2 L20.5205145,2 Z M19.2996615,18.8859503 L16.333468,18.8859503 L16.333468,14.2170097 C16.333468,13.1038403 16.3145785,11.6715848 14.792314,11.6715848 C13.2483823,11.6715848 13.0128202,12.8847829 13.0128202,14.1376572 L13.0128202,18.8859503 L10.0499601,18.8859503 L10.0499601,9.28542367 L12.8933724,9.28542367 L12.8933724,10.5980917 L12.9344846,10.5980917 C13.3300512,9.84312597 14.2978559,9.04736638 15.7406737,9.04736638 C18.744646,9.04736638 19.2996615,11.0350889 19.2996615,13.6207488 L19.2996615,18.8859503 L19.2996615,18.8859503 Z M5.19999981,9.30000019 L8.19999981,9.30000019 L8.19999981,18.9000006 L5.19999981,18.9000006 L5.19999981,9.30000019 Z"/>
</svg>
