<svg width="48" height="48" viewBox="0 0 48 48" role="img">
  <path d="M43 38.52c-1.2-.5-2.2-1.28-2.13-2.79.07-1.5-1.07-2.5-1.07-2.5s1-3.29.07-6c-.92-2.73-3.98-7.08-6.33-10.37-2.34-3.3-.35-7.08-2.49-11.95C28.91.06 23.36.34 20.37 2.41c-3 2.08-2.07 7.23-1.92 9.66.14 2.43.06 4.16-.21 4.8-.29.62-2.21 2.93-3.49 4.85-1.28 1.93-2.2 5.94-3.14 7.58-.92 1.65-.28 3.15-.28 3.15s-.64.2-1.14 1.29c-.5 1.06-1.5 1.56-3.27 1.92-1.78.35-1.78 1.5-1.36 2.8.43 1.28 0 2-.5 3.64-.5 1.64 2 2.15 4.41 2.43 2.43.29 5.13 1.86 7.41 2.14 2.28.29 2.99-1.57 2.99-1.57s2.56-.57 5.26-.64c2.7-.08 5.26.57 5.26.57s.5 1.14 1.43 1.64c.93.5 2.92.57 4.2-.79 1.28-1.36 4.7-3.07 6.61-4.14 1.94-1.08 1.59-2.72.38-3.22zM26.36 7c1.22 0 2.2 1.22 2.2 2.71 0 1.07-.49 1.98-1.21 2.43l-.58-.25c.43-.22.74-.78.74-1.43 0-.84-.52-1.53-1.16-1.53-.64 0-1.16.7-1.16 1.53 0 .32.07.61.2.86l-1-.4a3.3 3.3 0 0 1-.24-1.21c0-1.5 1-2.71 2.21-2.71zm-.16 5.73c.6.2 1.3.6 1.22 1-.07.4-.4.4-1.22.9-.83.5-2.61 1.63-3.19 1.7-.57.07-.9-.26-1.5-.65-.61-.4-1.76-1.34-1.47-1.84 0 0 .9-.7 1.28-1.05.4-.36 1.4-1.22 2.01-1.11.61.1 2.26.83 2.87 1.05zm-5.5-5.3c.96 0 1.75 1.15 1.75 2.57 0 .27-.03.5-.08.74a2.5 2.5 0 0 0-.7.4c-.12.1-.22.2-.33.28.15-.28.22-.7.15-1.13-.13-.77-.65-1.34-1.16-1.25-.5.09-.81.78-.68 1.56.13.79.64 1.35 1.15 1.26l.09-.02c-.25.24-.48.45-.71.62-.7-.33-1.22-1.3-1.22-2.46 0-1.42.78-2.57 1.74-2.57zm-1.88 36.13c-.22 1.02-1.42 1.77-1.42 1.77-1.08.33-4.1-.98-5.46-1.55-1.36-.57-4.83-.74-5.29-1.25-.45-.52.23-1.66.4-2.74.17-1.1-.33-1.77-.17-2.52.18-.74 2.39-.74 3.24-1.25.86-.52 1.02-2 1.7-2.4.69-.4 1.94 1.02 2.45 1.83.51.8 2.44 4.22 3.24 5.08.8.85 1.54 2 1.31 3.03zm12.6-9.96c-.21 1-.21 4.64-.21 4.64s-2.21 3.07-5.63 3.58c-3.42.5-5.13.14-5.13.14l-1.92-2.22s1.5-.22 1.28-1.72c-.21-1.5-4.55-3.57-5.33-5.43-.78-1.86-.14-5.01.85-6.58 1-1.58 1.64-5 2.63-6.15 1-1.14 1.78-3.58 1.43-4.65 0 0 2.13 2.58 3.63 2.15 1.49-.43 4.84-2.93 5.34-2.5.5.43 4.77 9.86 5.19 12.87.43 3-.29 5.28-.29 5.28s-1.64-.42-1.85.59zm10.91 6.73c-.66.61-4.36 2.12-5.47 3.28-1.1 1.17-2.54 2.11-3.43 1.83-.88-.28-1.66-1.5-1.27-3.28.39-1.77.72-3.72.67-4.83-.06-1.11-.28-2.61 0-2.83.27-.22.71-.11.71-.11s-.21 2.1 1.05 2.67c1.27.55 3.1-.23 3.65-.79.56-.55.94-1.38.94-1.38s.56.28.5 1.17c-.05.88.39 2.16 1.22 2.6.82.45 2.1 1.06 1.43 1.67z"/>
</svg>
