<svg width="24" height="24" viewBox="0 0 24 24" role="img">
  <path d="M2,2 L22,2 L22,22 L2,22 L2,2 Z M7.75,7.786 L6,16.5 C6,16.5 5.9825,16.9985 6.25,16.9985 L7.5,17 C7.5,17 7.8205,17.2055 8,16.2485 C8.18,15.2925 9.25,10.3165 9.25,10.3165 L10.3125,16.3505 C10.3125,16.3505 10.4275,17.0065 10.75,17.0065 L11.75,17.0065 C11.75,17.0065 12.2905,16.8055 12.6555,16.0165 C13.0205,15.228 16,10.25 16,10.25 L14.75,16.25 C14.75,16.25 14.5,17.0065 15.205,17.0065 L16.25,16.9985 C16.25,16.9985 16.8015,17.1755 17,16 L18.4775,7.8525 C18.4775,7.8525 18.6745,7 18,7 L16,7 C16,7 15.5695,6.9175 15.205,7.786 C14.841,8.6545 12,13.5 12,13.5 L11.011,7.666 C11.011,7.666 11.011,7.0135 10.25,7.0135 L8.5,7.0135 C7.75,7.0135 7.75,7.786 7.75,7.786 Z"/>
</svg>
