<svg width="24" height="24" viewBox="0 0 48 48" role="img">
  <g fill-rule="evenodd"><path d="M45.32 11.1c-.5-1.04-1.1-2.05-1.78-3l-7.26 2.64c.84.86 1.55 1.84 2.13 2.88l6.92-2.52zM13.2 19.14l-7.26 2.64c.1 1.17.3 2.32.57 3.45l6.92-2.52c-.23-1.15-.3-2.36-.22-3.56z"/><path d="M29.33 9.05c1.5.7 2.82 1.66 3.93 2.8l7.26-2.65c-2-2.83-4.75-5.2-8.1-6.75C22-2.4 9.6 2.1 4.78 12.5c-1.58 3.36-2.16 6.93-1.9 10.38l7.28-2.64c.12-1.57.5-3.15 1.2-4.66 3.15-6.75 11.2-9.68 17.95-6.53M37.08 22.32c-.12 1.58-.5 3.15-1.22 4.67-3.15 6.74-11.2 9.66-17.94 6.52-1.52-.7-2.84-1.66-3.94-2.8l-7.25 2.65c2 2.82 4.75 5.18 8.1 6.75 10.4 4.84 22.8.33 27.63-10.06 1.57-3.35 2.15-6.92 1.87-10.38l-7.25 2.64z"/><path d="M38.87 13.45l-6.9 2.5c1.28 2.3 1.88 4.96 1.68 7.62l7.25-2.64c-.2-2.6-.9-5.14-2.03-7.48m-31.9 11.6L.06 27.6c.62 2.5 1.72 4.9 3.24 7.03l7.26-2.63c-1.86-1.9-3.1-4.33-3.6-6.9"/></g>
</svg>
