<svg width="24" height="24" viewBox="0 0 48 48" role="img">
  <g fill-rule="evenodd"><path d="M.05 25c0 6.96 10.72 12.6 23.94 12.6 13.2 0 23.92-5.64 23.92-12.6 0-6.94-10.7-12.58-23.93-12.58S.04 18.06.04 25.02zM24 36.68c12.7 0 23-5.22 23-11.66 0-6.43-10.3-11.65-23-11.65C11.27 13.35.97 18.57.97 25c0 6.45 10.3 11.67 23 11.67z"/><path d="M13.05 26.46c1.05 0 1.83-.2 2.32-.58.5-.37.83-1.02 1-1.93.17-.85.1-1.44-.18-1.76-.3-.34-.95-.5-1.9-.5H12.6l-.92 4.76h1.35zM7.6 32.32c-.08 0-.16-.03-.2-.1-.06-.05-.08-.13-.06-.2L9.8 19.38c.02-.13.12-.22.25-.22h5.28c1.66 0 2.9.45 3.68 1.34.8.9 1.03 2.15.73 3.72-.13.64-.34 1.23-.64 1.77s-.7 1.03-1.18 1.47c-.57.54-1.22.93-1.93 1.16-.7.22-1.6.34-2.65.34H11.2l-.6 3.14c-.03.13-.13.22-.26.22H7.6zM26.03 28.97c-.08 0-.15-.04-.2-.1-.05-.06-.07-.14-.06-.2l1.1-5.6c.1-.53.07-.9-.08-1.07-.1-.1-.38-.26-1.2-.26h-1.96l-1.36 7.02c-.03.12-.13.2-.26.2H19.3c-.08 0-.15-.03-.2-.1-.05-.05-.07-.13-.06-.2l2.45-12.62c.02-.12.12-.2.25-.2h2.73c.07 0 .15.02.2.08.05.06.07.14.05.22l-.6 3.04h2.12c1.6 0 2.7.3 3.34.87.64.6.84 1.55.6 2.83l-1.15 5.88c-.02.12-.13.2-.25.2h-2.77zM34.5 26.46c1.05 0 1.83-.2 2.33-.58.5-.37.82-1.02 1-1.93.16-.85.1-1.44-.2-1.76-.28-.34-.92-.5-1.88-.5h-1.67l-.93 4.76h1.36zm-5.45 5.86c-.08 0-.15-.03-.2-.1-.05-.05-.07-.13-.05-.2l2.45-12.63c.02-.13.13-.22.25-.22h5.3c1.65 0 2.9.45 3.66 1.34.8.9 1.03 2.15.72 3.72-.12.64-.34 1.23-.63 1.77-.3.54-.7 1.03-1.17 1.47-.58.54-1.23.93-1.93 1.16-.7.22-1.58.34-2.64.34h-2.14l-.6 3.14c-.03.13-.14.22-.26.22h-2.75z"/></g>
</svg>
