<svg width="24" height="24" viewBox="0 0 24 24" role="img">
  <path d="M8.6 10.3c-.8.2-1.5.7-1.7 1.2-.6 1-.8 2.6.5 3.6 1.3 1.2 3.6 0 3.7 0l-.8-1c-.6.4-1.3.5-2 .3-.7-.4-.8-1.7-.4-2.3.5-.6 2-1 3 .4 1 1.5 2 2.6 3.3 3 1.4.6 3.3-.4 3.5-2 0-1.6-.4-2.3-1.5-3h-.6c0-1-.7-2-1.4-2.5-1-.8-2.4-1-3.8-.4-1.4.7-1.7 2-2 2.7zm1.3 0c.2-1.3.8-1.8 2.3-1.8 1.4 0 2 1 2 2l-1 .5.7 1s.7-.5 1.4-.5c.6 0 1.3.6 1.2 1.7 0 .4-.3 1-1.2 1.2-1 .2-1.6-.5-2.6-1.7s-1.2-1.5-2.5-2.2l-.4-.2zM12 22C6.5 22 2 17.5 2 12S6.5 2 12 2s10 4.5 10 10-4.5 10-10 10z"/>
</svg>
