<svg width="24" height="24" viewBox="0 0 48 48" role="img">
  <path d="M33.733 11.05h3.814c2.933 0 4.4 2.15 5.084 5.18.98 4.108 1.08 7.14 0 10.366-.974 3.128-2.15 5.182-5.08 5.182H22.2v1.466h10.26v3.912c0 2.933-2.542 4.4-5.182 5.182-3.91 1.075-6.942.978-10.17 0-2.737-.782-5.18-2.445-5.18-5.182v-9.778c0-2.836 2.346-5.182 5.18-5.182h10.17c3.422 0 6.453-2.934 6.453-6.552V11.05zM17.11.49c-4.4.78-5.18 2.346-5.18 5.28v3.91h10.266v1.37H8.018c-2.934 0-5.476 1.76-6.356 5.18-.978 3.912-.978 6.357 0 10.366.782 3.03 2.542 5.182 5.476 5.182h3.618v-4.694c0-3.324 2.933-6.355 6.453-6.355h10.165c2.933 0 5.182-2.35 5.182-5.186v-9.68c0-2.738-2.828-4.843-5.183-5.378C25.852.196 23.76 0 22 0c-1.64.026-3.276.19-4.89.49zm-.683 2.737c.977 0 1.955.88 1.955 1.955 0 .52-.206 1.016-.573 1.383s-.868.573-1.386.573c-.978 0-1.956-.978-1.956-1.956 0-1.075.98-1.955 1.956-1.955z"/>
</svg>
