<svg width="48" height="48" viewBox="0 0 48 48" role="img">
  <path d="M1 19.08h4.45v.24a11.1 11.1 0 0 1 3.3-.3c.8.08 1.53.46 2.25.84-.8.56-1.63 1.1-2.42 1.68-.88-.75-2.08-.75-3.1-.42-.02.12-.03.24-.03.37V30H1V19.08zM11 19h4.23c2.1-.01 4.22.25 6.17 1.02a6.42 6.42 0 0 1 3.07 2.3c.53.85.72 1.94.3 2.86a5.55 5.55 0 0 1-2.6 2.46c-1.96 1-4.14 1.54-6.35 1.63v2.1L11 32V19zm5 1v8a7.12 7.12 0 0 0 2.88-1.08c.98-.62 1.85-1.46 2.08-2.5.2-1.03-.4-2.05-1.24-2.78A6.63 6.63 0 0 0 16 20zm10-1h15.41c1.5 0 3.03.02 4.5.45.41.15.97.34 1.08.88.01 3.22 0 6.45 0 9.67h-4.48v-9.6c-.26-.26-.65-.24-.99-.29-.92-.03-1.84 0-2.76-.01V30h-4.5v-7.93c0-.58.03-1.16-.02-1.73-.42-.2-.88-.24-1.33-.24h-2.4L30.5 30H26c.02-3.64 0-7.35 0-11z"/>
</svg>
