<svg width="24" height="24" viewBox="0 0 24 24" role="img">
  <path d="M18.35 1l-6.08 1.4.95.25L18.35 1zm-3.3 1.83l6.85 1.23-1.42-3-5.43 1.77zm-7.5 2.7L3.65 9.9 2 12.96l1.18 1 4.14-2.6 4.6-5.12 1.06-2.88-1.65-.47-3.78 2.64zm5.08.7l7.55-1.93-6.43-1-1.12 2.94zm4.2 7.8l5.95 8-.82-17.6-5.14 9.6zm-3.9-7.2l3.48 6.54 4.67-8.72-8.15 2.18zM7.96 11.6l7.8 1.72-3.5-6.5-4.3 4.8zm-4.55 2.95l2.7 5.42 1.14-7.9-3.84 2.48zm3.25 6.6l9.26-7.3-8.02-1.7-1.23 9zM1 20.2h.06v.36l1.9-5.9-1.25-1-.7 6.55zm6.32 1.36l14.87.6-5.8-7.78-9.08 7.18zm-6.14.53l5-.65-2.94-5.96-2.06 6.6zm5.37 0l-4.96.58 19.18-.06-14.1-.6-.13.07z" fill-rule="evenodd"/>
</svg>
