<svg width="24" height="24" viewBox="0 0 24 24" role="img">
  <path d="M9.21668924,23 L14.7883056,23 C14.8028474,22.9620172 14.8130564,22.9219053 14.818336,22.8801698 L15.2480622,19.918861 C15.9378859,19.6394922 16.5711667,19.2595506 17.1592131,18.8237353 L19.9750507,19.9412105 C20.2351481,20.0417833 20.5291713,19.9412105 20.6648744,19.695366 L22.9265913,15.8289017 C23.0622943,15.5830572 23.0057514,15.2813389 22.7908883,15.1137176 L20.4047769,13.2698835 C20.4500113,12.9122914 20.483937,12.5546993 20.483937,12.1747578 C20.483937,11.7948162 20.4500113,11.4372241 20.4047769,11.079632 L22.7908883,9.23579794 C23.0057514,9.06817666 23.0622943,8.76645276 22.9265913,8.52060821 L20.6648744,4.65414396 C20.5291713,4.40829941 20.2238396,4.31890139 19.9750507,4.40829941 L17.1592131,5.52577463 C16.5711667,5.07878454 15.9378859,4.71001772 15.2480622,4.43064892 L14.818336,1.46933959 C14.7844089,1.20114554 14.5469286,1 14.264214,1 L9.74078004,1 C9.45806542,1 9.22058514,1.20114554 9.18665939,1.46933959 L8.75693317,4.43064892 C8.06710949,4.71001772 7.43382874,5.08995929 6.84578234,5.52577463 L4.02994472,4.40829941 C3.76984727,4.30772664 3.47582407,4.40829941 3.34012105,4.65414396 L1.07840423,8.52060821 C0.93139263,8.76645276 0.999244139,9.06817666 1.21410725,9.23579794 L3.6002185,11.079632 C3.55498416,11.4372241 3.52105841,11.8059909 3.52105841,12.1747578 C3.52105841,12.5435246 3.55498416,12.9122914 3.6002185,13.2698835 L1.21410725,15.1137176 C0.999244139,15.2813389 0.942701215,15.5830572 1.07840423,15.8289017 L3.34012105,19.695366 C3.47582407,19.9412105 3.78115586,20.0306085 4.02994472,19.9412105 L6.84578234,18.8237353 C7.43382874,19.2707254 8.06710949,19.6394922 8.75693317,19.918861 L9.18665939,22.8801698 C9.19193881,22.9219053 9.20214764,22.9620172 9.21668924,23 L9.21668924,23 Z M11.9999993,15.6666667 C9.97809494,15.6666667 8.33333333,14.0219059 8.33333333,12.0000026 C8.33333333,9.9780993 9.97809494,8.33333333 11.9999993,8.33333333 C14.0219037,8.33333333 15.6666667,9.9780993 15.6666667,12.0000026 C15.6666667,14.0219059 14.0219037,15.6666667 11.9999993,15.6666667 Z"/>
</svg>
