<svg width="24" height="24" viewBox="0 0 24 24" role="img">
  <path d="M12.2276499,0.123616094 C9.18701249,0.601703744 5.12326747,2.04552844 3.22047862,3.32680335 C2.40772962,3.87182327 1.35593679,4.96186311 0.916096152,5.70767984 C0.285020455,6.79771968 0.0651001359,7.65827745 0.00772961795,9.24552844 C-0.059202653,11.3682376 0.304143961,13.366644 1.26988101,16.2829786 C2.6563352,20.4232177 4.39657424,22.6893531 6.844383,23.5403492 C7.82924356,23.8845723 8.77585711,23.9993133 10.1240643,23.9419428 C11.5870125,23.8750105 12.6101201,23.702899 14.4651001,23.1961261 C16.9511559,22.5268033 19.1312356,21.6279986 20.546375,20.7100703 C21.5312356,20.0694328 22.7264547,18.7977197 23.1567336,17.9467237 C23.7304388,16.7993133 23.9121121,15.919632 23.9216738,14.3610663 C23.9312356,12.8407476 23.8260563,12.0662456 23.3575304,10.1443332 C22.6977695,7.41923362 21.5981679,4.71325753 20.5368133,3.16425354 C19.5328292,1.71086709 18.1654985,0.697321273 16.6260563,0.257480636 C15.669881,-0.0198102007 13.5280483,-0.0867424716 12.2276499,0.123616094 Z M13.6714746,4.71325753 C13.8627097,4.89493084 14.044383,5.2678392 14.2547416,5.8989149 L14.5511559,6.82640494 L15.5264547,6.51086709 C16.3392037,6.24313801 16.559124,6.20489099 16.8364149,6.28138502 C17.4196818,6.44393482 17.8117137,7.07501052 17.7065344,7.65827745 C17.6109169,8.12680335 17.2093232,8.43277944 16.3009567,8.72919378 C15.8324308,8.88218183 15.4308372,9.05429338 15.4117137,9.12122566 C15.3447814,9.30289896 16.3392037,12.2096719 16.4635065,12.2096719 C16.5304388,12.2096719 16.9798412,12.0758073 17.4674906,11.9132575 C18.4427894,11.5881579 18.6531479,11.5977197 19.1025503,11.970628 C19.5232675,12.3339747 19.6380085,12.7546918 19.4372117,13.2519029 C19.2555384,13.7108671 18.9495623,13.9212257 17.9742635,14.2272018 C17.5917934,14.3515045 17.2475703,14.5044926 17.2284467,14.5714249 C17.1997615,14.6383571 17.3145025,15.0973213 17.4866141,15.6040942 C17.8308372,16.6272018 17.8117137,16.9236161 17.4101201,17.3060862 C16.8746619,17.8224209 16.2531479,17.8415444 15.7750603,17.3730185 C15.6125105,17.2104687 15.4021519,16.7610663 15.2013551,16.1873611 C15.0101201,15.6423412 14.8380085,15.2789946 14.7710762,15.2981181 C14.7137057,15.3172416 13.9870125,15.5658472 13.1647017,15.8335763 C12.3328292,16.1108671 11.6539448,16.3881579 11.6539448,16.4455284 C11.6539448,16.5124607 11.7878093,16.9618631 11.9503591,17.4590743 C12.2372117,18.3100703 12.2467734,18.3865643 12.1224707,18.7499109 C11.8738651,19.4766041 11.0802396,19.7730185 10.4396021,19.3809866 C10.0762555,19.170628 9.95195273,18.9315842 9.60772962,17.8893531 L9.34956229,17.1052894 L8.36470173,17.430389 C7.76231129,17.6216241 7.29378539,17.7268033 7.1503591,17.6885563 C6.14637504,17.430389 5.8690842,16.2160464 6.6818332,15.5849707 C6.75832723,15.5180384 7.22685312,15.3363651 7.71450253,15.1642535 C8.24996069,14.9825802 8.5941838,14.8200304 8.56549854,14.7530982 C8.54637504,14.6957276 8.31689296,14.0264049 8.06828739,13.2614647 C7.81968181,12.4965245 7.58063798,11.8367635 7.54239097,11.7889547 C7.49458221,11.7507077 7.04517982,11.8463253 6.52884516,12.0184368 C5.63960213,12.3148512 5.57266986,12.3244129 5.20932324,12.2001101 C4.72167384,12.0279986 4.38701249,11.5594727 4.38701249,11.043138 C4.38701249,10.4694328 4.81729137,10.0869627 5.82127543,9.77142486 C6.27067783,9.62799856 6.6627097,9.48457227 6.70095671,9.44632526 C6.73920372,9.40807825 6.62446269,8.93955235 6.45235113,8.39453243 C6.20374555,7.62003044 6.14637504,7.3427396 6.21330731,7.11325753 C6.40454237,6.43437307 7.14079735,6.05190295 7.76231129,6.31007028 C8.19259018,6.49174358 8.42207225,6.8550902 8.7567336,7.87819777 C8.9001599,8.3180384 9.04358619,8.67182327 9.0818332,8.67182327 C9.14876547,8.67182327 12.2563352,7.62003044 12.2945822,7.58178342 C12.3137057,7.56265992 12.1894029,7.17062805 12.0268531,6.70210215 C11.6921918,5.71724159 11.6635065,5.35389498 11.9025503,4.95230135 C12.2754587,4.32122566 13.1455782,4.20648462 13.6714746,4.71325753 L13.6714746,4.71325753 Z M11.4149009,10.3738153 C10.5734667,10.6606679 9.86589695,10.9188352 9.83721169,10.9379587 C9.76071767,11.004891 10.8411958,14.1220225 10.9368133,14.0933372 C10.984622,14.0742137 11.720877,13.8256081 12.5623113,13.5483173 C13.4037456,13.2710265 14.1017535,13.0319826 14.1113153,13.0224209 C14.159124,12.9841739 13.0690842,9.81923362 13.0117137,9.82879538 C12.9734667,9.82879538 12.2563352,10.077401 11.4149009,10.3738153 L11.4149009,10.3738153 Z"/>
</svg>
