<svg width="24" height="24" viewBox="0 0 24 24" role="img">
  <path d="M15.17 14.16c.03.75.42.75.9.73.62-.02.97-.22 1.3-.06-.02-.02-.12-.32-.56-.27.07-.1.1-.26.07-.47-.06-.75-.48-1.34-.96-1.32-.46 0-.76.63-.73 1.38zm.7-.9c.06 0 .13.02.17.06.05.05.07.1.07.17.02.13-.1.24-.22.24-.13 0-.24-.1-.25-.24 0-.06.03-.13.07-.17.05-.05.1-.08.17-.08zM8.72 15H9c.48 0 .87.04.87-.7 0-.76-.34-1.36-.8-1.36-.48 0-.93.62-.9 1.37 0 .2.03.33.07.44-.4.1-.52.36-.53.37.27-.14.56-.12 1.02-.12zm.4-1.6c.14 0 .25.12.25.25s-.1.25-.23.25c-.06 0-.13-.02-.17-.07-.05-.04-.08-.1-.08-.17 0-.06 0-.12.06-.17.04-.04.1-.07.17-.07zm1.1-7.96h1.33V4.9h.3v2.56h-.45v1.42h2.32V7.46h-.45V4.9h.3v.56h1.32v-1.9h-4.67v1.9z"/><path d="M22.5 9.4l-.05-.5-.05-.24c0-.1-.03-.16-.05-.26l-.02-.06-.05-.04c-.25-.2-.53-.35-.82-.5l-.7-.3c-.67-1.86-1.82-3.52-3.33-4.67C15.86 1.63 14.03 1 12.1 1c-1.9 0-3.74.63-5.3 1.83-1.2.9-2.15 2.13-2.84 3.52-.18.38-.35.77-.5 1.16l-.7.3c-.3.15-.56.3-.82.5l-.05.04-.02.06c-.03.1-.05.17-.06.26l-.04.24-.04.36v.14c-.02.33 0 .66.02 1 .04.32.1.64.18.96l.16.48.1.23.06.12.03.05c0 .02 0 .04.03.06l.04.07.05.02.15.07.14.06c.04 0 .07.03.1.04-.67.62-1.4 1.42-2 2.4L0 16.24l1.1-.98c.03 0 .95-.82 2.5-1.74l.02.2.06.44.28 2.32c0 .05.03.1.06.1l.6.42v.1l.06.14.13.4c.3.9.7 1.74 1.2 2.46 0 0-.04 0-.06.02l-1.7-.8-.75-.33.43.7c.03.04.78 1.23 1.4 2.03.58.75 1.37 1.5 2.86 1.5.18 0 .37 0 .55-.02l1.04-.13c1.55.58 3.28.62 4.92 0 .43-.17.84-.38 1.23-.62h.02c.6-.15 1.3-.32 1.65-.42l.2-.04c.47-.1 1.26-.3 1.7-1.15.4-.85 1.1-2.17 1.12-2.2l.32-.6-.63.28c-.04 0-.84.37-1.26.6h-.05c.34-.7.5-1.25.57-1.46l.22-.95.66-1.5.2-1.62.06-.62c.06-.02.4-.05.48-.08l.3-.12.14-.06.15-.08.06-.03.03-.06.03-.05.03-.06.06-.13.1-.23c.06-.16.12-.32.16-.48.1-.32.15-.65.18-.97.04-.34.05-.67.03-1zm-15.07 4s.6-.4 1.57-.87c1.06-.08 2.12-.12 3.18-.12l.8.02c-.17.15-.37.3-.58.42l-.68.42c-.43.05-.8.16-.83.17h-.04c-.04.03-.06.06-.07.1l-.7 2.32-3.75.84-1.17-.84-.34-2.8c.66-.12 1.56-.26 2.63-.38-.12.14-.23.28-.33.43l-.64.94.93-.63zm5.04 9.73c-.62.04-1.25-.03-1.86-.2.06 0 .1 0 .15-.02.05 0 1.14-.14 1.64-.88h.39l.54-.1.06.07c.37.36.83.57 1.34.6-.85.36-1.66.5-2.27.53zm.05-1.36c.1-.2.16-.37.22-.5l.4.45-.36.04h-.26zm-1.83-4.8l.32-.07c.06 0 .1-.05.12-.1l.7-2.32.3-.02c.1 0 .2 0 .33.02l.72 2.4c0 .05.06.1.12.1l.26.03h.07l4.6.54c.02 0 .06 0 .1-.03l.45-.3.43-.3.16-.12-.1.32c-.04.14-.1.28-.13.42-.2.54-.4 1.03-.63 1.47h-.2c-.23 0-.45-.02-.7-.04l-1.35-.15c-.2-.14-.84-.65-1.37-1.08-.02 0-.04-.03-.06-.05-.1-.08-.2-.17-.42-.17-.2 0-.48.08-1.18.3.36-.3.37-.64.37-.64s-.52.5-1.35.6c-.84.1-1.5-.4-1.5-.4.04.08.08.28.26.45-.22-.02-.46-.03-.7-.03h-.28c-.5.03-1.23.8-1.73 1.6l-1.92.6c-.53-.75-.9-1.5-1.1-1.98-.1-.3-.17-.5-.2-.53 0-.05-.02-.1-.04-.15l.2.16.54.37.18.13c.02.02.05.03.1.03h.02l4.55-1.02zm2.82-3.44c-.02-.05-.06-.1-.1-.1-.03 0-.5-.14-.98-.2h.1c.06 0 1.35-.16 2.9-.7 1.7.14 3.07.35 4.02.52l-.33 2.38-1.2.84-3.72-.43-.68-2.3zm8.18-3.2c-.04.3-.18.9-.18.9l-.1.02c-.06-.02-.58-.15-1.5-.32.04 0 .07 0 .1-.02.18-.04.37-.1.55-.17l.26-.13c.08-.04.16-.1.23-.17-.9.3-2.78.16-4.44 0-1.5-.17-3.04-.27-4.57-.27-1.53 0-3.05.1-4.57.26-1.66.17-3.53.3-4.43 0 .06.08.14.14.23.18.08.05.17.1.26.13.18.07.36.13.55.18.05.03.12.04.2.05-.84.16-1.3.28-1.37.3 0 0-.2.03-.23-.12-.08-.3-.13-.5-.18-.8-.04-.3-.05-.6-.05-.92v-.14-.3c.02-.1.3-.33.54-.47.26-.16.54-.3.8-.42.3-.14 1.17-.32 1.7-.42.54-.1 2.45-.36 2.6-.4.14-.07.96-.7 1.1-.76-.3.05-4.5.7-4.68.76 1.36-3.6 4.04-5.34 7.6-5.34 3.55 0 6.22 1.65 7.6 5.24-1.8-.48-4.3-.7-4.6-.76.14.05.95.63 1.1.65 1.25.17 3.2.6 3.35.66l.84.38c.3.12.56.26.82.4.24.15.5.4.52.47l.02.46c0 .32-.02.63-.06.93z"/>
</svg>
