<svg width="24" height="24" viewBox="0 0 24 24" role="img">
  <path d="M22.2133325,5.66095442 C21.4910743,6.00532309 20.7148927,6.23806721 19.9002251,6.34274417 C20.7317662,5.80685372 21.370303,4.95832191 21.6710106,3.94729379 C20.8928903,4.44342861 20.0309769,4.80377672 19.1136322,4.99800035 C18.3789522,4.15649332 17.3322918,3.63063827 16.173979,3.63063827 C13.9497627,3.63063827 12.1465227,5.56924629 12.1465227,7.96037373 C12.1465227,8.2997247 12.1822083,8.6301982 12.2508512,8.9470853 C8.9037206,8.76652527 5.93620813,7.04275204 3.9498725,4.42320341 C3.60321156,5.06269009 3.40460672,5.80646774 3.40460672,6.59995924 C3.40460672,8.10210448 4.11566375,9.42739507 5.19628662,10.2038264 C4.53606554,10.1813625 3.91512025,9.98659853 3.37208033,9.66230066 C3.37179312,9.68036439 3.37179312,9.6985053 3.37179312,9.71672342 C3.37179312,11.8145855 4.76001655,13.5646052 6.6023888,13.9623159 C6.26441591,14.0612804 5.90863609,14.1141592 5.54129612,14.1141592 C5.28180302,14.1141592 5.02949015,14.0870637 4.78363947,14.0365007 C5.29609166,15.7567229 6.7834021,17.0085235 8.54571491,17.043493 C7.16740018,18.2047434 5.43086436,18.8969545 3.54404656,18.8969545 C3.21899807,18.8969545 2.89840132,18.8764977 2.58333333,18.8365105 C4.36560715,20.0649981 6.48255095,20.7817573 8.75688514,20.7817573 C16.1645729,20.7817573 20.2153649,14.1840983 20.2153649,8.4624526 C20.2153649,8.27471339 20.2114876,8.08797772 20.203733,7.90232279 C20.9905413,7.29186159 21.6733801,6.52924825 22.2133325,5.66095442"/>
</svg>
