<svg width="24" height="24" viewBox="0 0 24 24" role="img">
  <path d="M23.3497585,18.6069619 C22.1864199,18.8762033 21.5974797,19.1241888 20.1578482,20.0381925 C17.9038797,21.4552525 15.4463269,22.1141854 15.4463269,22.1141854 C15.4463269,22.1141854 15.2427426,22.411768 14.6538025,22.5463886 C13.6358812,22.7872888 9.80413472,22.9927625 9.45513315,22.9998478 C8.51719141,23.0069331 7.94279298,22.7660329 7.78283392,22.3905121 C7.29568589,21.2568641 8.48083708,20.7608931 8.48083708,20.7608931 C8.48083708,20.7608931 8.21908589,20.6050165 8.0663977,20.4633105 C7.92825124,20.3286898 7.78283392,20.0594484 7.73920872,20.1586426 C7.55743707,20.5908459 7.46291581,21.6465556 6.97576777,22.1212707 C6.30684808,22.7802035 5.04171736,22.5605592 4.29281814,22.1779531 C3.47121026,21.7528351 4.35098507,20.7538078 4.35098507,20.7538078 C4.35098507,20.7538078 3.90746224,21.0088786 3.55118979,20.4845664 C3.23127168,20.002766 2.93316616,19.1808712 3.01314569,18.1676733 C3.11493782,16.9985989 4.43823547,15.8791215 4.43823547,15.8791215 C4.43823547,15.8791215 4.20556775,14.1715642 4.9690087,12.4214951 C5.65974099,10.8273027 7.52108274,9.5448634 7.52108274,9.5448634 C7.52108274,9.5448634 5.9578465,7.86564733 6.5395158,6.34230786 C6.91760084,5.35036588 7.07028903,5.35745118 7.19389376,5.31493938 C7.63014573,5.15197748 8.05185597,4.97484499 8.36450322,4.64183589 C9.92773945,2.99804632 11.9199568,3.30979952 11.9199568,3.30979952 C11.9199568,3.30979952 12.8506277,0.52527667 13.7231316,1.07084476 C13.9921537,1.24089196 14.9591789,3.33814072 14.9591789,3.33814072 C14.9591789,3.33814072 15.9916419,2.75006083 16.1079757,2.96970512 C16.7332702,4.1529502 16.8059789,6.41316086 16.529686,7.78770903 C16.0643505,10.055005 14.9010119,11.2736766 14.4356765,12.0388889 C14.3266135,12.2160214 15.6862655,12.7757601 16.5442277,15.0926532 C17.3367521,17.2111579 16.6314781,18.9895681 16.7550828,19.1879565 C16.7768954,19.223383 16.7841663,19.2375536 16.7841663,19.2375536 C16.7841663,19.2375536 17.6930246,19.3084066 19.518012,18.2101851 C20.492308,17.6221052 21.6483758,16.9631724 22.9644025,16.9490018 C24.2368041,16.9277459 24.3022419,18.3873176 23.3497585,18.6069619 L23.3497585,18.6069619 Z"/>
</svg>
