<svg width="24" height="24" viewBox="0 0 24 24" role="img">
  <path d="M9.93126163,14.5845743 L9.93034183,8.99604388 L15.3317222,11.8000452 L9.93126163,14.5845743 L9.93126163,14.5845743 Z M21.7903835,8.02790401 C21.7903835,8.02790401 21.5950728,6.65727312 20.9956761,6.05369236 C20.2355297,5.26150357 19.3834815,5.25757018 18.9927425,5.2112068 C16.1954342,5.01000023 11.9993249,5.01000023 11.9993249,5.01000023 L11.9906357,5.01000023 C11.9906357,5.01000023 7.7946243,5.01000023 4.99721812,5.2112068 C4.60645956,5.25757018 3.75472451,5.26150357 2.9943041,6.05369236 C2.39494658,6.65727312 2.19990978,8.02790401 2.19990978,8.02790401 C2.19990978,8.02790401 2,9.63747866 2,11.2470338 L2,12.7559955 C2,14.3655312 2.19990978,15.9750863 2.19990978,15.9750863 C2.19990978,15.9750863 2.39494658,17.3457367 2.9943041,17.9493175 C3.75472451,18.7415257 4.75358847,18.716465 5.19847824,18.7994946 C6.7976978,18.952079 11.9949999,18.9992991 11.9949999,18.9992991 C11.9949999,18.9992991 16.1954342,18.9930096 18.9927425,18.7918225 C19.3834815,18.7454396 20.2355297,18.7415257 20.9956761,17.9493175 C21.5950728,17.3457367 21.7903835,15.9750863 21.7903835,15.9750863 C21.7903835,15.9750863 21.9899998,14.3655312 21.9899998,12.7559955 L21.9899998,11.2470338 C21.9899998,9.63747866 21.7903835,8.02790401 21.7903835,8.02790401 L21.7903835,8.02790401 Z"/>
</svg>
