<svg width="16" height="14" viewBox="0 0 16 14" fill="none" xmlns="http://www.w3.org/2000/svg">
<path d="M14.4984 10.9595C14.4984 11.659 14.3016 12.1709 13.9053 12.5007C13.5445 12.7993 12.9893 12.9642 12.2372 12.9983C12.111 13.004 12.005 12.8903 12.005 12.7481V12.0116C12.005 11.8808 12.0959 11.7756 12.2095 11.7643C12.4896 11.7358 12.7167 11.6534 12.8883 11.5169C13.1003 11.3491 13.2038 11.0591 13.2038 10.6467V8.8838C13.2038 8.34068 13.3098 7.92266 13.5193 7.62698C13.7312 7.33123 14.0795 7.135 14.5691 7.04117V6.96158C13.658 6.78811 13.2013 6.25356 13.2013 5.36071V3.36452C13.2013 2.99771 13.1104 2.71905 12.9287 2.53422C12.7773 2.37784 12.535 2.27833 12.2019 2.23854C12.0883 2.22429 12 2.1191 12 1.98826V1.24896C12 1.10682 12.106 0.993062 12.2297 0.998739C12.9968 1.02718 13.5596 1.19781 13.9129 1.50775C14.3016 1.8518 14.4959 2.41195 14.4959 3.1911V5.12184C14.4959 5.57108 14.6221 5.88958 14.8745 6.07725C15.0889 6.23647 15.3943 6.3303 15.788 6.35307C15.9066 6.36158 16 6.46966 16 6.60328V7.4023C16 7.53598 15.9066 7.64401 15.788 7.65252C15.4019 7.67812 15.099 7.76912 14.882 7.93118C14.6246 8.12174 14.4959 8.44303 14.4959 8.89516V10.9595H14.4984Z" fill="#38356A"/>
<path d="M1.50313 3.03756C1.50313 2.33804 1.69988 1.8262 2.09582 1.49634C2.45651 1.19781 3.01132 1.03285 3.76293 0.998739C3.889 0.993062 3.99493 1.10682 3.99493 1.24896V1.98542C3.99493 2.11626 3.90416 2.22145 3.79067 2.2328C3.51071 2.26124 3.28373 2.34372 3.11223 2.48018C2.90037 2.64798 2.79697 2.93799 2.79697 3.35033V5.11327C2.79697 5.65639 2.69104 6.07441 2.48171 6.37009C2.26985 6.66868 1.92183 6.86491 1.43254 6.95874V7.03833C2.34297 7.2118 2.79951 7.74635 2.79951 8.63926V10.6354C2.79951 11.0022 2.89028 11.2809 3.07187 11.4657C3.22318 11.6221 3.46532 11.7216 3.79823 11.7614C3.91172 11.7756 4 11.8808 4 12.0116V12.7481C4 12.8903 3.89407 13.004 3.77049 12.9983C3.00377 12.9699 2.44135 12.7993 2.08826 12.4893C1.69988 12.1453 1.50566 11.5851 1.50566 10.806V8.87523C1.50566 8.426 1.37955 8.10749 1.12737 7.91983C0.912971 7.7606 0.607802 7.66677 0.214399 7.64401C0.0933054 7.63549 0 7.52741 0 7.39379V6.59477C0 6.46109 0.0933053 6.35306 0.211863 6.34455C0.597711 6.31895 0.900394 6.22796 1.11728 6.06589C1.37453 5.87533 1.50313 5.55405 1.50313 5.10191V3.03756Z" fill="#38356A"/>
<rect x="9" y="0.828125" width="1.7289" height="12.3412" rx="0.864452" transform="rotate(15 9 0.828125)" fill="#38356A"/>
</svg>
