<svg width="16" height="16" viewBox="0 0 16 16" fill="none" xmlns="http://www.w3.org/2000/svg">
<path d="M13.4984 11.961C13.4984 12.6605 13.3016 13.1723 12.9053 13.5022C12.5445 13.8007 11.9893 13.9657 11.2372 13.9998C11.111 14.0055 11.005 13.8917 11.005 13.7496V13.0131C11.005 12.8823 11.0959 12.7771 11.2095 12.7657C11.4896 12.7373 11.7167 12.6548 11.8883 12.5184C12.1003 12.3506 12.2038 12.0605 12.2038 11.6482V9.88527C12.2038 9.34214 12.3098 8.92413 12.5193 8.62844C12.7312 8.3327 13.0795 8.13646 13.5691 8.04263V7.96305C12.658 7.78957 12.2013 7.25502 12.2013 6.36217V4.36598C12.2013 3.99917 12.1104 3.72051 11.9287 3.53569C11.7773 3.3793 11.535 3.27979 11.2019 3.24C11.0883 3.22575 11 3.12057 11 2.98972V2.25042C11 2.10828 11.106 1.99453 11.2297 2.0002C11.9968 2.02864 12.5596 2.19928 12.9129 2.50921C13.3016 2.85326 13.4959 3.41342 13.4959 4.19257V6.12331C13.4959 6.57254 13.6221 6.89105 13.8745 7.07871C14.0889 7.23794 14.3943 7.33177 14.788 7.35453C14.9066 7.36304 15 7.47112 15 7.60475V8.40377C15 8.53745 14.9066 8.64547 14.788 8.65399C14.4019 8.67959 14.099 8.77058 13.882 8.93264C13.6246 9.1232 13.4959 9.44449 13.4959 9.89662V11.961H13.4984Z" fill="#7169DE"/>
<path d="M2.50313 4.03902C2.50313 3.33951 2.69988 2.82766 3.09582 2.4978C3.45651 2.19928 4.01132 2.03432 4.76293 2.0002C4.889 1.99453 4.99493 2.10828 4.99493 2.25042V2.98689C4.99493 3.11773 4.90416 3.22291 4.79067 3.23427C4.51071 3.26271 4.28373 3.34519 4.11223 3.48165C3.90037 3.64944 3.79697 3.93945 3.79697 4.35179V6.11473C3.79697 6.65786 3.69104 7.07587 3.48171 7.37156C3.26985 7.67014 2.92183 7.86638 2.43254 7.96021V8.03979C3.34297 8.21327 3.79951 8.74782 3.79951 9.64073V11.6369C3.79951 12.0037 3.89028 12.2823 4.07187 12.4672C4.22318 12.6235 4.46532 12.723 4.79823 12.7629C4.91172 12.7771 5 12.8823 5 13.0131V13.7496C5 13.8917 4.89407 14.0055 4.77049 13.9998C4.00377 13.9714 3.44135 13.8007 3.08826 13.4908C2.69988 13.1467 2.50566 12.5866 2.50566 11.8074V9.8767C2.50566 9.42746 2.37955 9.10896 2.12737 8.92129C1.91297 8.76207 1.6078 8.66823 1.2144 8.64547C1.09331 8.63696 1 8.52888 1 8.39525V7.59623C1 7.46255 1.09331 7.35453 1.21186 7.34602C1.59771 7.32041 1.90039 7.22942 2.11728 7.06736C2.37453 6.8768 2.50313 6.55551 2.50313 6.10338V4.03902Z" fill="#7169DE"/>
<rect x="8.729" y="2.8418" width="1.7289" height="10.2777" rx="0.864452" transform="rotate(15 8.729 2.8418)" fill="#7169DE"/>
</svg>
