<svg width="16" height="16" viewBox="0 0 16 16" fill="none" xmlns="http://www.w3.org/2000/svg">
<g opacity="0.4">
<path d="M9 9.22547V14.7367C9 14.9323 9.2286 15.072 9.40001 14.9603L14.8572 11.8863C14.9429 11.8304 15 11.7466 15 11.6627V6.26328C15 6.0677 14.7715 5.92796 14.6 6.03975L9.14287 9.00193C9.05714 9.02988 9 9.11367 9 9.22547Z" fill="white"/>
<path d="M13.8502 4.34348C14.0499 4.45731 14.0499 4.71338 13.8502 4.82722L8.31393 7.87194L8.14267 7.95731C8.05709 8.01423 7.9429 8.01423 7.85733 7.95731L7.68607 7.87194L2.14982 4.82722C1.95006 4.71338 1.95006 4.45731 2.14982 4.34348L7.68607 1.15647L7.85733 1.04269C7.9429 0.985771 8.05709 0.985771 8.14267 1.04269L8.31393 1.15647L13.8502 4.34348Z" fill="white"/>
<path d="M1 6.25199V11.6588C1 11.7428 1.05714 11.8267 1.14287 11.8827L6.59999 14.9602C6.77146 15.0721 7 14.9322 7 14.7364V9.2176C7 9.13366 6.94286 9.02179 6.85713 8.99381L1.40001 6.0282C1.22855 5.94426 1 6.05618 1 6.25199Z" fill="white"/>
</g>
</svg>
