<svg width="16" height="16" viewBox="0 0 16 16" fill="none" xmlns="http://www.w3.org/2000/svg">
<g opacity="0.5">
  <path fill-rule="evenodd" clip-rule="evenodd"
        d="M6.90401 14.9967C6.93584 15.0011 6.96816 15.0011 7 14.9967C7.03184 15.0011 7.06416 15.0011 7.096 14.9967C7.43743 14.8848 7.7634 14.7632 8.07406 14.6316L6.21065 13.5502C5.92831 13.3859 5.75 13.0819 5.75 12.7496V8.45635C5.75 8.15583 5.88756 7.90222 6.09319 7.73669C6.02543 7.37169 6.17218 6.97159 6.54181 6.75631L6.54296 6.75563L10.1687 4.65253L10.282 4.58705C10.5709 4.42014 10.9278 4.42014 11.2167 4.58705L11.331 4.65314L12.9997 5.62103V3.05264C13.0027 2.98839 12.9838 2.92496 12.9458 2.87226C12.9078 2.81956 12.8529 2.78056 12.7897 2.76133L7.09 1.01342C7.03141 0.995527 6.96859 0.995527 6.91001 1.01342L1.2103 2.76133C1.14709 2.78056 1.09221 2.81956 1.05423 2.87226C1.01624 2.92496 0.997285 2.98839 1.00031 3.05264V6.54846C1.00031 10.9969 2.87522 13.677 6.90401 14.9967ZM10.8386 9.79728C10.7833 9.8286 10.7168 9.8286 10.6615 9.79728C10.7168 9.82858 10.7833 9.82858 10.8386 9.79728ZM6.84341 7.64058C6.85879 7.67498 6.88507 7.70538 6.9221 7.7261V7.72609C6.88507 7.70537 6.85879 7.67498 6.84341 7.64058Z"
        fill="url(#paint0_linear_2201_142)"/>
  <path fill-rule="evenodd" clip-rule="evenodd"
        d="M14.5794 7.4044C14.7027 7.47557 14.7012 7.65635 14.5766 7.7261L10.9547 9.73322L10.8386 9.79728C10.7833 9.8286 10.7168 9.8286 10.6615 9.79728L10.5454 9.73322L6.92209 7.7261C6.79745 7.65635 6.79461 7.47699 6.91926 7.4044L10.544 5.3019L10.6573 5.23642C10.7139 5.20368 10.7848 5.20368 10.8414 5.23642L10.9547 5.3019L14.5794 7.4044ZM11.075 10.4364V14.8236C11.075 14.9588 11.2209 15.0428 11.3371 14.9759L14.9122 12.9019C14.966 12.8706 15 12.8122 15 12.7496V8.45635C15 8.32254 14.8569 8.23856 14.7408 8.30261L11.1642 10.2827C11.109 10.314 11.075 10.3724 11.075 10.4364ZM6.5 12.7496V8.45635C6.5 8.32254 6.64306 8.23856 6.75921 8.30261L10.3329 10.2827C10.3896 10.314 10.4236 10.3724 10.4236 10.4364V14.8236C10.4236 14.9588 10.2777 15.0443 10.1615 14.9759L6.58782 12.9019C6.53399 12.8706 6.5 12.8122 6.5 12.7496Z"
        fill="url(#paint1_linear_2201_142)"/>
</g>
  <defs>
    <linearGradient id="paint0_linear_2201_142" x1="2.94521" y1="0.999997" x2="17.2923" y2="4.36802"
                    gradientUnits="userSpaceOnUse">
      <stop stop-color="#9043C6"/>
      <stop offset="1" stop-color="#145DEB"/>
    </linearGradient>
    <linearGradient id="paint1_linear_2201_142" x1="7.72711" y1="5.21187" x2="18.0662" y2="7.74101"
                    gradientUnits="userSpaceOnUse">
      <stop stop-color="#F99048"/>
      <stop offset="1" stop-color="#E555AC"/>
    </linearGradient>
  </defs>
</svg>
