<svg xmlns="http://www.w3.org/2000/svg" width="16" height="16" viewBox="0 0 16 16"><rect id="frame" width="16" height="16" fill="none"/><g fill="none" fill-rule="evenodd"><g transform="translate(.5 5.6)"><path fill="#34A2F2" d="M14.85 2.439c-.039-.031-.4-.304-1.162-.304-.202 0-.403.018-.601.052-.148-1.012-.984-1.505-1.021-1.527L11.86.542l-.134.195a2.744 2.744 0 0 0-.364.85c-.137.578-.054 1.12.24 1.583-.355.198-.923.246-1.038.25H.5c.017 1.381.187 2.44.512 3.176C1.5 7.7 2.042 8.409 2.945 8.84c.903.43 1.459.576 2.753.576a9.368 9.368 0 0 0 1.743-.158 7.286 7.286 0 0 0 2.274-.826 6.253 6.253 0 0 0 1.552-1.27c.745-.844 1.19-2.384 1.52-3.218h.13c.817 0 1.318-.327 1.595-.6a1.74 1.74 0 0 0 .42-.623l.059-.171-.141-.111z"/><circle cx="4.75" cy="5.65" r="1.25" fill="#FFF"/><circle cx="4.75" cy="5.65" r="1" fill="#34A2F2" fill-rule="nonzero"/></g><path fill="#34A2F2" fill-rule="nonzero" d="M4 3h5v5H4z"/></g></svg>