<svg xmlns="http://www.w3.org/2000/svg" width="16" height="16" viewBox="0 0 16 16"><rect id="frame" width="16" height="16" fill="none"/><g fill="none" fill-rule="evenodd"><path fill="#885300" d="M9.009 6.963c0 .286-.427.519-.952.519-.527 0-.953-.233-.953-.52 0-.285.426-.518.953-.518.525 0 .952.233.952.519"/><path fill="#000" d="M8.532 6.639c0 .353-.217.324-.483.324-.268 0-.485.029-.485-.324 0-.353.217-.64.485-.64.266 0 .483.287.483.64"/><path fill="#B08D56" d="M12.086 9C12.065 8.707 12 8.381 12 8c0-1.556.285-3.404.285-3.404C12.285 2.617 10.5 1 8 1S3.715 2.617 3.715 4.596C3.715 4.596 4 6.444 4 8c0 .381-.076 1-.076 1-.063 1.251-.21 2.404-.21 2.404C3.715 13.383 5.5 15 8 15c2.5 0 4.285-1.617 4.285-3.596L12.085 9z"/><path fill="#B08D56" d="M13 1.907c0 .501-.373.907-.833.907-.461 0-.834-.406-.834-.907 0-.5.373-.907.834-.907.46 0 .833.406.833.907m-10 0c0 .501.373.907.833.907.461 0 .834-.406.834-.907 0-.5-.373-.907-.834-.907-.46 0-.833.406-.833.907"/><path fill="#FFF" d="M7.524 8h.953v-.777h-.953z"/><path fill="#885300" d="M8.952 6.963c0 .286-.426.519-.952.519-.527 0-.952-.233-.952-.52 0-.285.425-.518.952-.518.526 0 .952.233.952.519"/><path fill="#000" d="M8.477 6.695c0 .291-.217.268-.484.268-.268 0-.485.023-.485-.268 0-.29.217-.527.485-.527.267 0 .484.236.484.527"/><path fill="#B08D56" fill-rule="nonzero" d="M13 8.648c0 .357-.267.647-.596.647-.328 0-.594-.29-.594-.647 0-.358.266-.648.594-.648.329 0 .596.29.596.648m-8.81 0c0 .357-.267.647-.595.647-.329 0-.595-.29-.595-.647C3 8.29 3.266 8 3.595 8c.328 0 .595.29.595.648m1 5.704c0 .358-.267.648-.595.648-.329 0-.595-.29-.595-.648 0-.357.266-.647.595-.647.328 0 .595.29.595.647m6.81 0c0 .358-.267.648-.596.648-.328 0-.594-.29-.594-.648 0-.357.266-.647.594-.647.329 0 .596.29.596.647"/><path fill="#805D10" d="M13 5.25a2.25 2.25 0 1 1-4.502-.002A2.25 2.25 0 0 1 13 5.25"/><path fill="#FFF" d="M12.5 5.25a1.75 1.75 0 1 1-3.499.001A1.75 1.75 0 0 1 12.5 5.25"/><path fill="#000" d="M11.334 5.193a.807.807 0 1 1-1.614 0 .807.807 0 0 1 1.614 0"/><path fill="#805D10" d="M7.5 5.25a2.25 2.25 0 1 1-4.502-.002A2.25 2.25 0 0 1 7.5 5.25"/><path fill="#FFF" d="M7 5.25a1.75 1.75 0 1 1-3.499.001A1.75 1.75 0 0 1 7 5.25"/><path fill="#000" d="M6.365 5.193a.807.807 0 1 1-1.614 0 .807.807 0 0 1 1.614 0"/><path fill="#898182" d="M8 8.06c-1.676 0-3.137-.347-4.023-.868.013.27.023.544.023.808 0 .38-.076 1-.076 1a23.259 23.259 0 0 1-.064.954 18.124 18.124 0 0 1-.038.439l-.006.059c-.011.12-.021.23-.032.332.728.988 2.333 1.215 4.216 1.215s3.488-.227 4.216-1.215c-.047-.453-.106-1.1-.14-1.784h.01C12.064 8.707 12 8.38 12 8c0-.264.01-.537.023-.808-.886.52-2.347.868-4.023.868"/><path fill="#EEEEF5" d="M8 11.648c-2.072 0-3.271-.3-3.854-.97.043-.432.096-1.034.127-1.66l.019-.368h-.005c.01-.219.016-.432.016-.65l-.002-.25c.968.418 2.299.66 3.699.66s2.731-.242 3.699-.66l-.002.25c0 .265.008.523.024.793l.006.224c.031.627.084 1.23.127 1.66-.583.67-1.782.971-3.854.971"/><path fill="#000" d="M8.777 9.585c.285.686-.13 1.395-.776 1.395-.648 0-1.126-.563-.794-1.395.2-.604.785-1.084.785-1.084s.584.48.785 1.084"/></g></svg>