<svg width="16" height="16" viewBox="0 0 16 16" fill="none" xmlns="http://www.w3.org/2000/svg">
<g opacity="0.4">
<path d="M13.2132 1H6.53134C6.25766 1 6.01822 1.11705 5.84719 1.29266C5.66474 1.47995 5.56213 1.72575 5.56213 2.00668C5.56213 2.54516 6.02964 3.00168 6.56553 3.00168H8.54961C8.81186 3.00168 9.06268 3.11871 9.24513 3.29431C9.42759 3.4699 9.54162 3.7157 9.54162 3.98494C9.54162 4.26587 9.43897 4.51172 9.25656 4.69901C9.18814 4.76922 9.11972 4.82778 9.03988 4.8746C8.90308 4.9565 8.74344 4.99163 8.57241 4.99163H7.96806C7.69438 4.99163 7.45494 5.10871 7.28391 5.28431C7.10146 5.47159 6.99885 5.7174 6.99885 5.99833C6.99885 6.54849 7.46636 6.99333 8.00225 6.99333H8.23031C8.28731 6.99333 8.34435 6.99333 8.38996 7.00502C8.84604 7.08697 9.22233 7.49667 9.22233 7.97658C9.22233 8.199 9.15391 8.40972 9.0285 8.58527C9.00569 8.6204 8.9715 8.65553 8.93727 8.69065C8.75482 8.86625 8.51537 8.98328 8.25312 8.98328H4.96921C4.69553 8.98328 4.45608 9.10036 4.28506 9.2759C4.10261 9.46324 4 9.70904 4 9.98997C4 10.5284 4.46746 10.985 4.99202 10.985H7.09008C7.61458 10.985 8.08209 11.4298 8.08209 11.9799C8.08209 12.1087 8.05929 12.2375 8.01367 12.3545C7.96806 12.4833 7.88826 12.6003 7.79704 12.694C7.62596 12.8813 7.37514 12.9866 7.11289 12.9866H6.70237C6.42874 12.9866 6.18924 13.1037 6.00684 13.2793C5.82438 13.4666 5.72178 13.7124 5.72178 13.9933C5.72178 14.5552 6.16644 15 6.70237 15H13.2132C13.6465 15 14 14.6371 14 14.1923V1.8077C13.9886 1.36287 13.6465 1 13.2132 1ZM11.6397 2.46321C12.2212 2.46321 12.7001 2.95486 12.7001 3.55185C12.7001 4.14884 12.2326 4.64045 11.6397 4.64045C11.0581 4.64045 10.5792 4.16053 10.5792 3.55185C10.5906 2.94317 11.0581 2.46321 11.6397 2.46321ZM12.7913 13.6304H10.5222V13.1271H12.7913V13.6304ZM12.7913 12.6589H10.5222V12.1555H12.7913V12.6589ZM12.7913 11.6873H10.5222V11.1956H12.7913V11.6873Z" fill="#4B45A9"/>
<path d="M4.96529 7.05147C5.52414 7.05147 5.97717 6.60077 5.97717 6.04478C5.97717 5.48879 5.52414 5.03809 4.96529 5.03809C4.40639 5.03809 3.95337 5.48879 3.95337 6.04478C3.95337 6.60077 4.40639 7.05147 4.96529 7.05147Z" fill="#4B45A9"/>
<path d="M3.74123 2.76793C4.14412 2.76793 4.47074 2.44299 4.47074 2.04217C4.47074 1.64135 4.14412 1.31641 3.74123 1.31641C3.33834 1.31641 3.01172 1.64135 3.01172 2.04217C3.01172 2.44299 3.33834 2.76793 3.74123 2.76793Z" fill="#4B45A9"/>
<path d="M2.72951 6.81769C3.13241 6.81769 3.45902 6.4928 3.45902 6.09197C3.45902 5.69115 3.13241 5.36621 2.72951 5.36621C2.32662 5.36621 2 5.69115 2 6.09197C2 6.4928 2.32662 6.81769 2.72951 6.81769Z" fill="#4B45A9"/>
</g>
</svg>
