<svg xmlns="http://www.w3.org/2000/svg" width="13" height="13" viewBox="0 0 13 13"><rect id="frame" width="13" height="13" fill="none"/><path fill="#AFB1B3" fill-rule="evenodd" d="M1.705 2.023L0 10.543h2.341l1.065-5.705s.922-.805 1.631-.731c.71.073.71.81.71.81l-.993 5.633h2.342L8.23 4.838s.78-.805 1.561-.731c.78.073.639.884.639.884l-1.065 5.553h2.413l1.206-6.504c.142-1.03-.467-1.922-1.277-2.017-.811-.095-1.632.108-2.342.554A4.541 4.541 0 0 0 8.23 3.6s-.366-1.483-1.49-1.578c-1.124-.095-1.632.182-2.128.474-.497.293-.78.665-.78.665l.195-1.14H1.705z"/></svg>