<svg xmlns="http://www.w3.org/2000/svg" width="16" height="16" viewBox="0 0 16 16"><rect id="frame" width="16" height="16" fill="none"/><g fill="none" fill-rule="evenodd"><path fill="#40B6E0" d="M7.897 10.016L6.7 15.996h1.643l.747-4.004s.647-.565 1.145-.514c.498.052.498.57.498.57L10.036 16h1.644l.796-4.008s.547-.565 1.095-.514c.548.052.448.62.448.62l-.747 3.898h1.693l.846-4.565c.1-.723-.327-1.349-.896-1.415a2.54 2.54 0 0 0-1.643.389c-.498.312-.796.718-.796.718s-.257-1.04-1.046-1.107c-.789-.066-1.145.128-1.494.333-.348.205-.547.466-.547.466l.137-.799h-1.63z"/><path fill="#9AA7B0" fill-opacity=".8" d="M7 1L3 5h4z"/><path fill="#9AA7B0" fill-opacity=".8" d="M13 9H6v5.99c-1.94 0-2.94.003-3 .01V6h5V1h5v8z"/></g></svg>