<svg width="16" height="16" viewBox="0 0 16 16" fill="none" xmlns="http://www.w3.org/2000/svg">
<path d="M8.21292 9.8502C8.07983 9.92894 7.92018 9.92894 7.78708 9.8502L1.18631 5.80891C1.07987 5.73018 1 5.599 1 5.46777C1 5.33655 1.07987 5.20532 1.18631 5.12664L7.78708 1.05905C7.92018 0.980316 8.07983 0.980316 8.21292 1.05905L14.8136 5.12664C14.9201 5.17908 15 5.3103 15 5.46777C15 5.6252 14.9201 5.73018 14.8136 5.80891L8.21292 9.8502Z" fill="white"/>
<path opacity="0.6" d="M1.8251 9.90918L7.78708 13.4786C7.92018 13.5557 8.07983 13.5557 8.21292 13.4786L14.1483 9.90918L14.8136 10.2944C14.9201 10.3457 15 10.4741 15 10.6282C15 10.7566 14.9201 10.885 14.8136 10.9621L8.21292 14.9424C8.07983 15.0194 7.92018 15.0194 7.78708 14.9424L1.18631 10.9621C1.07987 10.885 1 10.7566 1 10.6282C1 10.4998 1.07987 10.3714 1.18631 10.2944L1.8251 9.90918Z" fill="white"/>
<path opacity="0.8" d="M1.8251 7.36328L7.78708 10.9508C7.92018 11.0283 8.07983 11.0283 8.21292 10.9508L14.1483 7.36328L14.8136 7.75042C14.9201 7.82786 15 7.95692 15 8.08598C15 8.215 14.9201 8.34406 14.8136 8.4215L8.21292 12.3962C8.07983 12.4736 7.92018 12.4736 7.78708 12.3962L1.18631 8.4215C1.07987 8.34406 1 8.215 1 8.08598C1 7.95692 1.07987 7.82786 1.18631 7.75042L1.8251 7.36328Z" fill="white"/>
</svg>
