<svg width="16" height="16" viewBox="0 0 16 16" fill="none" xmlns="http://www.w3.org/2000/svg">
<path d="M8.24333 10.1143C8.09123 10.2043 7.90877 10.2043 7.75667 10.1143L0.212923 5.4958C0.0912852 5.40582 -2.64272e-08 5.2559 -2.64272e-08 5.10593C-2.64272e-08 4.95597 0.0912852 4.806 0.212923 4.71607L7.75667 0.0674859C7.90877 -0.0224953 8.09123 -0.0224953 8.24333 0.0674859L15.787 4.71607C15.9087 4.776 16 4.92597 16 5.10593C16 5.28584 15.9087 5.40582 15.787 5.4958L8.24333 10.1143Z" fill="#FDFDFD"/>
<path opacity="0.6" d="M0.942976 10.1816L7.75667 14.261C7.90877 14.349 8.09123 14.349 8.24333 14.261L15.0266 10.1816L15.787 10.6218C15.9087 10.6805 16 10.8273 16 11.0034C16 11.1501 15.9087 11.2969 15.787 11.3849L8.24333 15.9338C8.09123 16.0218 7.90877 16.0218 7.75667 15.9338L0.212923 11.3849C0.0912852 11.2969 -2.64272e-08 11.1501 -2.64272e-08 11.0034C-2.64272e-08 10.8567 0.0912852 10.7099 0.212923 10.6218L0.942976 10.1816Z" fill="#FDFDFD"/>
<path opacity="0.8" d="M0.942976 7.27295L7.75667 11.3729C7.90877 11.4614 8.09123 11.4614 8.24333 11.3729L15.0266 7.27295L15.787 7.71539C15.9087 7.80389 16 7.95138 16 8.09888C16 8.24632 15.9087 8.39382 15.787 8.48232L8.24333 13.0248C8.09123 13.1133 7.90877 13.1133 7.75667 13.0248L0.212923 8.48232C0.0912852 8.39382 -2.64272e-08 8.24632 -2.64272e-08 8.09888C-2.64272e-08 7.95138 0.0912852 7.80389 0.212923 7.71539L0.942976 7.27295Z" fill="#FDFDFD"/>
</svg>
