<svg xmlns="http://www.w3.org/2000/svg" width="16" height="16" viewBox="0 0 16 16"><rect id="frame" width="16" height="16" fill="none"/><g fill="none" fill-opacity=".9"><path fill="#40A0CF" d="M7.91 1.026c-.54 0-1.08.046-1.612.136-1.428.25-1.687.772-1.687 1.735v1.271h3.374v.424h-4.64a2.102 2.102 0 0 0-2.108 1.692 6.172 6.172 0 0 0 0 3.391 1.879 1.879 0 0 0 1.794 1.692h1.16V9.842A2.132 2.132 0 0 1 6.297 7.77h3.37a1.69 1.69 0 0 0 1.687-1.696V2.897a1.872 1.872 0 0 0-1.687-1.735 10.636 10.636 0 0 0-1.758-.136zM6.086 2.049A.636.636 0 1 1 6.09 3.32a.636.636 0 0 1-.005-1.271z"/><path fill="#FFC900" d="M11.775 6.074A2.152 2.152 0 0 1 9.668 8.19h-3.37a1.711 1.711 0 0 0-1.687 1.695v3.178c.11.883.804 1.58 1.687 1.695 1.098.34 2.272.34 3.37 0a1.925 1.925 0 0 0 1.687-1.695V11.79h-3.37v-.424h5.057c.98 0 1.345-.676 1.686-1.692a5.667 5.667 0 0 0 0-3.391 1.801 1.801 0 0 0-1.686-1.692h-1.267v1.482zM9.88 12.639a.636.636 0 1 1 .006 1.271.636.636 0 0 1-.006-1.271z"/></g></svg>