<?xml version="1.0" encoding="iso-8859-1"?>
<!-- Generator: Adobe Illustrator 16.0.0, SVG Export Plug-In . SVG Version: 6.00 Build 0)  -->
<!DOCTYPE svg PUBLIC "-//W3C//DTD SVG 1.1//EN" "http://www.w3.org/Graphics/SVG/1.1/DTD/svg11.dtd">
<svg version="1.1" id="Capa_1" xmlns="http://www.w3.org/2000/svg" xmlns:xlink="http://www.w3.org/1999/xlink" x="0px" y="0px"
	 width="550.801px" height="550.801px" viewBox="0 0 550.801 550.801" style="enable-background:new 0 0 550.801 550.801;"
	 xml:space="preserve">
<g>
	<path d="M252.29,249.115c-6.982,0-11.715,0.675-14.188,1.35v44.827c2.927,0.675,6.531,0.896,11.488,0.896
		c18.235,0,29.499-9.229,29.499-24.777C279.089,257.458,269.402,249.115,252.29,249.115z"/>
	<path d="M145.305,269.84c0-13.954-9.455-20.946-25.22-21.168c-8.332,0-13.057,0.675-15.536,1.118v41.895h13.511
		C135.169,291.685,145.305,283.121,145.305,269.84z"/>
	<path d="M488.426,197.021H475.2v-63.825c0-0.398-0.063-0.799-0.116-1.203c-0.021-2.533-0.827-5.022-2.562-6.995L366.319,3.694
		c-0.031-0.031-0.062-0.042-0.089-0.074c-0.628-0.709-1.371-1.297-2.146-1.803c-0.232-0.158-0.464-0.288-0.707-0.422
		c-0.675-0.369-1.392-0.675-2.136-0.896c-0.2-0.056-0.374-0.135-0.574-0.19C359.87,0.119,359.026,0,358.188,0H97.2
		c-11.918,0-21.6,9.695-21.6,21.601v175.415H62.375c-17.046,0-30.871,13.819-30.871,30.871v160.545
		c0,17.043,13.824,30.87,30.871,30.87h13.226V529.2c0,11.907,9.682,21.601,21.6,21.601h356.4c11.907,0,21.6-9.693,21.6-21.601
		V419.308h13.226c17.044,0,30.871-13.833,30.871-30.876v-160.54C519.297,210.835,505.47,197.021,488.426,197.021z M97.2,21.601
		h250.193v110.513c0,5.967,4.841,10.8,10.8,10.8h95.407v54.108H97.2V21.601z M313.084,270.515c0,14.874-4.946,27.478-13.953,36.03
		c-11.718,11.043-29.049,15.989-49.314,15.989c-4.504,0-8.554-0.222-11.715-0.675v54.264h-33.998V226.387
		c10.579-1.814,25.444-3.164,46.388-3.164c21.162,0,36.247,4.061,46.383,12.16C306.556,243.04,313.084,255.644,313.084,270.515z
		 M70.541,376.123V226.387c11.032-1.814,27.469-3.164,45.71-3.164c22.52,0,38.288,3.385,49.093,11.938
		c9.007,7.204,13.959,17.782,13.959,31.757c0,19.367-13.737,32.646-26.8,37.381v0.675c10.584,4.271,16.442,14.418,20.266,28.371
		c4.725,17.118,9.456,36.925,12.388,42.778h-35.132c-2.473-4.271-6.083-16.653-10.579-35.354
		c-4.058-18.91-10.586-24.078-24.55-24.311h-10.357v59.664H70.541z M453.601,523.347H97.2V419.308h356.4V523.347z M462.401,376.123
		l-2.251-58.082c-0.676-18.246-1.351-40.32-1.351-62.397h-0.675c-4.73,19.375-11.032,40.998-16.886,58.78l-18.468,59.221h-26.794
		l-16.216-58.757c-4.952-17.792-10.13-39.413-13.737-59.244h-0.448c-0.901,20.506-1.577,43.92-2.7,62.841l-2.7,57.639H328.42
		l9.682-151.762h45.716l14.86,50.657c4.73,17.574,9.455,36.484,12.835,54.277h0.676c4.276-17.571,9.455-37.61,14.412-54.498
		l16.21-50.436h44.809l8.332,151.762H462.401z"/>
</g>
<g>
</g>
<g>
</g>
<g>
</g>
<g>
</g>
<g>
</g>
<g>
</g>
<g>
</g>
<g>
</g>
<g>
</g>
<g>
</g>
<g>
</g>
<g>
</g>
<g>
</g>
<g>
</g>
<g>
</g>
</svg>
