<svg fill="none" xmlns="http://www.w3.org/2000/svg" width="32" height="32">
  <rect width="32" height="32" rx="4" fill="#AB1A1A"/>
  <path d="M19.563 18.34h3.503c-.07 1.148-.386 2.168-.949 3.058-.555.891-1.332 1.586-2.332 2.086-.992.5-2.187.75-3.586.75-1.094 0-2.074-.187-2.941-.562a6.259 6.259 0 0 1-2.227-1.64c-.61-.712-1.074-1.571-1.394-2.579-.32-1.008-.48-2.137-.48-3.387v-1.183c0-1.25.163-2.38.491-3.387.336-1.016.813-1.879 1.43-2.59a6.371 6.371 0 0 1 2.238-1.64c.868-.383 1.836-.575 2.907-.575 1.422 0 2.62.258 3.597.774.985.515 1.746 1.226 2.285 2.133.547.906.875 1.937.985 3.093h-3.516c-.039-.687-.176-1.27-.41-1.746a2.328 2.328 0 0 0-1.066-1.09c-.47-.25-1.094-.375-1.875-.375-.586 0-1.098.11-1.535.329a2.85 2.85 0 0 0-1.102.996c-.297.445-.52 1.008-.668 1.687-.14.672-.211 1.461-.211 2.367v1.207c0 .883.066 1.66.2 2.332.132.665.335 1.227.609 1.688.28.453.64.797 1.078 1.031.445.227.98.34 1.605.34.735 0 1.34-.117 1.817-.352.476-.234.84-.582 1.09-1.043.257-.46.41-1.035.456-1.722Z" fill="#fff"/>
</svg>