<svg width="24" height="24" viewBox="0 0 24 24" fill="none" xmlns="http://www.w3.org/2000/svg">
<rect width="24" height="24" rx="3" fill="#D68000"/>
<path d="M15.8936 18.5V11.5918C15.8936 10.9414 15.9141 10.2266 15.9551 9.44727L15.9814 8.86719H15.876C15.6885 9.85742 15.5449 10.543 15.4453 10.9238L13.5908 18.5H10.0225L8.08008 11.0117C8.02734 10.8242 7.88965 10.1094 7.66699 8.86719H7.56152C7.64355 10.8359 7.68457 12.0664 7.68457 12.5586V18.5H4.35352V5.89648H10.04L11.7715 12.7432C11.8125 12.8838 11.8652 13.1709 11.9297 13.6045C12 14.0322 12.0439 14.3633 12.0615 14.5977H12.1143C12.1787 14.0645 12.2812 13.4346 12.4219 12.708L14.0391 5.89648H19.6377V18.5H15.8936Z" fill="white"/>
</svg>
