<svg width="16" height="16" viewBox="0 0 16 16" fill="none" xmlns="http://www.w3.org/2000/svg">
<rect width="16" height="16" rx="3" fill="#D68000"/>
<path d="M10.5957 12V7.39453C10.5957 6.96094 10.6094 6.48438 10.6367 5.96484L10.6543 5.57812H10.584C10.459 6.23828 10.3633 6.69531 10.2969 6.94922L9.06055 12H6.68164L5.38672 7.00781C5.35156 6.88281 5.25977 6.40625 5.11133 5.57812H5.04102C5.0957 6.89062 5.12305 7.71094 5.12305 8.03906V12H2.90234V3.59766H6.69336L7.84766 8.16211C7.875 8.25586 7.91016 8.44727 7.95312 8.73633C8 9.02148 8.0293 9.24219 8.04102 9.39844H8.07617C8.11914 9.04297 8.1875 8.62305 8.28125 8.13867L9.35938 3.59766H13.0918V12H10.5957Z" fill="white"/>
</svg>
