<svg width="14" height="14" viewBox="0 0 14 14" fill="none" xmlns="http://www.w3.org/2000/svg">
  <path fill-rule="evenodd" clip-rule="evenodd" d="M7.00845 14V10.0449L4.48853 14H7.00845Z" fill="#3B3B63"/>
  <path fill-rule="evenodd" clip-rule="evenodd" d="M4.49988 14H7.0312V10.0449L4.49988 14Z" fill="#53537A"/>
  <path fill-rule="evenodd" clip-rule="evenodd"
        d="M12.5298 8.51875C12.5298 8.51875 12.2498 9.46823 12.4468 9.86953C12.4468 9.86953 12.7425 12.3955 12.8059 14H6.78223V7.30092C6.8559 7.29858 6.92957 7.29673 7.00439 7.29636H7.00972H7.01453C8.37655 7.29846 9.57385 7.73268 9.57385 7.73268C9.57385 7.73268 10.2249 4.63033 10.5244 3.57812C10.5244 3.57812 10.9256 6.91738 12.5298 8.51875Z"
        fill="#53537A"/>
  <path fill-rule="evenodd" clip-rule="evenodd"
        d="M3.52923 3.57812C3.82736 4.63048 4.47618 7.7328 4.47618 7.7328C4.47618 7.7328 5.66909 7.29881 7.03103 7.29659V14H1.25634C1.31955 12.3958 1.6141 9.86971 1.6141 9.86971C1.81029 9.46852 1.53136 8.5189 1.53136 8.5189C3.12978 6.91748 3.52923 3.57812 3.52923 3.57812Z"
        fill="#53537A"/>
  <path d="M0.4375 6.5625L2.625 1.75L3.5 5.25L1.3125 8.75L0.4375 6.5625Z" fill="#C49A7E"/>
  <path d="M0.4375 6.5625L2.625 1.75L3.5 5.25L1.3125 8.75L0.4375 6.5625Z" fill="#C49A7E"/>
  <path d="M13.125 6.5625L11.25 1.75L10.5 5.25L12.375 8.75L13.125 6.5625Z" fill="#C49A7E"/>
  <path d="M13.125 6.5625L11.25 1.75L10.5 5.25L12.375 8.75L13.125 6.5625Z" fill="#C49A7E"/>
  <path fill-rule="evenodd" clip-rule="evenodd"
        d="M10.2858 11H8.57138H8V11.021C8 11.717 8.69023 12.2807 9.49986 12.2807C10.3098 12.2807 11 11.7169 11 11.021V11H10.2858Z"
        fill="#1D1C32"/>
  <path fill-rule="evenodd" clip-rule="evenodd"
        d="M8.54553 11V11.0216C8.54553 11.4477 8.92552 11.7928 9.39787 11.7928C9.87023 11.7928 10.2501 11.4477 10.2501 11.0216V11H8.54553Z"
        fill="white"/>
  <path fill-rule="evenodd" clip-rule="evenodd"
        d="M9.66229 11H9.26095C9.25705 11 9.25371 11.0017 9.25022 11.0023C9.29997 11.0115 9.32756 11.1105 9.31683 11.1764C9.30081 11.2772 9.20298 11.3472 9.09094 11.3489C9.12355 11.4806 9.2459 11.5865 9.40839 11.6065C9.61603 11.6323 9.80792 11.5073 9.83732 11.3253C9.8585 11.1912 9.78506 11 9.66229 11Z"
        fill="#1D1C32"/>
  <path fill-rule="evenodd" clip-rule="evenodd"
        d="M5.28554 11H3.57149H3V11.021C3 11.717 3.69033 12.2807 4.49979 12.2807C5.30967 12.2807 6 11.7169 6 11.021V11H5.28554Z"
        fill="#1D1C32"/>
  <path fill-rule="evenodd" clip-rule="evenodd"
        d="M3.54553 11V11.0216C3.54553 11.4477 3.92586 11.7928 4.3976 11.7928C4.87017 11.7928 5.25008 11.4477 5.25008 11.0216V11H3.54553Z"
        fill="white"/>
  <path fill-rule="evenodd" clip-rule="evenodd"
        d="M4.66264 11H4.26093C4.25745 11 4.25369 11.0017 4.25048 11.0023C4.30009 11.0115 4.32754 11.1105 4.31709 11.1764C4.30092 11.2772 4.20367 11.3472 4.09094 11.3489C4.12397 11.4806 4.2463 11.5865 4.40849 11.6065C4.61596 11.6323 4.80825 11.5073 4.83723 11.3253C4.85869 11.1912 4.7854 11 4.66264 11Z"
        fill="#1D1C32"/>
  <path fill-rule="evenodd" clip-rule="evenodd"
        d="M14 6.79674C14 5.24911 11.6748 0.965566 11.4091 0.482155L11.145 0H10.5375L9.60083 6.39394L9.10933 7.18349C8.6348 7.02808 7.82724 6.81118 7.01411 6.81118C6.20187 6.81118 5.39976 7.02734 4.92725 7.183L4.4355 6.39382L4.06172 3.84579C4.06222 3.84159 4.06285 3.83591 4.06285 3.83332L4.05994 3.83295L3.49738 0H2.87956L2.60988 0.482155C2.34382 0.965566 0 5.24911 0 6.79674V6.8876L1.07324 9.67573C0.952008 10.7495 0.752971 12.7124 0.737212 14H1.74609C1.7718 12.9852 1.92225 11.2126 2.10029 9.65711L2.11386 9.53754L1.91931 9.02749C2.58768 8.345 3.05668 7.40569 3.38021 6.5116L3.41166 6.72925L4.47319 8.42826L4.88791 8.25482C4.8983 8.2505 5.96186 7.80975 6.9946 7.80975C8.02074 7.80975 9.1018 8.25087 9.11195 8.25519L9.52603 8.42715L10.5863 6.72888L10.6279 6.44526C10.948 7.34813 11.4165 8.30424 12.088 9.00192L11.8843 9.53717L11.8979 9.65662C12.0761 11.2143 12.2267 12.9895 12.2535 14H13.292C13.2724 12.7123 13.0668 10.7495 12.9457 9.67597L13.9999 6.88747L14 6.79674ZM1.05778 6.6833C1.11589 5.88459 1.96311 3.9709 2.77126 2.35812L2.98667 3.83272C2.90451 4.38407 2.52905 6.54636 1.5219 7.90932L1.05778 6.6833ZM12.4851 7.90932C11.3875 6.40101 11.0431 3.94902 11.0133 3.72493L11.2135 2.35812C12.0286 3.97927 12.8836 5.90318 12.9422 6.7061L12.4851 7.90932Z"
        fill="#1D1C32"/>
</svg>
