<svg width="13" height="13" viewBox="0 0 13 13" fill="none" xmlns="http://www.w3.org/2000/svg">
<path fill-rule="evenodd" clip-rule="evenodd" d="M6.50774 12.9995V9.32715L4.16789 12.9995H6.50774Z" fill="#3B3B63"/>
<path fill-rule="evenodd" clip-rule="evenodd" d="M4.17871 12.9995H6.52915V9.32715L4.17871 12.9995Z" fill="#53537A"/>
<path fill-rule="evenodd" clip-rule="evenodd" d="M11.6348 7.90983C11.6348 7.90983 11.3748 8.79146 11.5577 9.16408C11.5577 9.16408 11.8322 11.5096 11.8911 12.9995H6.29773V6.77903C6.36614 6.77685 6.43455 6.77514 6.50402 6.77479H6.50897H6.51344C7.77818 6.77674 8.88996 7.17993 8.88996 7.17993C8.88996 7.17993 9.49448 4.29928 9.7726 3.32227C9.7726 3.32227 10.1452 6.4229 11.6348 7.90983Z" fill="#53537A"/>
<path fill-rule="evenodd" clip-rule="evenodd" d="M3.27718 3.32227C3.55402 4.29942 4.15649 7.18005 4.15649 7.18005C4.15649 7.18005 5.26419 6.77707 6.52885 6.77501V12.9995H1.16663C1.22532 11.5099 1.49885 9.16425 1.49885 9.16425C1.68102 8.79173 1.42201 7.90996 1.42201 7.90996C2.90626 6.42299 3.27718 3.32227 3.27718 3.32227Z" fill="#53537A"/>
<path d="M0.40564 6.09359L2.43689 1.625L3.24939 4.87489L1.21814 8.12477L0.40564 6.09359Z" fill="#C49A7E"/>
<path d="M0.40564 6.09359L2.43689 1.625L3.24939 4.87489L1.21814 8.12477L0.40564 6.09359Z" fill="#C49A7E"/>
<path d="M12.1875 6.09359L10.4464 1.625L9.75 4.87489L11.4911 8.12477L12.1875 6.09359Z" fill="#C49A7E"/>
<path d="M12.1875 6.09359L10.4464 1.625L9.75 4.87489L11.4911 8.12477L12.1875 6.09359Z" fill="#C49A7E"/>
<path fill-rule="evenodd" clip-rule="evenodd" d="M5.28554 11H3.57149H3V11.0328C3 12.1196 3.69033 13 4.49979 13C5.30967 13 6 12.1194 6 11.0328V11H5.28554Z" fill="#333152"/>
<path fill-rule="evenodd" clip-rule="evenodd" d="M3.5 11V11.0409C3.5 11.8469 3.94625 12.5 4.49976 12.5C5.05424 12.5 5.5 11.8469 5.5 11.0409V11H3.5Z" fill="white"/>
<path fill-rule="evenodd" clip-rule="evenodd" d="M4.76226 11H4.22665C4.22201 11 4.21699 11.0028 4.21272 11.0038C4.27886 11.0188 4.31546 11.1813 4.30152 11.2893C4.27997 11.4545 4.1503 11.5692 4 11.572C4.04403 11.788 4.20715 11.9616 4.4234 11.9945C4.70003 12.0368 4.95641 11.8319 4.99505 11.5333C5.02366 11.3136 4.92594 11 4.76226 11Z" fill="#1D1C32"/>
<path fill-rule="evenodd" clip-rule="evenodd" d="M9.28554 11H7.57149H7V11.0328C7 12.1196 7.69033 13 8.49979 13C9.30967 13 10 12.1194 10 11.0328V11H9.28554Z" fill="#333152"/>
<path fill-rule="evenodd" clip-rule="evenodd" d="M7.5 11V11.0409C7.5 11.8469 7.94625 12.5 8.49976 12.5C9.05424 12.5 9.5 11.8469 9.5 11.0409V11H7.5Z" fill="white"/>
<path fill-rule="evenodd" clip-rule="evenodd" d="M8.76226 11H8.22665C8.22201 11 8.21699 11.0028 8.21272 11.0038C8.27886 11.0188 8.31546 11.1813 8.30152 11.2893C8.27997 11.4545 8.1503 11.5692 8 11.572C8.04403 11.788 8.20715 11.9616 8.4234 11.9945C8.70003 12.0368 8.95641 11.8319 8.99505 11.5333C9.02366 11.3136 8.92594 11 8.76226 11Z" fill="#1D1C32"/>
<path fill-rule="evenodd" clip-rule="evenodd" d="M9.53007 10C9.64795 9.89786 10.6487 9 9.31025 9C8.10081 9 7.23061 9.77161 7 10H9.53007Z" fill="#C49A7E"/>
<path fill-rule="evenodd" clip-rule="evenodd" d="M6 10C5.76953 9.77161 4.89924 9 3.68933 9C2.35143 9 3.35229 9.89786 3.46949 10H6Z" fill="#C49A7E"/>
<path fill-rule="evenodd" clip-rule="evenodd" d="M13 6.31104C13 4.874 10.8409 0.896566 10.5942 0.4477L10.3489 0H9.78485L8.91506 5.93702L8.45867 6.35003C8.01803 6.20572 7.26815 6.00003 6.5131 6.00003C5.75888 6.00003 5.01406 6.20549 4.5753 6.35003L4.11867 5.93691L3.77159 3.57096C3.77206 3.56707 3.77265 3.56179 3.77265 3.55939L3.76995 3.55904L3.24757 0H2.67388L2.42346 0.4477C2.1764 0.896566 0 4.874 0 6.31104V6.3954L0.996583 8.98429C0.884007 9.98135 0.699187 11.8039 0.684554 12.9995H1.62137C1.64524 12.0573 1.78495 10.4113 1.95027 8.96701L1.96287 8.85598L1.78221 8.38238C2.40284 7.74866 2.83834 6.87647 3.13876 6.04627L3.16797 6.24837L4.15367 7.58003L4.53877 7.41003C4.54843 7.40601 5.53602 7.00003 6.49499 7.00003C7.44783 7.00003 8.45167 7.40601 8.46109 7.41003L8.8456 7.58003L9.83013 6.24803L9.86876 5.98468C10.166 6.82302 10.601 7.71081 11.2246 8.35864L11.0355 8.85563L11.0481 8.96655C11.2135 10.4129 11.3533 12.0612 11.3783 12.9995H12.3426C12.3244 11.8038 12.1334 9.98133 12.021 8.98452L12.9999 6.39529L13 6.31104ZM0.982222 6.20571C1.03618 5.46407 1.82289 3.68713 2.57331 2.1896L2.77333 3.55883C2.69705 4.07078 2.34841 6.07855 1.4132 7.34411L0.982222 6.20571ZM11.5933 7.34411C10.5741 5.94359 10.2543 3.66682 10.2267 3.45874L10.4126 2.1896C11.1694 3.69491 11.9634 5.48133 12.0178 6.22688L11.5933 7.34411Z" fill="#1D1C32"/>
</svg>
