<svg xmlns="http://www.w3.org/2000/svg" width="16" height="16" viewBox="0 0 16 16"><rect id="frame" width="16" height="16" fill="none"/><path fill="#2C8EBB" d="M15.093 11.228c-.074-.584-.568-.987-1.2-.978-.946.012-1.739.501-2.265.826a4.926 4.926 0 0 1-.534.291 4.363 4.363 0 0 0-.242-1.787c-.3-.822-.703-1.327-.99-1.62.332-.484.788-1.19 1.002-2.284.185-.933.127-2.383-.296-3.197a.654.654 0 0 0-.41-.333c-.075-.02-.214-.061-.49.017-.415-.86-.559-.95-.67-1.023a.838.838 0 0 0-.756-.087c-.34.124-.632.452-.908 1.036a4.28 4.28 0 0 0-.11.25 3.03 3.03 0 0 0-2.039.978c-.086.095-.255.165-.431.23h.004c-.362.128-.526.424-.728.958-.279.748.009 1.483.292 1.96-.386.345-.9.896-1.17 1.541a4.902 4.902 0 0 0-.363 2.001c-.287.304-.731.876-.78 1.517-.066.895.259 1.504.402 1.725.041.066.087.12.136.173a.953.953 0 0 0 .514 1.023c.542.288 1.298.411 1.882.12.21.221.591.435 1.286.435h.041c.177 0 2.42-.12 3.074-.28.291-.07.493-.193.624-.304.42-.131 1.578-.525 2.671-1.232.773-.502 1.04-.608 1.615-.748a1.09 1.09 0 0 0 .839-1.208z"/></svg>